<svg xmlns="http://www.w3.org/2000/svg" viewBox="0 0 100 125"><path stroke="#FFF" fill="none" d="M87.475 12.525c-4.002-4.002-10.515-4.002-14.517 0a1.955 1.955 0 0 0 2.764 2.764 6.364 6.364 0 0 1 8.99 0 6.364 6.364 0 0 1 0 8.988c-.046.045-.08.097-.12.145-.048.04-.1.073-.145.12l-2.594 2.593-14.94-14.94c-.763-.763-2-.763-2.764 0L47.91 28.434a1.955 1.955 0 0 0 2.764 2.764L65.53 16.34l1.806 1.806-34.91 34.91a1.958 1.958 0 0 0 0 2.764l1.015 1.014-4.87 4.87a1.958 1.958 0 0 0 0 2.765l2.1 2.097-4.136 4.135a1.955 1.955 0 0 0 2.764 2.764l4.135-4.135 2.098 2.1c.383.38.883.57 1.383.57s1-.19 1.382-.57l4.87-4.872 1.016 1.015c.383.382.883.572 1.383.572s1-.19 1.382-.572L83.237 31.28l3.976-3.975c.045-.045.08-.097.12-.145.047-.04.1-.073.144-.118 4-4.002 4-10.515-.002-14.517zm-50.562 54.76l-2.098-2.1-2.098-2.097 3.49-3.49 4.195 4.197-3.49 3.49zm8.65-3.858l-1.015-1.014-6.96-6.96-1.015-1.014L70.1 20.91l8.99 8.99L45.56 63.427zM40.828 38.28c-.764-.764-.764-2.002 0-2.765l2.795-2.796a1.955 1.955 0 0 1 2.764 2.763l-2.797 2.796c-.382.38-.882.57-1.382.57s-1-.19-1.38-.57zm17.264 28.567v13.27c0 5.713-4.647 10.36-10.36 10.36H19.883c-5.712 0-10.36-4.647-10.36-10.36V52.266c0-5.712 4.648-10.36 10.36-10.36h12.65a1.955 1.955 0 0 1 0 3.91h-12.65a6.457 6.457 0 0 0-6.45 6.45V80.12a6.457 6.457 0 0 0 6.45 6.45h27.853a6.457 6.457 0 0 0 6.45-6.45V66.846a1.955 1.955 0 0 1 3.91 0z"/></svg>