<svg xmlns="http://www.w3.org/2000/svg" viewBox="0 0 24 30"><path fill="none" d="M21 16v-2c0-1.6-1.3-3-3-3s-3 1.4-3 3v2h-1v6h8v-6h-1zm-2 0h-2v-2c0-.6.4-1 1-1s1 .4 1 1v2z"/><path d="M6 16h6v2H6zM6 12h7v2H6zM6 8h9v2H6z"/><path d="M19 2v7h-2V4H6v2H4v14h8v2H2V5l3-3z"/><text y="39" font-size="5" font-weight="bold" font-family="'Helvetica Neue', Helvetica, Arial-Unicode, Arial, Sans-serif">Created by Creative Stall</text><text y="44" font-size="5" font-weight="bold" font-family="'Helvetica Neue', Helvetica, Arial-Unicode, Arial, Sans-serif">from the Noun Project</text></svg>