<svg xmlns="http://www.w3.org/2000/svg" version="1" viewBox="0 0 53 77.3"><path d="M23.4 41.6c-1.6.7-3.2 1.5-4.7 2.3V20.6c2.7-1.2 4.7-4 4.7-7.2 0-4.4-3.6-7.9-7.9-7.9-4.4 0-7.9 3.6-7.9 7.9 0 3.2 1.9 6 4.7 7.2v37.1c-2.7 1.2-4.7 4-4.7 7.2 0 4.4 3.6 7.9 7.9 7.9 4.4 0 7.9-3.6 7.9-7.9 0-3.2-1.9-6-4.7-7.2V53c0-2 2.8-3.4 7.4-5.5 6.4-2.9 14.8-6.8 16.4-16.9l-6.67-.02C34.63 36.28 30 38.6 23.4 41.6zm-4 23.3c0 2.2-1.8 3.9-3.9 3.9-2.2 0-3.9-1.8-3.9-3.9 0-2.2 1.8-3.9 3.9-3.9 2.2 0 3.9 1.8 3.9 3.9zm-3.9-47.6c-2.2 0-3.9-1.8-3.9-3.9 0-2.1 1.7-3.9 3.9-3.9s3.9 1.8 3.9 3.9c0 2.2-1.8 3.9-3.9 3.9z"/><path d="M42.5 14V7.5h-6.67V14h-6.5v6.67h6.5v6.5h6.67v-6.5H49V14z"/></svg>