<svg xmlns="http://www.w3.org/2000/svg" viewBox="0 0 100 125"><path fill="none" d="M47.447 48.283a4.21 4.21 0 0 0-3.003 1.243c-1.658 1.662-1.644 4.374.032 6.045a4.283 4.283 0 0 0 3.043 1.262 4.21 4.21 0 0 0 3.002-1.243c1.658-1.663 1.644-4.374-.033-6.047a4.282 4.282 0 0 0-3.043-1.26zm1.72 5.954a2.31 2.31 0 0 1-1.647.68c-.638 0-1.237-.248-1.69-.7-.93-.927-.94-2.425-.03-3.338a2.31 2.31 0 0 1 1.648-.682 2.38 2.38 0 0 1 1.69.7c.928.927.94 2.425.03 3.34z"/><path fill="none" d="M64.9 24.622c-2.782 0-5.396 1.085-7.358 3.054l-2.445 2.766-4.48 4.488-1.25 1.42c-1.584 1.977-6.983 8.074-14.003 9.01 0 0-.185.023-.41.054a.495.495 0 0 0-.416.47l-.005.415c0 .136-.206 13.278-5.506 22.368-.15.262-.472.412-.715.378a3.106 3.106 0 0 0-.442-.03c-.85 0-1.642.33-2.238.926-1.233 1.238-1.223 3.257.023 4.5a3.18 3.18 0 0 0 2.263.938c.847 0 1.642-.328 2.237-.926.692-.693 1-1.65.9-2.58-.033-.3.104-.665.364-.817 9.075-5.322 22.217-5.56 22.354-5.563l.414-.006a.494.494 0 0 0 .47-.416l.053-.41c.92-7.022 7.003-12.437 8.976-14.024l1.415-1.26 4.478-4.488 2.678-2.533c4.047-4.057 4.04-10.65-.018-14.696a10.317 10.317 0 0 0-7.34-3.038zm-36.1 48.48a1.24 1.24 0 0 1-.882.363c-.343 0-.666-.135-.91-.38-.5-.498-.51-1.302-.02-1.793.233-.234.546-.363.882-.363.254 0 .5.073.71.214l.11.073c.06.04.143.12.182.18l.073.11A1.266 1.266 0 0 1 28.8 73.1zm33.08-23.467c-2.42 2.042-7.437 6.938-8.834 13.433a.742.742 0 0 1-.652.562c-3.54.19-13.217 1.08-20.927 5.203-.267.143-.36.05-.218-.217 4.103-7.722 4.97-17.4 5.15-20.94a.743.743 0 0 1 .56-.654c6.492-1.412 11.374-6.44 13.41-8.866.195-.23.522-.25.735-.036l10.81 10.78a.49.49 0 0 1-.034.735zm5.957-5.712L64.15 47.62a.547.547 0 0 1-.774 0L52.378 36.65a.546.546 0 0 1 0-.772l3.688-3.697a.546.546 0 0 1 .773 0l9.597 9.574 1.4 1.396c.213.21.213.56 0 .773zm3.064-2.92l-.863.865a.547.547 0 0 1-.773.002l-11.23-11.202a.547.547 0 0 1-.002-.773l.865-.866a8.42 8.42 0 0 1 6.002-2.492c2.26 0 4.386.88 5.986 2.476 3.31 3.3 3.316 8.678.015 11.988z"/>\</svg>