<svg xmlns="http://www.w3.org/2000/svg" viewBox="0 0 100 125"><path d="M9.3 65.6L7.1 44c-.1-1 .2-2.1 1.1-2.8 1-.8 2.6-1.1 3.8.2.8.9 1.2 3.9 1.4 4.7.5 2.8.9 6.9 1 9.7v.7c.1 1.3.4 2.4.9 3.5 2.9 6.3 8.7 14.2 8.7 14.2l.3.5c.2.4.7.5 1.1.3.4-.2.6-.8.3-1.2L18 61.3c-.8-1.4-.4-3.4 1.1-4.3 1.5-.9 3.5-.4 4.3.9l8 10.2c.5.7 1.5 1.6 2.2 2.1 7.2 5.2 8.1 10.4 8.8 13.1 0 0 .1.6.1 1.5 0 .7 0 1.6-.1 2.5l-.6 8.7c0 .6-.5 1.1-1.1 1.1L27.2 97c-.6 0-1.1-.5-1.1-1.1l-.3-7.1L13 73.4c-1.9-2-3.2-4.3-3.6-7l-.1-.8zm5.8-22.7c.2.8.4 1.5.5 2.3.4 2.4 1 6.9 1.1 9.2v.7c.3-.2.6-.5.9-.6l1.2-.6v-.1c-.3-2.2-1.1-6.5-1.7-8.6-.2-1.1-.8-1.9-2-2.3zm4.3 3.1c.4 1.6 1.3 4.6 1.5 6.2l.1 1.1v.3c.7 0 1.3.2 1.9.4-.2-1.4-1.2-4.3-1.5-5.7-.2-1.1-.9-1.9-2-2.3zm68.7-4.6c-.8.9-1.2 3.9-1.4 4.7-.5 2.8-.9 6.9-1 9.7v.7c-.1 1.3-.4 2.4-.9 3.5-2.9 6.3-8.7 14.2-8.7 14.2l-.3.5c-.3.3-.8.5-1.1.3-.4-.2-.6-.8-.3-1.2L82 61.3c.8-1.4.4-3.4-1.2-4.3-1.5-.9-3.5-.4-4.3.9l-8 10.2c-.5.7-1.5 1.6-2.2 2.1-7.2 5.2-8.1 10.4-8.8 13.1 0 0-.1.6-.1 1.5 0 .7 0 1.6.1 2.5l.5 8.6c0 .6.5 1.1 1.1 1.1h13.7c.6 0 1.1-.5 1.1-1.1l.3-7.1L87 73.4c1.9-2 3.2-4.3 3.6-7l.1-.8L92.9 44c.1-1.1-.3-2.2-1.1-2.8-1-.8-2.5-1.1-3.7.2zm-6.9 12.4s0 .1 0 0c.5.2.9.4 1.3.6l.9.6v-.7c0-2.3.6-6.8 1.1-9.2.1-.7.3-1.5.5-2.3-1.1.4-1.8 1.2-2 2.3-.8 2.3-1.5 6.5-1.8 8.7zm-4.2.1c.6-.2 1.3-.4 1.9-.4v-.3l.1-1.1c.2-1.6 1.1-4.5 1.5-6.2-1.1.4-1.7 1.2-2 2.2-.3 1.5-1.3 4.4-1.5 5.8zm3.9-35.5c0 6.9-5.6 12.6-12.6 12.6h-1.6c-2.4 5.2-7.1 9.2-12.9 10.4v7.9h4.5c1.4 0 2.5 1.1 2.5 2.5v3.3h3.9v11.8H35.3V55.1h3.9v-3.3c0-1.4 1.1-2.5 2.5-2.5h4.5v-7.9c-5.7-1.2-10.5-5.2-12.9-10.4h-1.6c-6.9 0-12.6-5.6-12.6-12.6V8.8h12.6V2.9h36.7v5.9H81v9.6zm-49.2 6.2v-9.5h-6.2v3.3c-.1 3.4 2.7 6.2 6.2 6.2zm13.2 31.1V62h10.2v-6.3H44.9zm15.3-37.9c-.3-1-1.2-1.7-2.3-1.8l-3.9-.3-1.6-3.7c-.4-1-1.4-1.6-2.4-1.6-1.1 0-2 .6-2.4 1.6l-1.5 3.7-4 .3c-1.1.1-2 .8-2.3 1.8-.3 1 0 2.1.8 2.8l3 2.5-.9 3.9c-.2.8 0 1.6.5 2.2.8 1 2.3 1.3 3.5.6l3.4-2.1 3.4 2.1c.4.3.9.4 1.4.4.8 0 1.6-.4 2.1-1s.7-1.5.5-2.2l-.9-3.8 3-2.5c.6-.8.9-1.9.6-2.9zm14.4-2.7h-6.2v9.5c3.4 0 6.2-2.8 6.2-6.2v-3.3zM50 14.5l-1.7 4.2-4.6.3 3.5 2.9-1.1 4.4L50 24l3.9 2.4-1.1-4.4 3.5-2.9-4.6-.3-1.7-4.3z"/><text y="115" font-size="5" font-weight="bold" font-family="'Helvetica Neue', Helvetica, Arial-Unicode, Arial, Sans-serif">Created by Gregor Črešnar</text><text y="120" font-size="5" font-weight="bold" font-family="'Helvetica Neue', Helvetica, Arial-Unicode, Arial, Sans-serif">from the Noun Project</text></svg>