<svg xmlns="http://www.w3.org/2000/svg" viewBox="0 0 100 125"><path d="M74.475 43.615a.546.546 0 0 0-.547-.547h-6.016V31.355c0-4.235-3.047-7.43-7.268-7.43h-21.19c-4.44 0-8.185 3.333-8.185 7.43v11.713h-5.196a.548.548 0 0 0-.55.547v8.326c0 6.29 2.647 12.35 7.388 17.068 4.512 4.49 10.865 7.065 17.37 7.065 13.378 0 24.192-10.827 24.192-24.133v-8.325zm-41.29-12.26c0-3.04 2.888-5.515 6.27-5.515h21.19c3.182 0 5.352 2.32 5.352 5.515v11.713H33.184V31.355zM72.558 51.94c0 12.252-9.99 22.22-22.312 22.22-6.004 0-11.795-2.372-15.95-6.508-4.378-4.355-6.856-9.936-6.856-15.71v-6.413c0-.304.244-.548.545-.548h44.027c.3 0 .545.244.545.547v6.41z"/><path d="M54.025 58.69c-.08-.29.02-.707.193-.954.56-.793.865-1.748.865-2.74a4.78 4.78 0 0 0-4.777-4.775 4.783 4.783 0 0 0-4.777 4.776c0 .992.308 1.947.864 2.74.174.247.275.664.193.955l-2.047 7.34c-.082.292.098.527.4.527h10.732c.3 0 .48-.235.4-.526l-2.047-7.34zm-.873 5.955h-5.69c-.302 0-.48-.237-.4-.528l1.685-6.038c.08-.292.043-.616-.084-.726l-.23-.198a2.845 2.845 0 0 1-.986-2.16c0-1.577 1.283-2.86 2.86-2.86s2.864 1.283 2.864 2.86c0 .833-.358 1.62-.987 2.16l-.23.198c-.128.11-.165.434-.083.725l1.684 6.037c.08.29-.1.528-.402.528z"/><text y="115" font-size="5" font-weight="bold" font-family="'Helvetica Neue', Helvetica, Arial-Unicode, Arial, Sans-serif">Created by www.yugudesign.com</text><text y="120" font-size="5" font-weight="bold" font-family="'Helvetica Neue', Helvetica, Arial-Unicode, Arial, Sans-serif">from the Noun Project</text></svg>