<svg xmlns="http://www.w3.org/2000/svg" version="1" viewBox="0 0 149 186.25"><g fill="#FFF"><path d="M55 82v7h9v-7h-9zm1.1 6l.91-1.74.84.91 1.12-1.82 1.13 1.11 1.54-2.37L63.25 88H56.1z"/><path d="M70 75H54c-1.66 0-3 1.34-3 3v15c0 1.66 1.34 3 3 3h16c1.66 0 3-1.34 3-3V78c0-1.66-1.34-3-3-3zm-2.82 16.4L66 91.05v-3.56l1.12.34 1.67-6.63-9.01-2.41-.59 2.21H65v12H54V81h4.17l.92-3.41 10.96 2.92-2.87 10.89zM95 75H79c-1.66 0-3 1.34-3 3v15c0 1.66 1.34 3 3 3h16c1.66 0 3-1.34 3-3V78c0-1.66-1.34-3-3-3zm-2.33 17H88v-4h1.75l-2.6-2.86-2.6 2.86H86v4h-4.82s-3.12-.24-3.18-3.3c0-3.061 2.93-3.86 2.93-3.86s-.229-1.53 1.09-2.359c1.48-.881 2.56.189 2.56.189s1.1-3.439 4.72-3.06c4.21.54 3.87 5.25 3.87 5.25s3 .84 2.811 4.02C95.57 91.78 92.71 92 92.67 92zM69.7 60.13c.29 1.2-1.74 2.17-3.74 2.79.71-1.05 1.04-2.3 1.04-3.66v-.07c1-.03 2.42-.14 2.7.94z"/><path d="M70 50H54c-1.66 0-3 1.34-3 3v15c0 1.66 1.34 3 3 3h16c1.66 0 3-1.34 3-3V53c0-1.66-1.34-3-3-3zm-5.07 14.06c-.51.48-.93.89-1.93 1.2V66h-6v-.74c-2-1.12-3.8-3.27-3.8-5.89 0-.04-.2-2.37-.2-2.37h14v.77c1-.04 3.78.17 4.02 2.39.51 2.14-2.98 3.18-6.09 3.9zM83.18 55.67c-1.35 0-2.449 1.05-2.449 2.34 0 1.3 1.1 2.34 2.449 2.34 1.36 0 2.46-1.04 2.46-2.34 0-1.29-1.1-2.34-2.46-2.34zm0 3.64c-.75 0-1.359-.58-1.359-1.3 0-.71.609-1.3 1.359-1.3.761 0 1.37.59 1.37 1.3 0 .72-.61 1.3-1.37 1.3zM90.25 58.53c0 .29-.24.52-.54.52-.31 0-.55-.23-.55-.52 0-.28.24-.52.55-.52.3 0 .54.24.54.52zM91.93 60.09c0 .29-.25.52-.55.52s-.55-.23-.55-.52c0-.28.25-.52.55-.52s.55.24.55.52zM91.93 56.97c0 .29-.25.52-.55.52s-.55-.23-.55-.52c0-.28.25-.52.55-.52s.55.24.55.52zM93.02 58.01c.301 0 .54.24.54.52 0 .29-.239.52-.54.52-.3 0-.55-.23-.55-.52 0-.28.25-.52.55-.52z"/><path d="M95 50H79c-1.66 0-3 1.34-3 3v15c0 1.66 1.34 3 3 3h16c1.66 0 3-1.34 3-3V53c0-1.66-1.34-3-3-3zm-.62 15.55c-2.18 0-4.1-3.46-7.38-3.46-4.05 0-4.45 3.5-7.41 3.5-3.51 0-.82-12 3.87-12 .68 0 2.271 1.04 3.55 1.04 1.271 0 2.78-1.04 3.55-1.04 4.69 0 7.33 11.96 3.82 11.96z"/><path d="M106.94 41.39c.319-2.84-3.07-5.39-6.101-5.39H48.18C45.21 36 42 37.56 42 40.46v69.07c0 2.899 3.21 4.47 6.18 4.47h52.66c2.97 0 6.17-1.56 6.17-4.46 0 0-.08-66.55-.07-68.15zM68.31 39h11.4c.37 0 .66.15.66.5s-.29.5-.66.5h-11.4c-.36 0-.66-.15-.66-.5s.3-.5.66-.5zm5.7 73.35c-1.49 0-2.7-1.18-2.7-2.63 0-1.46 1.21-2.64 2.7-2.64 1.49 0 2.7 1.18 2.7 2.64 0 1.45-1.21 2.63-2.7 2.63zM102 105H47V42h55v63z"/></g><path fill-rule="evenodd" clip-rule="evenodd" fill="#FFF" d="M57.18 83.8a.734.734 0 1 0 .008 1.468.734.734 0 0 0-.008-1.468zm0 0a.734.734 0 1 0 .008 1.468.734.734 0 0 0-.008-1.468zm0 0a.734.734 0 1 0 .008 1.468.734.734 0 0 0-.008-1.468zm0 0a.734.734 0 1 0 .008 1.468.734.734 0 0 0-.008-1.468zm0 0a.734.734 0 1 0 .008 1.468.734.734 0 0 0-.008-1.468zm0 0a.734.734 0 1 0 .008 1.468.734.734 0 0 0-.008-1.468zm0 0a.734.734 0 1 0 .008 1.468.734.734 0 0 0-.008-1.468zm0 0a.734.734 0 1 0 .008 1.468.734.734 0 0 0-.008-1.468zm0 0a.734.734 0 1 0 .008 1.468.734.734 0 0 0-.008-1.468zm0 0a.734.734 0 1 0 .008 1.468.734.734 0 0 0-.008-1.468zm0 0a.734.734 0 1 0 .008 1.468.734.734 0 0 0-.008-1.468zm0 0a.734.734 0 1 0 .008 1.468.734.734 0 0 0-.008-1.468zm0 0a.734.734 0 1 0 .008 1.468.734.734 0 0 0-.008-1.468zm0 0a.734.734 0 1 0 .008 1.468.734.734 0 0 0-.008-1.468zm0 0a.734.734 0 1 0 .008 1.468.734.734 0 0 0-.008-1.468zm0 0a.734.734 0 1 0 .008 1.468.734.734 0 0 0-.008-1.468zm0 0a.734.734 0 1 0 .008 1.468.734.734 0 0 0-.008-1.468zm0 0a.734.734 0 1 0 .008 1.468.734.734 0 0 0-.008-1.468zm0 0a.734.734 0 1 0 .008 1.468.734.734 0 0 0-.008-1.468zm0 0a.734.734 0 1 0 .008 1.468.734.734 0 0 0-.008-1.468zm0 0a.734.734 0 1 0 .008 1.468.734.734 0 0 0-.008-1.468zM61.624 53.373h.494v2.301h-.494zM59.785 52.417h.494v3.256h-.494zM57.826 53.373h.494v2.301h-.494z"/><path fill="#FFF" d="M74.505 146.424c-39.66 0-71.924-32.266-71.924-71.924 0-39.66 32.265-71.924 71.924-71.924 39.658 0 71.924 32.265 71.924 71.924 0 39.658-32.266 71.924-71.924 71.924zm0-138.854c-36.906 0-66.93 30.024-66.93 66.93 0 36.904 30.024 66.931 66.93 66.931 36.904 0 66.931-30.026 66.931-66.931 0-36.906-30.027-66.93-66.931-66.93z"/></svg>