<svg xmlns="http://www.w3.org/2000/svg" viewBox="0 0 100 125"><path d="M72.333 10.04c0-.79.107-3.096-2.672-3.68C63.628 5.087 50 5 50 5s-13.626.088-19.66 1.36c-2.78.583-2.673 2.89-2.673 3.68v79.92c0 .79-.106 3.097 2.672 3.68C36.372 94.91 50 95 50 95s13.627-.09 19.66-1.36c2.78-.583 2.673-2.89 2.673-3.68V10.04zM50 8.432a.976.976 0 1 1 0 1.95.976.976 0 0 1 0-1.95zm20.39 76.03H29.61V12.818H70.39v71.64z"/><text y="115" font-size="5" font-weight="bold" font-family="'Helvetica Neue', Helvetica, Arial-Unicode, Arial, Sans-serif">Created by Martin Jordan</text><text y="120" font-size="5" font-weight="bold" font-family="'Helvetica Neue', Helvetica, Arial-Unicode, Arial, Sans-serif">from the Noun Project</text></svg>