<svg xmlns="http://www.w3.org/2000/svg" version="1" viewBox="0 0 100 125"><path fill="none" stroke="#000" stroke-linecap="round" stroke-linejoin="round" stroke-miterlimit="10" d="M52.303 18.889h3.593v3.59h-3.593z"/><path fill="none" stroke="#000" stroke-linecap="round" stroke-linejoin="round" stroke-miterlimit="10" d="M87.608 18.889h-67.01a2.395 2.395 0 0 0-2.395 2.393v6.497h55.731a2.05 2.05 0 0 1 2.049 2.05v36.923h11.622A2.394 2.394 0 0 0 90 64.36V21.282a2.393 2.393 0 0 0-2.392-2.393z"/><path fill="none" stroke="#000" stroke-linecap="round" stroke-linejoin="round" stroke-miterlimit="10" d="M21.796 22.479v5.299h52.139a2.05 2.05 0 0 1 2.049 2.05v33.334h10.428V22.479H21.796z"/><path fill="none" stroke="#000" stroke-linecap="round" stroke-linejoin="round" stroke-miterlimit="10" d="M43.673 27.778h3.079v3.078h-3.079zM59.576 36.665c.943 0 1.709.767 1.709 1.71v30.771c0 .943-.77 1.709-1.712 1.709H11.711a1.713 1.713 0 0 1-1.712-1.709V38.375c0-.943.769-1.71 1.712-1.71h47.865z"/><path fill="none" stroke="#000" stroke-linecap="round" stroke-linejoin="round" stroke-miterlimit="10" d="M73.935 27.778H16.498a2.052 2.052 0 0 0-2.052 2.05v6.836h45.13c.943 0 1.709.767 1.709 1.71v30.428h12.646a2.05 2.05 0 0 0 2.052-2.049V29.829a2.05 2.05 0 0 0-2.048-2.051z"/><path fill="none" stroke="#000" stroke-linecap="round" stroke-linejoin="round" stroke-miterlimit="10" d="M17.524 30.856v5.809h42.052c.943 0 1.709.767 1.709 1.71v27.351h11.621v-34.87H17.524z"/><path fill="none" stroke="#000" stroke-linecap="round" stroke-linejoin="round" stroke-miterlimit="10" d="M12.563 39.231h46.156v29.062H12.563zM34.357 36.665h2.566v2.566h-2.566zM33.077 68.293h5.129v2.563h-5.129z"/><path fill="none" stroke="#000" stroke-linecap="round" stroke-linejoin="round" stroke-miterlimit="10" d="M42.48 81.111H28.805l2.563-10.256h8.546zM60.93 70.139c-.313.423-.79.717-1.356.717h-8.719l2.566 10.256h10.256L60.93 70.139z"/><path fill="none" stroke="#000" stroke-linecap="round" stroke-linejoin="round" stroke-miterlimit="10" d="M39.914 70.855l2.566 10.256h10.941l-2.567-10.256zM31.195 44.871H26.75v4.443-4.443zM44.53 49.315v-4.446h-4.445 4.445zM40.085 62.651h4.445v-4.446 4.446zM26.75 58.202v4.449h4.445-4.445zM26.75 44.871l17.78 17.781-17.78-17.781zM26.75 62.651L44.53 44.87 26.75 62.651z"/><text y="115" font-size="5" font-weight="bold" font-family="'Helvetica Neue', Helvetica, Arial-Unicode, Arial, Sans-serif">Created by Danil Polshin</text><text y="120" font-size="5" font-weight="bold" font-family="'Helvetica Neue', Helvetica, Arial-Unicode, Arial, Sans-serif">from the Noun Project</text></svg>