<svg xmlns="http://www.w3.org/2000/svg" version="1" viewBox="0 0 149 186.25"><path fill-rule="evenodd" clip-rule="evenodd" fill="#FFF" d="M57.18 83.8a.734.734 0 1 0 .008 1.468.734.734 0 0 0-.008-1.468zm0 0a.734.734 0 1 0 .008 1.468.734.734 0 0 0-.008-1.468zm0 0a.734.734 0 1 0 .008 1.468.734.734 0 0 0-.008-1.468zm0 0a.734.734 0 1 0 .008 1.468.734.734 0 0 0-.008-1.468zm0 0a.734.734 0 1 0 .008 1.468.734.734 0 0 0-.008-1.468zm0 0a.734.734 0 1 0 .008 1.468.734.734 0 0 0-.008-1.468zm0 0a.734.734 0 1 0 .008 1.468.734.734 0 0 0-.008-1.468zm0 0a.734.734 0 1 0 .008 1.468.734.734 0 0 0-.008-1.468zm0 0a.734.734 0 1 0 .008 1.468.734.734 0 0 0-.008-1.468zm0 0a.734.734 0 1 0 .008 1.468.734.734 0 0 0-.008-1.468zm0 0a.734.734 0 1 0 .008 1.468.734.734 0 0 0-.008-1.468zm0 0a.734.734 0 1 0 .008 1.468.734.734 0 0 0-.008-1.468zm0 0a.734.734 0 1 0 .008 1.468.734.734 0 0 0-.008-1.468zm0 0a.734.734 0 1 0 .008 1.468.734.734 0 0 0-.008-1.468zm0 0a.734.734 0 1 0 .008 1.468.734.734 0 0 0-.008-1.468zm0 0a.734.734 0 1 0 .008 1.468.734.734 0 0 0-.008-1.468zm0 0a.734.734 0 1 0 .008 1.468.734.734 0 0 0-.008-1.468zm0 0a.734.734 0 1 0 .008 1.468.734.734 0 0 0-.008-1.468zm0 0a.734.734 0 1 0 .008 1.468.734.734 0 0 0-.008-1.468zm0 0a.734.734 0 1 0 .008 1.468.734.734 0 0 0-.008-1.468zm0 0a.734.734 0 1 0 .008 1.468.734.734 0 0 0-.008-1.468zM61.624 53.373h.494v2.3h-.494zM59.785 52.417h.494v3.256h-.495zM57.826 53.373h.494v2.3h-.494z"/><path fill="#FFF" d="M74.505 146.424c-39.66 0-71.924-32.266-71.924-71.924 0-39.66 32.266-71.924 71.925-71.924 39.658 0 71.924 32.265 71.924 71.924 0 39.658-32.267 71.924-71.925 71.924zm0-138.854C37.6 7.57 7.575 37.594 7.575 74.5c0 36.904 30.024 66.93 66.93 66.93 36.904 0 66.93-30.025 66.93-66.93 0-36.906-30.026-66.93-66.93-66.93z"/><g fill="#FFF"><path d="M111.757 100.077c3.386 0 6.243-2.506 6.243-5.867V45.27c0-3.358-3.537-6.27-6.923-6.27H37.57C34.182 39 32 41.892 32 45.25v49c0 3.36 2.52 5.827 5.905 5.827l-12.41.173-.093 3.79c0 3.36 2.654 5.96 6.04 5.96h85.76c3.388 0 6.798-2.48 6.798-5.84v-3.91l-12.243-.173zM38 95V45h74v50H38zm49 13H63v-3h24v3zm11.826.26c-1.38 0-2.5-1.122-2.5-2.51a2.502 2.502 0 0 1 2.5-2.506c1.382 0 2.5 1.12 2.5 2.507a2.503 2.503 0 0 1-2.5 2.51zm9 0a2.502 2.502 0 0 1-2.498-2.51 2.5 2.5 0 1 1 5 0c0 1.388-1.12 2.51-2.5 2.51z"/><path d="M62.328 68H41V46h-2v24.25l34.746-.098L73.33 68z"/><path d="M46.372 52.433l5.615 2.41 2.965-1.78 3.13 1.23 4.76-1.58 3.406 2.053 6.93-6.582-.896-.373-6.22 5.91-3.037-1.83-4.9 1.626-3.312-1.303-2.887 1.87-5.442-2.42-6.043 1.678.436.62zM46.372 60.034l5.615 2.41 2.965-1.778 3.13 1.23 4.76-1.58 3.406 2.05 6.93-6.58-.896-.372-6.22 5.906-3.037-1.83-4.9 1.627-3.312-1.3-2.887 1.868-5.442-2.42-6.043 1.68.436.617zM96.103 71.973l-1.83 5.563c1.635.5 2.823 1.996 2.823 3.765 0 .887-.302 1.702-.805 2.36l4.706 3.574a9.647 9.647 0 0 0 2.043-5.933c-.003-4.363-2.92-8.068-6.937-9.327z"/><path d="M92.123 85.488c-2.21 0-4.007-1.767-4.007-3.94s1.798-3.94 4.007-3.94c.412 0 .81.062 1.186.176l1.825-5.563c-.95-.296-1.962-.46-3.012-.46-5.484 0-9.948 4.392-9.948 9.787 0 5.397 4.464 9.788 9.948 9.788a9.994 9.994 0 0 0 7.906-3.855l-4.705-3.572a4.02 4.02 0 0 1-3.202 1.58zM93.284 49h-.002c-5.394 0-9.767 4.415-9.767 9.628s4.373 9.41 9.766 9.41S103.328 64 103.33 59h-10l-.046-10z"/><path d="M95 48.25V58h10v-.75c0-5.214-5-8.998-10-9zM59.45 84.813l-.022.856.354.147.35-1.025-.088-.43zM50.664 74.055l-.612-.162-.757.785.973 2.464.46.11.035-.8.312-.186.02-.305.32-.587-.226-.442zM66.197 83.538l.705.13.327-.975-.193-.16-.947.582zM69.49 84.2l-.09.685-.595-.212.11-.37-.652-.052-.845.767-.896.317.216 1.185-.08.237.326.183 1.33-.32.516.29.244-.13.162.48.678.183.49-.29.272-1.424-.735-.713zM49.703 83.916l-1.115-.808-1.657-.16-.247.39-.333-.108-.168-.604-.495-.032.207-.574-.415-.04-.416.324-.288-.406.248-.683 1.12-.16.386.562.47-.04v-.523l.606-1.05.904-.525 1.238-.56-.933-1.98-.426.243-.336-.885-.79.04-.208 1.57-.293.04-1.2-1.248.22-.646 1.217-.24v-1.535l-3.08.324-1.6-.928-.74.685-2.028-1.087-1.115.884.416.843h-.457l-.124.206.62-.04-.62.424.206.654.54.108-.87.677 1.367-.648.746-.407 1.495.726L43 78.27v1.413l.287 1.046.807 1.452 1.087.402.46.242.56.727.397-.062-.448.71.366 1.448.786.685-.952 3.748.333.81.95.24-.578-.605.786-1.45 1.697-1.412.127-.644.828-.124.83-1.65-1.45-.687zM53.913 76.26h.396l.174-.512v.77l.55-.235.155-.235-.594-1.114-.353.238.022.298-.33.387z"/><path d="M66.328 73.25s-4.803.634-7.207.88l-2.086-.373-.835.448-.332.793-.396.297-.02.663.22.13.46-.26.22.687.397-.15.265-.685-.266-.278.24-.51.285-.345.172.025-.16.402-.187.13.068.16-.013.027.02.004.163.385.463-.13.16.185-.51.16.11.404-.333-.108-.24.6-.857-.02-.152-.428-.2.257.068.278-.306.022-.375.49-.68.215.177.365.283.447-.9-.062.044.854.702.104.463-.705.66-.323.284.322.393.513.288-.323-.55-.362-.022-.342.264.128.44.342-.02.342.33.407.152-.513.176.086.24.406.746.122-.122.394-.28.164-1.077-.27-.27.37-.706-.448-.11-.446-1.737.288-.896 1.057-.164 1.428.925.87 1.655-.104.488 1.478-.19.847.788 1.85.896-.16.896-1.638.488-.37-.135-1.134.87-.767.27-.927-.87.396-.887-1.977.183-.032.87 1.664 1.682-.977-.57-.422-.435.21-.27-.633.19-.106.378.316 1.305.237.542.635.882 1.188.776-.365v-.452l.665-.715.183.79.21-.074.018.79.302.58-.716-.343.507.715.566.527 1.356.237-.732-.29-.545-.186-.19-.845-.435-.478.016-.478.502.505.488-.397-.46-.66.216-.345 1.006-.054.46-.818-.326-.897.41-.423.296.397.11.502.353-.186-.134-.556.3-.422.487-.08.568-1.53-.485-.345.677-.635.897.054.73-.58.57-.08-.923 1.082.027.952.707-.847-.026-.607.732-.157.977-.53-.27-.74-6.765-1.17zM59.1 78.846l-.483-.128-.66.105-.153-.276.354-.598 1.14.575-.198.32zm.792.363l.108-.406-.24-.6.682-.362v.32l-.266.106.222.32.107.663-.613-.04z"/><path d="M69.7 77h-.192l-.028 1.09-.488 1.073-.623.482-.03.414 1.14-.653.056-.682.38-.34-.3-.237.162-.694zM72.63 86.866l.08.738-.84.768.542.054.487-.715.38-.5-.244-.026zM68.367 83.272l.733.742.42.027.177-.158.6.37-.244-.504-1.115-.525z"/></g></svg>