<svg xmlns="http://www.w3.org/2000/svg" xmlns:xlink="http://www.w3.org/1999/xlink" version="1" viewBox="0 0 149 186.25"><path fill-rule="evenodd" clip-rule="evenodd" fill="#FFF" d="M61.624 53.373h.494v2.301h-.494zM59.785 52.417h.494v3.256h-.494zM57.826 53.373h.494v2.301h-.494z"/><path fill="#FFF" d="M74.505 146.424c-39.66 0-71.924-32.266-71.924-71.924 0-39.66 32.265-71.924 71.924-71.924 39.658 0 71.924 32.265 71.924 71.924 0 39.658-32.266 71.924-71.924 71.924zm0-138.854c-36.906 0-66.93 30.024-66.93 66.93 0 36.904 30.024 66.931 66.93 66.931 36.904 0 66.931-30.026 66.931-66.931 0-36.906-30.027-66.93-66.931-66.93z"/><defs><path id="j" d="M98.433 56.428l-49.263.001c-6.302 0-11.413-5.036-11.413-11.247 0-6.159 5.021-11.158 11.249-11.245a9.607 9.607 0 0 1-.025-.66c0-5.125 4.214-9.28 9.415-9.28 1.651 0 3.203.421 4.551 1.156C65.022 19.246 70.713 15 77.415 15c8.457 0 15.311 6.757 15.311 15.09 0 .113-.005.225-.007.337a13.906 13.906 0 0 1 5.62-1.18c7.615 0 13.789 6.085 13.789 13.592 0 7.474-6.123 13.536-13.695 13.589z"/></defs><use xlink:href="#j" overflow="visible" fill-rule="evenodd" clip-rule="evenodd" fill="#FFF"/><defs><path id="i" d="M87.071 51.276c.059-.141.09-.292.09-.453 0-.162-.031-.315-.09-.455h5.579v.908h-5.579zm1.724-3.859h-9.998a1.562 1.562 0 0 1-1.568-1.556c0-.861.704-1.557 1.568-1.557h9.998c.866 0 1.568.696 1.568 1.557 0 .86-.702 1.556-1.568 1.556zm-9.998-2.141a.587.587 0 0 0-.587.584.589.589 0 0 0 1.177 0 .589.589 0 0 0-.59-.584zm9.998-1.751h-9.998a1.563 1.563 0 0 1-1.568-1.556c0-.86.704-1.557 1.568-1.557h9.998c.866 0 1.568.696 1.568 1.557 0 .86-.702 1.556-1.568 1.556zm-9.998-2.141c-.323 0-.587.263-.587.585s.264.583.587.583c.325 0 .59-.261.59-.583s-.265-.585-.59-.585zm9.998-1.751h-9.998a1.563 1.563 0 0 1-1.568-1.556c0-.86.704-1.556 1.568-1.556h9.998c.866 0 1.568.695 1.568 1.556 0 .861-.702 1.556-1.568 1.556zm-9.998-2.139a.587.587 0 0 0-.587.584c0 .322.264.583.587.583.325 0 .59-.262.59-.583a.587.587 0 0 0-.59-.584zm9.998-1.752h-9.998a1.563 1.563 0 0 1-1.568-1.557c0-.86.704-1.555 1.568-1.555h9.998a1.56 1.56 0 0 1 1.568 1.555c0 .861-.702 1.557-1.568 1.557zm-9.998-2.14a.586.586 0 0 0-.587.583.587.587 0 0 0 1.177 0 .588.588 0 0 0-.59-.583zm1.634 17.221c0 .16.032.312.091.453h-5.58v-.908h5.58c-.059.14-.091.293-.091.455zm1.862-1.2h.327v-1.557h2.352v1.557h.327c.668 0 1.209.536 1.209 1.201 0 .662-.541 1.199-1.209 1.199h-3.006a1.202 1.202 0 0 1-1.207-1.199c0-.665.539-1.201 1.207-1.201zm-12.929 1.653a1.18 1.18 0 0 0 0-.908h5.578v.908h-5.578zm1.724-3.859h-9.997a1.56 1.56 0 0 1-1.568-1.556c0-.861.702-1.557 1.568-1.557h9.997c.866 0 1.568.696 1.568 1.557 0 .86-.702 1.556-1.568 1.556zm-9.997-2.141a.586.586 0 0 0-.588.584.587.587 0 0 0 1.175 0 .586.586 0 0 0-.587-.584zm9.997-1.751h-9.997a1.561 1.561 0 0 1-1.568-1.556c0-.86.702-1.557 1.568-1.557h9.997c.866 0 1.568.696 1.568 1.557 0 .86-.702 1.556-1.568 1.556zm-9.997-2.141c-.325 0-.588.263-.588.585s.264.583.588.583a.585.585 0 1 0 0-1.168zm9.997-1.751h-9.997a1.561 1.561 0 0 1-1.568-1.556c0-.86.702-1.556 1.568-1.556h9.997c.866 0 1.568.695 1.568 1.556 0 .861-.702 1.556-1.568 1.556zm-9.997-2.139a.586.586 0 0 0-.588.584c0 .322.264.583.588.583s.587-.262.587-.583a.585.585 0 0 0-.587-.584zm9.997-1.752h-9.997a1.561 1.561 0 0 1-1.568-1.557c0-.86.702-1.555 1.568-1.555h9.997a1.56 1.56 0 0 1 1.568 1.555c0 .861-.702 1.557-1.568 1.557zm-9.997-2.14a.586.586 0 0 0-.588.583.588.588 0 0 0 1.175 0 .585.585 0 0 0-.587-.583zm1.634 17.221c0 .16.032.312.09.453h-5.579v-.908h5.579c-.058.14-.09.293-.09.455zm1.861-1.2h.326v-1.557h2.353v1.557h.328c.667 0 1.209.536 1.209 1.201 0 .662-.542 1.199-1.209 1.199h-3.006a1.205 1.205 0 0 1-1.209-1.199 1.203 1.203 0 0 1 1.208-1.201z"/></defs><use xlink:href="#i" overflow="visible" fill="#FFF"/><defs><path id="h" d="M113.456 113.727c-9.535 0-17.266-7.697-17.266-17.189 0-9.493 7.73-17.189 17.266-17.189 9.534 0 17.264 7.696 17.264 17.189 0 9.491-7.73 17.189-17.264 17.189zm0-31.734c-8.068 0-14.608 6.511-14.608 14.544s6.54 14.544 14.608 14.544 14.608-6.511 14.608-14.544-6.54-14.544-14.608-14.544z"/></defs><use xlink:href="#h" overflow="visible" fill-rule="evenodd" clip-rule="evenodd" fill="#FFF"/><defs><path id="g" d="M35.544 113.727c-9.534 0-17.264-7.697-17.264-17.189 0-9.493 7.729-17.189 17.264-17.189 9.536 0 17.265 7.696 17.265 17.189 0 9.491-7.729 17.189-17.265 17.189zm0-31.734c-8.068 0-14.608 6.511-14.608 14.544s6.54 14.544 14.608 14.544c8.069 0 14.609-6.511 14.609-14.544s-6.54-14.544-14.609-14.544z"/></defs><use xlink:href="#g" overflow="visible" fill-rule="evenodd" clip-rule="evenodd" fill="#FFF"/><defs><path id="f" d="M74.5 134c-9.534 0-17.264-7.696-17.264-17.189s7.73-17.188 17.264-17.188c9.536 0 17.265 7.695 17.265 17.188S84.036 134 74.5 134zm0-31.732c-8.068 0-14.608 6.511-14.608 14.543 0 8.033 6.54 14.546 14.608 14.546 8.068 0 14.607-6.513 14.607-14.546s-6.539-14.543-14.607-14.543z"/></defs><use xlink:href="#f" overflow="visible" fill-rule="evenodd" clip-rule="evenodd" fill="#FFF"/><g><defs><path id="e" d="M73.171 100.503V56.429h2.658v44.074h-2.658zm-8.852-28.207V56.429h2.655v15.867h-2.655zm17.706 0V56.429h2.657v15.867h-2.657zm0 0v-2.644h32.76v2.644h-32.76zm0 0V56.429h2.657v15.867h-2.657zm-47.808 0v-2.644h32.758v2.644H34.217zm77.911 7.934V69.652h2.657V80.23h-2.657zm-77.911 0V69.652h2.656V80.23h-2.656z"/></defs><use xlink:href="#e" overflow="visible" fill="#FFF"/></g><g><defs><path id="d" d="M83.439 124.103H65.568c-.689 0-1.248-.546-1.248-1.221v-12.343c0-.675.559-1.22 1.248-1.22h17.871c.688 0 1.246.545 1.246 1.22v12.343c.001.675-.558 1.221-1.246 1.221zm-.311-13.427H65.879v12.07h17.249v-12.07zm-11.811 13.773s4.287-.015 6.446 0c.224 2.066 2.074 2.047 2.074 2.047v.456h-10.59s-.003-.173 0-.456c2.115 0 2.07-2.047 2.07-2.047z"/></defs><use xlink:href="#d" overflow="visible" fill-rule="evenodd" clip-rule="evenodd" fill="#FFF"/></g><g><defs><path id="c" d="M114.914 103.148h-8.222a.754.754 0 0 1-.761-.746v-9.97c0-.409.341-.743.761-.743h8.222c.42 0 .761.334.761.743v9.97a.754.754 0 0 1-.761.746zm-4.111-.249a.419.419 0 0 0 .423-.413.417.417 0 0 0-.423-.413.417.417 0 0 0-.421.413c0 .228.187.413.421.413zm.865-10.878h-1.73a.126.126 0 0 0-.126.123c0 .069.058.125.126.125h1.73c.07 0 .127-.056.127-.125a.124.124 0 0 0-.127-.123zm3.205.62h-8.139v9.143h8.139v-9.143z"/></defs><use xlink:href="#c" overflow="visible" fill-rule="evenodd" clip-rule="evenodd" fill="#FFF"/></g><g><defs><path id="b" d="M121.517 103.152h-3.727a.356.356 0 0 1-.352-.358V95.57c0-.197.157-.357.352-.357h3.727c.193 0 .351.16.351.357v7.224a.356.356 0 0 1-.351.358zm-1.829-.358a.426.426 0 0 0 .422-.43.426.426 0 0 0-.422-.429.425.425 0 0 0-.421.429c0 .238.188.43.421.43zm1.688-6.509h-3.446v5.294h3.446v-5.294z"/></defs><use xlink:href="#b" overflow="visible" fill-rule="evenodd" clip-rule="evenodd" fill="#FFF"/></g><g><defs><path id="a" d="M44.846 101.795c0 .748-.638 1.354-1.423 1.354H28.557c-.786 0-1.424-.605-1.424-1.354v-.17h1.459c-.506-.055-.904-.45-.904-.948v-9.783c0-.533.454-.967 1.016-.967h14.571c.562 0 1.018.434 1.018.967v9.783c0 .498-.4.894-.906.948h1.459v.17zm-3.282.976a.425.425 0 0 0 .436-.412.424.424 0 0 0-.436-.413.426.426 0 0 0-.436.413c0 .228.196.412.436.412zm-7.313.078h3.479v-.678h-3.479v.678zm8.77-11.846H28.958v9.567h14.063v-9.567zm-.271 10.943a.425.425 0 0 0-.435.413c0 .228.195.412.435.412a.425.425 0 0 0 .435-.412.425.425 0 0 0-.435-.413z"/></defs><use xlink:href="#a" overflow="visible" fill-rule="evenodd" clip-rule="evenodd" fill="#FFF"/></g></svg>