<svg xmlns="http://www.w3.org/2000/svg" viewBox="0 0 47 58.75"><path d="M23.595 8.328c-8.329 0-15.104 6.775-15.104 15.104 0 8.329 6.776 15.104 15.104 15.104s15.104-6.775 15.104-15.104c0-8.328-6.775-15.104-15.104-15.104zm12.501 9.745h-6.973c-.459-3.245-1.344-6.146-2.618-7.924a13.652 13.652 0 0 1 9.591 7.924zm-8.101 5.359c0 1.206-.058 2.35-.154 3.435H19.35a38.64 38.64 0 0 1 .039-7.293h8.413c.122 1.207.193 2.494.193 3.858zm-4.4 13.604c-1.619 0-3.377-3.392-4.08-8.67h8.161c-.703 5.279-2.461 8.67-4.081 8.67zm-4.024-18.963c.738-5.037 2.448-8.245 4.024-8.245 1.577 0 3.287 3.208 4.025 8.245h-8.049zm1.115-7.924c-1.274 1.778-2.159 4.679-2.619 7.924h-6.972a13.648 13.648 0 0 1 9.591-7.924zm-10.129 9.424h7.333a39.298 39.298 0 0 0-.194 3.858c0 1.145.057 2.299.156 3.435h-7.404a13.521 13.521 0 0 1-.457-3.435c0-1.34.202-2.633.566-3.858zm.374 8.793h7.083c.441 3.413 1.342 6.494 2.671 8.349-4.47-.979-8.117-4.161-9.754-8.349zm15.574 8.349c1.329-1.854 2.23-4.936 2.672-8.349h7.082c-1.638 4.188-5.283 7.37-9.754 8.349zm10.238-9.849h-7.404c.1-1.136.156-2.29.156-3.435 0-1.287-.067-2.587-.193-3.858h7.332c.363 1.225.565 2.518.565 3.858a13.56 13.56 0 0 1-.456 3.435z"/><path d="M4.227 24.16a.73.73 0 0 0 .338.09h.001a.737.737 0 0 0 .333-.088c.01-.006.022-.003.033-.009.029-.017.047-.043.073-.063a.751.751 0 0 0 .117-.101c.032-.037.055-.077.08-.118a.741.741 0 0 0 .063-.126c.018-.05.024-.1.031-.152.004-.031.019-.06.019-.093 0-10.08 8.201-18.28 18.28-18.28 8.374 0 15.66 5.661 17.718 13.766a.75.75 0 1 0 1.453-.37A19.754 19.754 0 0 0 23.595 3.72c-10.045 0-18.347 7.533-19.599 17.243l-1.757-3.12a.749.749 0 1 0-1.306.736l2.979 5.289c.01.019.031.026.043.043a.727.727 0 0 0 .195.196c.026.019.048.039.077.053zM46.067 28.421l-2.979-5.289c-.017-.029-.043-.047-.063-.073a.652.652 0 0 0-.1-.116c-.036-.032-.077-.056-.118-.08-.041-.024-.08-.047-.126-.063-.049-.018-.1-.024-.151-.031-.032-.004-.062-.019-.095-.019-.015 0-.026.007-.04.008-.05.002-.097.017-.145.029-.051.013-.099.024-.145.047-.013.006-.026.006-.039.013-.029.016-.047.043-.072.063-.042.032-.083.062-.117.102a.693.693 0 0 0-.078.116.646.646 0 0 0-.064.129c-.018.048-.023.097-.03.148-.005.033-.02.063-.02.097 0 10.08-8.2 18.28-18.28 18.28A18.256 18.256 0 0 1 5.688 28.017a.749.749 0 1 0-1.454.369A19.755 19.755 0 0 0 23.405 43.28c10.045 0 18.346-7.532 19.598-17.243l1.758 3.12a.75.75 0 0 0 1.021.285.748.748 0 0 0 .285-1.021z"/><text y="62" font-size="5" font-weight="bold" font-family="'Helvetica Neue', Helvetica, Arial-Unicode, Arial, Sans-serif">Created by Adnen Kadri</text><text y="67" font-size="5" font-weight="bold" font-family="'Helvetica Neue', Helvetica, Arial-Unicode, Arial, Sans-serif">from the Noun Project</text></svg>