<svg xmlns="http://www.w3.org/2000/svg" viewBox="0 0 100 125"><path d="M83.147 6.433C82.952 6.002 82.303 5 80.5 5h-61c-1.803 0-2.453 1.002-2.648 1.433-.196.431-.522 1.58.666 2.936l21.708 24.809c.667.763 1.275 2.38 1.275 3.394V69c0 1.928 1.131 2.791 2.251 2.791.716 0 1.414-.336 2.077-.998l12.543-16.545C58.591 52.975 59.5 50.742 59.5 49V37.571c0-1.013.607-2.631 1.275-3.394L82.482 9.369c1.188-1.357.861-2.506.665-2.936zM53.051 73.515c-.947 0-2.051.651-2.051 2.485 0 3.396-1.747 4.311-3.769 5.371-1.662.871-3.731 1.955-3.731 4.629 0 4.963 4.038 9 9 9 4.963 0 9-4.037 9-9 0-2.651-2.148-6.207-3.071-7.612-1.461-2.223-3.58-4.873-5.378-4.873z"/><text y="115" font-size="5" font-weight="bold" font-family="'Helvetica Neue', Helvetica, Arial-Unicode, Arial, Sans-serif">Created by Ralf Schmitzer</text><text y="120" font-size="5" font-weight="bold" font-family="'Helvetica Neue', Helvetica, Arial-Unicode, Arial, Sans-serif">from the Noun Project</text></svg>