<svg xmlns="http://www.w3.org/2000/svg" viewBox="0 0 100 125"><path d="M74.475 43.615a.546.546 0 0 0-.547-.547h-6.016V31.355c0-4.235-3.047-7.43-7.268-7.43H39.453c-4.438 0-8.184 3.333-8.184 7.43v11.713h-5.195a.548.548 0 0 0-.549.547v8.326c0 6.289 2.646 12.35 7.387 17.067 4.512 4.49 10.865 7.065 17.371 7.065 13.377 0 24.191-10.827 24.191-24.133v-8.325zm-41.291-12.26c0-3.04 2.889-5.515 6.27-5.515h21.191c3.182 0 5.352 2.319 5.352 5.515v11.713H33.184V31.355zm39.375 20.586c0 12.251-9.988 22.218-22.311 22.218-6.004 0-11.795-2.371-15.951-6.507-4.377-4.355-6.855-9.936-6.855-15.711v-6.412c0-.303.244-.547.545-.547h44.027c.301 0 .545.244.545.547v6.412z"/><path d="M54.025 58.691c-.08-.291.02-.708.193-.955a4.752 4.752 0 0 0 .865-2.74 4.781 4.781 0 0 0-4.777-4.775 4.783 4.783 0 0 0-4.777 4.775c0 .992.309 1.947.865 2.74.174.247.275.664.193.955l-2.047 7.34c-.082.291.098.526.4.526h10.732c.301 0 .48-.235.4-.526l-2.047-7.34zm-.873 5.954h-5.691c-.301 0-.48-.237-.398-.528l1.684-6.038c.08-.291.043-.615-.084-.725l-.23-.198a2.845 2.845 0 0 1-.986-2.159c0-1.578 1.283-2.862 2.861-2.862s2.863 1.284 2.863 2.862a2.84 2.84 0 0 1-.988 2.159l-.229.198c-.129.109-.166.434-.084.725l1.684 6.038c.081.29-.099.528-.402.528z"/><text y="115" font-size="5" font-weight="bold" font-family="'Helvetica Neue', Helvetica, Arial-Unicode, Arial, Sans-serif">Created by www.yugudesign.com</text><text y="120" font-size="5" font-weight="bold" font-family="'Helvetica Neue', Helvetica, Arial-Unicode, Arial, Sans-serif">from the Noun Project</text></svg>