<svg xmlns="http://www.w3.org/2000/svg" viewBox="0 0 100 125"><path fill="none" d="M47.447 48.283a4.209 4.209 0 0 0-3.003 1.243c-1.658 1.662-1.644 4.374.032 6.045a4.283 4.283 0 0 0 3.043 1.261 4.209 4.209 0 0 0 3.003-1.243c1.658-1.662 1.644-4.373-.033-6.046a4.282 4.282 0 0 0-3.042-1.26zm1.72 5.954a2.31 2.31 0 0 1-1.647.681 2.373 2.373 0 0 1-1.69-.702c-.93-.926-.941-2.424-.029-3.337a2.31 2.31 0 0 1 1.647-.681c.637 0 1.237.248 1.691.7.927.927.94 2.425.028 3.339z"/><path fill="none" d="M64.899 24.622a10.318 10.318 0 0 0-7.357 3.054l-2.445 2.766-4.479 4.488-1.252 1.419c-1.583 1.978-6.982 8.075-14.002 9.01l-.411.055a.495.495 0 0 0-.415.47l-.005.415c-.001.137-.206 13.279-5.506 22.369-.151.262-.472.412-.715.378a3.106 3.106 0 0 0-.442-.03c-.849 0-1.642.329-2.238.926-1.233 1.238-1.223 3.257.023 4.5a3.18 3.18 0 0 0 2.263.938c.847 0 1.642-.328 2.237-.926.692-.693 1-1.65.9-2.58-.033-.301.104-.665.364-.817 9.076-5.322 22.218-5.561 22.355-5.563l.414-.006a.494.494 0 0 0 .469-.416l.054-.411c.918-7.021 7.002-12.436 8.975-14.023l1.415-1.261 4.477-4.487 2.678-2.533c4.047-4.057 4.039-10.649-.018-14.696a10.317 10.317 0 0 0-7.339-3.039zM28.801 73.101a1.241 1.241 0 0 1-.883.364c-.343 0-.666-.135-.911-.379a1.272 1.272 0 0 1-.02-1.794c.234-.234.547-.363.883-.363.254 0 .5.074.711.215l.109.073c.06.04.143.121.182.181l.073.108a1.266 1.266 0 0 1-.144 1.595zm33.08-23.466c-2.422 2.042-7.438 6.938-8.835 13.433a.742.742 0 0 1-.652.562c-3.539.19-13.217 1.079-20.927 5.203-.267.143-.359.049-.218-.217 4.104-7.722 4.97-17.401 5.151-20.94a.743.743 0 0 1 .561-.654c6.491-1.412 11.373-6.439 13.41-8.866a.488.488 0 0 1 .734-.036l10.809 10.781a.49.49 0 0 1-.033.734zm5.956-5.712l-3.688 3.697a.547.547 0 0 1-.773.001L52.378 36.65a.546.546 0 0 1 0-.772l3.688-3.697a.546.546 0 0 1 .773 0l9.598 9.573 1.399 1.396a.547.547 0 0 1 .001.773zm3.064-2.921l-.864.866a.547.547 0 0 1-.773.002l-11.23-11.202a.547.547 0 0 1-.002-.773l.865-.866a8.419 8.419 0 0 1 6.002-2.491 8.42 8.42 0 0 1 5.987 2.476c3.31 3.3 3.316 8.678.015 11.988z"/>\</svg>