<svg xmlns="http://www.w3.org/2000/svg" viewBox="0 0 100 125"><path d="M80.62 30.86H51.5v-.13l-.34-.31-6.25-5.8v-3.24c0-1.18-1-2.15-2.23-2.15H39.1l-7.17-6.66-7.18 6.66h-3.1c-1.24 0-2.24.97-2.24 2.15v2.81l-6.28 5.83-.77.71v21.01c0 .61.27 1.18.74 1.55.36.29.8.44 1.25.44h9.51v17.23c0 3.87 3.16 7.02 7.03 7.02h19.09v4.2h-2.576c-.775 0-1.404.63-1.404 1.403v2.52c0 .778.63 1.407 1.404 1.407h16.698c.774 0 1.404-.63 1.404-1.406v-2.52c0-.774-.63-1.405-1.404-1.405h-2.575v-4.2H80.62c3.87 0 7.02-3.15 7.02-7.02V37.88c0-3.87-3.15-7.02-7.02-7.02zm-17.3 54.467H48.186v-.963h15.137v.963zm-3.978-7.346v4.183h-7.18V77.98h7.18zM30.32 53.73h19.19c.37 0 .73-.1 1.03-.29.07-.04.14-.08.2-.13.49-.38.76-.95.76-1.57V38.15h29.69v31.18H30.32v-15.6zm19.54-15.58v13.33l-.68-.39-4.27-2.48-1.772-1.03-6.8-3.96-.1-.06 6.84-5.41.06-.05 1.77-1.4 4.63-3.66h.32v5.11zm-15.14 4.53l-2.79-1.63-1.61.94-.93.54-.32-.25-3.02-2.32-.084-.064h12.276L34.72 42.68zm14.5-11.82l.2.19-.06.05-.7.55-1.76 1.39-1.99 1.58v-7.76l4.31 4zM31.93 14.81l4.76 4.42h-9.52l4.76-4.42zm-10.75 6.57c0-.2.22-.38.47-.38h21.03c.25 0 .46.18.46.38v14.64l-1.13.89-1.56 1.24-1.447 1.144h-13.82L23.86 38.28l-2.68-2.06V21.38zm-1.77 5.05v8.43l-4.89-3.76-.04-.04-.03-.02 4.96-4.61zM14 51.48V32.76l5.41 4.16 1.77 1.36 2.68 2.06 2.19 1.69 1.81 1.39-.89.52-.92.54-2.19 1.27-2.68 1.56-1.77 1.02L14 51.48zm2.22.61l3.25-1.89 1.71-.99 2.68-1.56 2.19-1.27 3.02-1.76 1.25-.73.48-.28 1.13-.66 1.4.82 9.81 5.7 1.65.96 2.85 1.66H16.22zm69.24 18.87c0 2.67-2.17 4.84-4.84 4.84H61.527v-.002H49.98v.002H30.89c-2.67 0-4.84-2.17-4.84-4.84V53.73h3.02v16.85h53.37V36.91H51.5v-3.87h29.12c2.67 0 4.84 2.17 4.84 4.84v33.08z"/><circle cx="77.016" cy="73.248" r="1.456"/><path d="M23.317 22.97h8.296v9.37h-8.296zM33.682 22.97h7.18v2.152h-7.18zM33.682 26.312h7.18v.75h-7.18zM33.682 28.952h7.18v.75h-7.18zM33.682 31.593h7.18v.748h-7.18zM23.317 34.155H40.86v2.156H23.317zM23.317 37.112H40.86v.602H23.317z"/><text y="115" font-size="5" font-weight="bold" font-family="'Helvetica Neue', Helvetica, Arial-Unicode, Arial, Sans-serif">Created by www.yugudesign.com</text><text y="120" font-size="5" font-weight="bold" font-family="'Helvetica Neue', Helvetica, Arial-Unicode, Arial, Sans-serif">from the Noun Project</text></svg>