<svg xmlns="http://www.w3.org/2000/svg" viewBox="0 0 100 125"><path d="M54.598 32.284h3.078a.557.557 0 1 0 0-1.113h-3.078a.558.558 0 0 0-.557.557c0 .307.252.556.557.556z"/><circle cx="56.982" cy="75.104" r="1.456"/><path d="M38.5 44.62V72.9c0 3.88 3.15 7.03 7.03 7.03h21.22c3.87 0 7.02-3.15 7.02-7.03V33.75c0-3.87-3.149-7.02-7.02-7.02H49.41c-2.04-3.95-6.16-6.66-10.91-6.66-6.77 0-12.27 5.51-12.27 12.28 0 6.76 5.5 12.27 12.27 12.27zm28.25-15.7c2.67 0 4.84 2.17 4.84 4.83V72.9c0 2.67-2.17 4.84-4.84 4.84H45.53c-2.67 0-4.84-2.17-4.84-4.84V44.42c1.31-.23 2.56-.68 3.689-1.31v29.28h23.51V34.2H50.64c.091-.6.141-1.22.141-1.85 0-1.19-.17-2.34-.49-3.43H66.75zM45.63 42.33c2.3-1.64 4.021-4.07 4.75-6.88h16.26v35.69H45.63V42.33zM38.5 21.95c3.67 0 6.9 1.9 8.74 4.78.45.68.81 1.41 1.08 2.19a10.358 10.358 0 0 1 .41 5.28c-.07.43-.171.84-.301 1.25-.54 1.72-1.51 3.25-2.8 4.46-.39.37-.81.71-1.25 1.01-1.09.76-2.34 1.31-3.689 1.6-.7.15-1.44.23-2.19.23-5.73 0-10.4-4.67-10.4-10.4 0-5.74 4.67-10.4 10.4-10.4z"/><path d="M34.043 33.902h2.82v2.821a1.597 1.597 0 0 0 3.192 0v-2.821h2.822a1.596 1.596 0 1 0 0-3.192h-2.822v-2.82a1.595 1.595 0 1 0-3.192 0v2.821h-2.82a1.596 1.596 0 1 0 0 3.191z"/><text y="115" font-size="5" font-weight="bold" font-family="'Helvetica Neue', Helvetica, Arial-Unicode, Arial, Sans-serif">Created by www.yugudesign.com</text><text y="120" font-size="5" font-weight="bold" font-family="'Helvetica Neue', Helvetica, Arial-Unicode, Arial, Sans-serif">from the Noun Project</text></svg>