<svg xmlns="http://www.w3.org/2000/svg" viewBox="0 0 100 125"><path stroke="#FFF" fill="none" d="M87.475 12.525c-4.002-4.002-10.515-4.002-14.517 0a1.955 1.955 0 0 0 2.764 2.764 6.364 6.364 0 0 1 8.989 0 6.364 6.364 0 0 1 0 8.989c-.045.045-.079.097-.119.145-.048.04-.1.073-.145.119l-2.594 2.594-14.94-14.94a1.955 1.955 0 0 0-2.764 0L47.91 28.434a1.955 1.955 0 0 0 2.764 2.764l14.857-14.857 1.805 1.805-34.91 34.91a1.958 1.958 0 0 0 .001 2.764l1.014 1.014-4.871 4.871a1.958 1.958 0 0 0 .001 2.764l2.098 2.098-4.135 4.135a1.955 1.955 0 0 0 2.764 2.764l4.135-4.135 2.098 2.098a1.951 1.951 0 0 0 2.764 0l4.871-4.871 1.015 1.015a1.951 1.951 0 0 0 2.764 0l36.292-36.292 3.976-3.976c.045-.045.079-.097.119-.145.048-.04.1-.073.145-.118 4.001-4.002 4.001-10.515-.002-14.517zM36.913 67.284l-2.098-2.098-2.098-2.098 3.489-3.489 4.196 4.196-3.489 3.489zm8.649-3.857l-1.014-1.014-6.96-6.96h-.001l-1.014-1.014L70.1 20.911l8.989 8.989-33.527 33.527zm-4.733-25.148a1.955 1.955 0 0 1 0-2.764l2.796-2.796a1.955 1.955 0 0 1 2.764 2.764l-2.796 2.796c-.382.382-.882.572-1.382.572s-1-.19-1.382-.572zm17.265 28.568v13.271c0 5.712-4.647 10.359-10.359 10.359H19.882c-5.712 0-10.359-4.647-10.359-10.359V52.265c0-5.712 4.647-10.359 10.359-10.359h12.65a1.955 1.955 0 0 1 0 3.91h-12.65a6.457 6.457 0 0 0-6.45 6.45v27.853a6.457 6.457 0 0 0 6.45 6.45h27.853a6.457 6.457 0 0 0 6.45-6.45V66.847a1.955 1.955 0 0 1 3.909 0z"/></svg>