<svg xmlns="http://www.w3.org/2000/svg" viewBox="0 0 100 125"><path d="M57.203 50H57.2L47.075 35.756a.545.545 0 0 0-.762-.13L39 40.827a.55.55 0 0 0-.13.762L49.478 56.5v.002l21.75 30.592a.55.55 0 0 0 .764.127l7.312-5.196a.55.55 0 0 0 .13-.764L57.2 50zM41.67 41.277l4.19-2.98a.545.545 0 0 1 .763.13l8.385 11.79a.547.547 0 0 1-.127.764l-2.095 1.49-2.096 1.49a.547.547 0 0 1-.763-.128L41.54 42.04a.548.548 0 0 1 .13-.763zm34.96 40.295l-4.19 2.98a.547.547 0 0 1-.762-.128L51.67 56.284a.546.546 0 0 1 .13-.763l2.095-1.49 2.096-1.49a.546.546 0 0 1 .763.13L76.76 80.81a.547.547 0 0 1-.13.762zM49.39 35.096c-.04.3.11.38.337.18l6.86-6.047c.228-.2.655-.33.954-.288l9.062 1.238c.3.04.38-.11.182-.336l-6.047-6.86a1.38 1.38 0 0 1-.29-.954l1.24-9.063c.042-.3-.108-.38-.335-.18l-6.86 6.05c-.228.198-.653.327-.954.286l-9.063-1.238c-.3-.043-.38.107-.18.334l6.047 6.86c.2.23.328.654.287.953l-1.24 9.063zm-.26-14.283c-.198-.227-.118-.377.183-.336l4.834.662c.3.038.725-.09.95-.29l3.66-3.227c.228-.2.378-.117.337.182l-.66 4.834c-.04.298.088.724.287.95l3.228 3.66c.2.227.117.377-.182.338l-4.834-.662c-.3-.04-.725.088-.95.287l-3.66 3.227c-.228.2-.378.12-.337-.182l.66-4.832a1.36 1.36 0 0 0-.287-.953l-3.227-3.66zM30.682 42.41l6.83 1.188c.297.053.383-.096.19-.328l-4.392-5.363c-.19-.234-.305-.664-.252-.963l1.188-6.828c.05-.297-.096-.383-.33-.19l-5.363 4.39c-.232.19-.664.305-.96.254l-6.83-1.188c-.298-.05-.382.096-.192.33l4.394 5.36c.19.235.305.665.252.964l-1.188 6.828c-.05.297.096.383.33.193l5.363-4.393c.233-.19.665-.305.962-.254zm-1.496-1.783l-2.06 1.688c-.235.19-.382.105-.33-.19l.454-2.625c.053-.3-.06-.73-.252-.963l-1.688-2.06c-.19-.233-.105-.382.193-.33l2.623.456c.297.053.73-.06.963-.252l2.058-1.687c.234-.19.383-.105.33.19l-.455 2.624c-.053.3.06.73.252.963l1.688 2.06c.19.235.105.382-.193.33l-2.623-.456c-.297-.05-.73.064-.96.253zM47.242 55.035l-6.176-.71c-.3-.032-.682-.263-.852-.513l-3.502-5.137c-.17-.248-.336-.207-.37.094l-.708 6.173c-.033.3-.264.682-.514.852L29.983 59.3c-.248.17-.207.335.092.368l6.178.707c.3.035.68.266.852.514l3.5 5.136c.17.248.338.207.37-.092l.708-6.176c.033-.3.266-.682.514-.852l5.137-3.502c.248-.17.21-.336-.092-.37zm-5.238 1.686l-1.607 1.1c-.25.17-.48.55-.516.85l-.22 1.937c-.035.3-.2.34-.37.092l-1.097-1.61c-.172-.25-.553-.48-.852-.514l-1.937-.223c-.3-.033-.34-.2-.09-.37l1.61-1.097c.247-.172.478-.553.513-.852l.223-1.938c.032-.3.198-.34.368-.09l1.098 1.61c.17.25.55.478.852.513l1.936.222c.3.033.342.2.09.37z"/><text y="115" font-size="5" font-weight="bold" font-family="'Helvetica Neue', Helvetica, Arial-Unicode, Arial, Sans-serif">Created by www.yugudesign.com</text><text y="120" font-size="5" font-weight="bold" font-family="'Helvetica Neue', Helvetica, Arial-Unicode, Arial, Sans-serif">from the Noun Project</text></svg>