<svg xmlns="http://www.w3.org/2000/svg" viewBox="0 0 100 125"><path d="M23.932 49.333a2.004 2.004 0 0 0-2.006-2.002H15.24a2.004 2.004 0 0 0-2.004 2.003c0 1.104.898 2 2.005 2h6.686a2.004 2.004 0 0 0 2.006-2zM24.684 61.608l-5.788 3.335a2 2 0 0 0-.734 2.733 2.007 2.007 0 0 0 2.74.733l5.788-3.336a1.998 1.998 0 0 0 .734-2.733 2.008 2.008 0 0 0-2.74-.732zM27.21 33.676l-5.746-3.41c-.952-.565-2.183-.253-2.75.696s-.253 2.178.7 2.743l5.743 3.41a2.01 2.01 0 0 0 2.75-.697 2 2 0 0 0-.698-2.742zM42.313 24.652h16.042a1.67 1.67 0 0 0 1.672-1.667 1.67 1.67 0 0 0-1.672-1.668H42.313a1.67 1.67 0 0 0-1.67 1.668c0 .92.748 1.667 1.67 1.667zM42.313 29.322h16.042c.924 0 1.672-.747 1.672-1.668s-.748-1.668-1.672-1.668H42.313a1.67 1.67 0 0 0-1.67 1.668c0 .92.748 1.668 1.67 1.668zM42.313 19.983h16.042a1.67 1.67 0 0 0 1.672-1.668 1.67 1.67 0 0 0-1.672-1.667h-5.013v-.668c0-1.105-.897-2-2.005-2h-2.674a2.003 2.003 0 0 0-2.005 2v.668h-4.345a1.67 1.67 0 1 0 0 3.335zM36.984 72.078a2.007 2.007 0 0 0-2.748.696l-3.417 5.733a2 2 0 0 0 .697 2.743c.95.564 2.182.253 2.748-.697l3.418-5.733a1.997 1.997 0 0 0-.7-2.742zM60.355 30.655h-20.71c-6.58 3.64-11.035 10.638-11.035 18.678 0 11.79 9.576 21.345 21.39 21.345 11.813 0 21.39-9.557 21.39-21.345 0-8.04-4.456-15.037-11.035-18.678zM50 61.512c-6.768 0-12.255-5.487-12.255-12.255S43.232 37.003 50 37.003s12.255 5.486 12.255 12.254S56.768 61.512 50 61.512zM81.21 65.732l-5.745-3.41a2.008 2.008 0 0 0-2.75.696 2 2 0 0 0 .7 2.743l5.744 3.41a2.007 2.007 0 0 0 2.747-.695 1.997 1.997 0 0 0-.698-2.743zM50 75.348a2.004 2.004 0 0 0-2.006 2.002v6.67c0 1.106.898 2 2.006 2s2.005-.895 2.005-2v-6.67A2.004 2.004 0 0 0 50 75.348zM84.758 47.332h-6.685a2.003 2.003 0 1 0 0 4.003h6.685a2.004 2.004 0 0 0 2.006-2c0-1.108-.9-2.003-2.006-2.003zM75.315 37.057l5.788-3.334a1.998 1.998 0 0 0 .734-2.733 2.005 2.005 0 0 0-2.738-.732l-5.79 3.335c-.96.553-1.288 1.776-.734 2.733s1.78 1.285 2.74.73z"/><path d="M55.756 45.256l-8.274 6.893-2.14-2.57a1.856 1.856 0 1 0-2.852 2.377l3.327 3.995c.656.79 1.827.895 2.616.24l9.7-8.082a1.857 1.857 0 0 0-2.377-2.854zM65.802 73.232c-.554-.957-1.78-1.285-2.74-.733s-1.287 1.775-.732 2.732l3.342 5.777a2.007 2.007 0 0 0 2.74.732 1.998 1.998 0 0 0 .732-2.733l-3.342-5.778z"/><text y="115" font-size="5" font-weight="bold" font-family="'Helvetica Neue', Helvetica, Arial-Unicode, Arial, Sans-serif">Created by YuguDesign</text><text y="120" font-size="5" font-weight="bold" font-family="'Helvetica Neue', Helvetica, Arial-Unicode, Arial, Sans-serif">from the Noun Project</text></svg>