<svg xmlns="http://www.w3.org/2000/svg" viewBox="0 0 100 100"><g fill="#fff"><path d="M49.597 91.061C26.956 91.061 8.536 72.643 8.536 50c0-22.641 18.42-41.061 41.061-41.061S90.658 27.359 90.658 50c0 22.643-18.42 41.061-41.061 41.061zm0-79.022c-20.932 0-37.962 17.029-37.962 37.961s17.03 37.961 37.962 37.961c20.932 0 37.962-17.029 37.962-37.961S70.528 12.039 49.597 12.039z"/><path d="M65.051 26.104a2.776 2.776 0 0 0-5.034-2.334l-15.233 29.1-.638 1.373a4.351 4.351 0 0 0 .469 4.445l3.731 1.73a4.347 4.347 0 0 0 3.695-2.514l.634-1.367 12.376-30.433zM48.407 61.797l-2.441-1.133-2.444-1.133s-1.156 2.881-5.75 3.088l-.024 14.92 3.611-7.787a1.575 1.575 0 0 1 1.63-2.674A1.577 1.577 0 1 1 42 70.051l-3.61 7.787 11.373-9.656c-2.808-3.643-1.356-6.385-1.356-6.385z"/></g></svg>