<svg xmlns="http://www.w3.org/2000/svg" viewBox="0 0 100 100"><g fill="#fff"><path d="M49.597 91.06c-22.64 0-41.06-18.417-41.06-41.06 0-22.64 18.42-41.06 41.06-41.06S90.657 27.36 90.657 50c0 22.643-18.42 41.06-41.06 41.06zm0-79.02c-20.932 0-37.962 17.028-37.962 37.96s17.03 37.96 37.962 37.96C70.53 87.96 87.56 70.933 87.56 50S70.527 12.04 49.596 12.04z"/><path d="M65.05 26.104a2.776 2.776 0 0 0-5.033-2.334l-15.233 29.1-.638 1.373a4.35 4.35 0 0 0 .47 4.445l3.73 1.73a4.347 4.347 0 0 0 3.695-2.514l.635-1.367L65.05 26.104zM48.407 61.797l-2.44-1.133-2.445-1.133s-1.156 2.882-5.75 3.09l-.024 14.92 3.61-7.788a1.575 1.575 0 0 1 1.63-2.674A1.577 1.577 0 0 1 42 70.05l-3.608 7.787 11.373-9.656c-2.808-3.643-1.356-6.385-1.356-6.385z"/></g></svg>