<svg xmlns="http://www.w3.org/2000/svg" viewBox="0 0 100 100"><g fill="#fff"><path d="M50 91.061c-22.641 0-41.061-18.42-41.061-41.06C8.939 27.359 27.359 8.939 50 8.939S91.061 27.359 91.061 50 72.641 91.061 50 91.061zm0-79.023c-20.932 0-37.962 17.03-37.962 37.962 0 20.931 17.03 37.96 37.962 37.96 20.932 0 37.962-17.029 37.962-37.96 0-20.932-17.03-37.962-37.962-37.962z"/><path d="M70.014 47.412v-5.253c0-11.326-8.824-20.548-19.65-20.548-10.848 0-19.661 9.222-19.661 20.548v4.765c-1.331.728-2.264 2.08-2.264 3.707v7.276c0 2.016 1.422 3.629 3.299 4.084.454 1.867 2.057 3.285 4.07 3.285a4.27 4.27 0 0 0 4.276-4.273V48.264a4.271 4.271 0 0 0-4.276-4.275c-.193 0-.363.091-.545.115v-1.946c0-8.813 6.778-15.977 15.101-15.977 8.325 0 15.09 7.164 15.09 15.977v2.081c-.398-.123-.808-.25-1.262-.25a4.27 4.27 0 0 0-4.275 4.275v12.738a4.268 4.268 0 0 0 4.275 4.273c1.956 0 3.48-1.352 3.979-3.137-1.272 6.596-6.56 11.723-13.201 12.85-.398-1.08-1.24-1.945-2.456-1.945-1.559 0-2.82 1.262-2.82 2.82s1.261 2.82 2.82 2.82c1.216 0 2.058-.865 2.456-1.943 8.017-1.229 14.237-7.723 15.09-15.863.852-.752 1.5-1.719 1.5-2.971V50.63c0-1.307-.614-2.433-1.546-3.218z"/></g></svg>