<svg xmlns="http://www.w3.org/2000/svg" viewBox="0 0 100 100"><g fill="#fff"><path d="M50 91.06C27.36 91.06 8.94 72.64 8.94 50S27.36 8.94 50 8.94 91.06 27.36 91.06 50 72.64 91.06 50 91.06zm0-79.022c-20.932 0-37.962 17.03-37.962 37.962 0 20.93 17.03 37.96 37.962 37.96 20.932 0 37.962-17.03 37.962-37.96 0-20.932-17.03-37.962-37.962-37.962z"/><path d="M70.014 47.412V42.16c0-11.327-8.824-20.55-19.65-20.55-10.848 0-19.66 9.223-19.66 20.55v4.764c-1.332.728-2.265 2.08-2.265 3.707v7.277c0 2.016 1.42 3.63 3.298 4.084.454 1.868 2.057 3.286 4.07 3.286a4.27 4.27 0 0 0 4.276-4.273v-12.74a4.27 4.27 0 0 0-4.276-4.274c-.193 0-.363.09-.545.114v-1.946c0-8.813 6.778-15.977 15.1-15.977 8.326 0 15.09 7.165 15.09 15.978v2.08c-.397-.122-.807-.25-1.26-.25a4.27 4.27 0 0 0-4.276 4.276v12.738a4.268 4.268 0 0 0 4.275 4.273c1.956 0 3.48-1.352 3.98-3.137-1.273 6.596-6.56 11.723-13.202 12.85-.398-1.08-1.24-1.945-2.456-1.945-1.56 0-2.82 1.262-2.82 2.82s1.26 2.82 2.82 2.82c1.216 0 2.058-.865 2.456-1.943 8.017-1.23 14.237-7.723 15.09-15.863.852-.752 1.5-1.72 1.5-2.97V50.63c0-1.307-.614-2.433-1.546-3.218z"/></g></svg>