<svg xmlns="http://www.w3.org/2000/svg" viewBox="0 0 100 100"><g fill="#fff"><path d="M81.451 57.263l-3.902-3.145a4.632 4.632 0 0 0 .447-1.539c1.223-11.502-5.221-13.132-12.887-13.132-2.85 0-5.191.331-7.088.897H41.643c-1.895-.566-4.236-.897-7.086-.897-7.668 0-14.111 1.63-12.889 13.132.064.606.25 1.188.541 1.732l-3.66 2.951a1.898 1.898 0 0 0 2.571 2.789l3.291-3.467c3.32 2.123 9.318 2.538 16.264-.825 3.881-1.878 6.352-4.662 7.023-7.402h4.271c.672 2.74 3.143 5.524 7.021 7.402 7.092 3.434 13.197 2.93 16.473.691l3.416 3.601c.77.709 1.971.66 2.68-.109a1.895 1.895 0 0 0-.108-2.679zM51.789 46.85h-3.912a5.51 5.51 0 0 0-1.123-3.324h6.158a5.498 5.498 0 0 0-1.123 3.324zm1.529-3.814h-6.971c-.715-.781-1.684-1.476-2.932-2.04H56.25c-1.248.565-2.219 1.259-2.932 2.04z"/><path d="M50 90.939c-22.641 0-41.061-18.419-41.061-41.061 0-22.64 18.42-41.06 41.061-41.06s41.061 18.42 41.061 41.061c0 22.642-18.42 41.06-41.061 41.06zm0-79.022c-20.932 0-37.963 17.03-37.963 37.962 0 20.933 17.031 37.962 37.963 37.962s37.961-17.029 37.961-37.962c0-20.932-17.029-37.962-37.961-37.962z"/></g></svg>