<svg xmlns="http://www.w3.org/2000/svg" viewBox="0 0 100 100"><g fill="#fff"><path d="M81.45 57.263l-3.9-3.145c.235-.488.39-1.003.446-1.54 1.223-11.5-5.22-13.13-12.887-13.13-2.85 0-5.192.33-7.09.896H41.644c-1.895-.566-4.236-.897-7.086-.897-7.668 0-14.11 1.63-12.89 13.132a4.71 4.71 0 0 0 .542 1.73l-3.66 2.952a1.898 1.898 0 0 0 2.57 2.79l3.29-3.468c3.32 2.123 9.32 2.538 16.265-.825 3.88-1.88 6.352-4.663 7.023-7.403h4.27c.673 2.74 3.144 5.524 7.022 7.402 7.092 3.433 13.197 2.93 16.473.69l3.416 3.6a1.9 1.9 0 0 0 2.68-.108c.71-.77.66-1.97-.11-2.68zM51.79 46.85h-3.913a5.51 5.51 0 0 0-1.123-3.324h6.158a5.498 5.498 0 0 0-1.123 3.324zm1.528-3.814h-6.97c-.716-.78-1.685-1.476-2.933-2.04H56.25c-1.248.565-2.22 1.26-2.932 2.04z"/><path d="M50 90.94c-22.64 0-41.06-18.42-41.06-41.062 0-22.64 18.42-41.06 41.06-41.06s41.06 18.42 41.06 41.06c0 22.643-18.42 41.06-41.06 41.06zm0-79.023c-20.932 0-37.963 17.03-37.963 37.962 0 20.932 17.03 37.96 37.963 37.96s37.96-17.028 37.96-37.96c0-20.933-17.028-37.963-37.96-37.963z"/></g></svg>