<svg xmlns="http://www.w3.org/2000/svg" xmlns:xlink="http://www.w3.org/1999/xlink" version="1.1" x="0px" y="0px" viewBox="0 0 65 81.25" enable-background="new 0 0 65 65" xml:space="preserve"><g><path fill="none" path="#fff" d="M65.3,3.8H9.2v24.5C7.8,29,6.5,29.9,5.4,31l-1.7-1.7l1-1l-1.1-1.1l-3,3l1.1,1.1l1-1L4.3,32c-2.8,3.1-4.6,7.2-4.6,11.7   c0,9.6,7.8,17.4,17.4,17.4c7.5,0,13.9-4.8,16.4-11.5h31.8V3.8z M63.8,5.3v5.1H10.7V5.3H63.8z M17.1,59.7c-8.8,0-15.9-7.1-15.9-15.9   c0-8.8,7.1-15.9,15.9-15.9C25.9,27.9,33,35,33,43.8C33,52.5,25.9,59.7,17.1,59.7z M34,48.1c0.4-1.4,0.6-2.8,0.6-4.3   c0-4.5-1.8-8.6-4.6-11.7l1.7-1.7l1,1l1.1-1.1l-3-3l-1.1,1.1l1,1L28.9,31c-2.9-2.7-6.8-4.4-11-4.6v-2.7h2v-1.5h-5.5v1.5h2v2.7   c-2,0.1-3.9,0.5-5.7,1.2V11.9h53.1v36.2H34z"/><rect fill="none" path="#fff" x="58.3" y="7.2" width="1.5" height="1.5"/><rect fill="none" path="#fff" x="54.6" y="7.2" width="1.5" height="1.5"/><rect fill="none" path="#fff" x="50.9" y="7.2" width="1.5" height="1.5"/><rect fill="none" path="#fff" x="14.7" y="7.2" width="32.4" height="1.5"/><rect fill="none" path="#fff" x="3.9" y="43.1" width="2" height="1.5"/><rect x="10" y="32.6" transform="matrix(-0.4999 -0.8661 0.8661 -0.4999 -12.445 59.5951)" width="2" height="1.5"/><rect x="5.5" y="37.1" transform="matrix(-0.8661 -0.4999 0.4999 -0.8661 -6.6804 73.853)" width="2" height="1.5"/><rect x="5.8" y="48.9" transform="matrix(-0.4999 -0.8661 0.8661 -0.4999 -33.4138 80.5606)" width="1.5" height="2"/><rect x="10.2" y="53.3" transform="matrix(-0.866 -0.5001 0.5001 -0.866 -6.6896 106.9231)" width="1.5" height="2"/><rect fill="none" path="#fff" x="16.3" y="55" width="1.5" height="2"/><path fill="none" path="#fff" d="M17,30h-0.8v11.3c-1.1,0.3-2,1.4-2,2.6c0,1.5,1.2,2.7,2.7,2.7c0.2,0,0.4,0,0.7-0.1l5.6,9.6l0.6-0.4c4.3-2.5,7-7.1,7-12   C30.9,36.2,24.7,30,17,30z M15.8,43.9c0-0.7,0.6-1.2,1.2-1.2c0.7,0,1.2,0.6,1.2,1.2s-0.6,1.2-1.2,1.2   C16.4,45.1,15.8,44.6,15.8,43.9z M23.8,54.1L19,45.8c0.5-0.5,0.8-1.2,0.8-1.9c0-1.2-0.8-2.3-2-2.6v-9.8c6.5,0.4,11.7,5.8,11.7,12.3   C29.4,48,27.3,51.8,23.8,54.1z"/><path fill="none" path="#fff" d="M60.5,15h-36v8.7h36V15z M59,22.2h-33v-5.7h33V22.2z"/><rect x="37.2" y="28.5" width="23.5" height="1.5"/><rect x="39.7" y="34.6" width="21.1" height="1.5"/><rect x="44.3" y="40.7" width="16.5" height="1.5"/></g></svg>
