<svg xmlns="http://www.w3.org/2000/svg" viewBox="0 0 100 125"><path d="M72.333 10.04c0-.791.107-3.096-2.672-3.681C63.627 5.088 50 5 50 5s-13.626.088-19.66 1.359c-2.779.584-2.673 2.89-2.673 3.681v79.919c0 .791-.106 3.098 2.672 3.682C36.373 94.91 50 95 50 95s13.627-.09 19.66-1.359c2.78-.584 2.673-2.891 2.673-3.682V10.04zM50 8.432a.976.976 0 1 1-.001 1.951A.976.976 0 0 1 50 8.432zm20.389 76.029H29.611V12.819h40.777v71.642z"/><text y="115" font-size="5" font-weight="bold" font-family="'Helvetica Neue', Helvetica, Arial-Unicode, Arial, Sans-serif">Created by Martin Jordan</text><text y="120" font-size="5" font-weight="bold" font-family="'Helvetica Neue', Helvetica, Arial-Unicode, Arial, Sans-serif">from the Noun Project</text></svg>