<svg xmlns="http://www.w3.org/2000/svg" viewBox="0 0 53 96.625"><path d="M47.4 23.2c0-4.4-3.6-7.9-7.9-7.9s-7.9 3.6-7.9 7.9c0 3.1 1.8 5.7 4.3 7.1-1.2 5.7-5.9 8.3-12.5 11.3-1.6.7-3.2 1.5-4.7 2.3V20.6c2.7-1.2 4.7-4 4.7-7.2 0-4.4-3.6-7.9-7.9-7.9-4.4 0-7.9 3.6-7.9 7.9 0 3.2 1.9 6 4.7 7.2V56v-6 7.7c-2.7 1.2-4.7 4-4.7 7.2 0 4.4 3.6 7.9 7.9 7.9 4.4 0 7.9-3.6 7.9-7.9 0-3.2-1.9-6-4.7-7.2V53c0-2 2.8-3.4 7.4-5.5 6.4-2.9 14.8-6.8 16.4-16.9 2.9-1.2 4.9-4 4.9-7.4zM15.5 9.5c2.2 0 3.9 1.8 3.9 3.9 0 2.2-1.8 3.9-3.9 3.9-2.2 0-3.9-1.8-3.9-3.9 0-2.1 1.7-3.9 3.9-3.9zm0 59.3c-2.2 0-3.9-1.8-3.9-3.9 0-2.2 1.8-3.9 3.9-3.9 2.2 0 3.9 1.8 3.9 3.9 0 2.2-1.8 3.9-3.9 3.9zm24-41.6c-2.2 0-3.9-1.8-3.9-3.9 0-2.2 1.8-3.9 3.9-3.9s3.9 1.8 3.9 3.9c0 2.1-1.7 3.9-3.9 3.9z"/><text y="92.3" font-size="5" font-weight="bold" font-family="'Helvetica Neue', Helvetica, Arial-Unicode, Arial, Sans-serif">Created by Nick Bluth</text><text y="97.3" font-size="5" font-weight="bold" font-family="'Helvetica Neue', Helvetica, Arial-Unicode, Arial, Sans-serif">from the Noun Project</text></svg>