<svg xmlns="http://www.w3.org/2000/svg" viewBox="0 0 100 125"><path d="M83.147 6.433C82.952 6.003 82.303 5 80.5 5h-61c-1.803 0-2.453 1.002-2.648 1.433-.196.43-.522 1.58.666 2.936l21.708 24.808c.667.763 1.275 2.38 1.275 3.394V69c0 1.928 1.132 2.79 2.252 2.79.716 0 1.414-.335 2.077-.997L57.37 54.248C58.592 52.975 59.5 50.742 59.5 49V37.57c0-1.012.607-2.63 1.275-3.393L82.482 9.37c1.188-1.358.86-2.507.665-2.937zM53.05 73.515c-.946 0-2.05.65-2.05 2.485 0 3.396-1.747 4.31-3.77 5.37-1.66.872-3.73 1.956-3.73 4.63 0 4.963 4.038 9 9 9 4.963 0 9-4.037 9-9 0-2.65-2.148-6.207-3.07-7.612-1.462-2.223-3.58-4.873-5.38-4.873z"/><text y="115" font-size="5" font-weight="bold" font-family="'Helvetica Neue', Helvetica, Arial-Unicode, Arial, Sans-serif">Created by Ralf Schmitzer</text><text y="120" font-size="5" font-weight="bold" font-family="'Helvetica Neue', Helvetica, Arial-Unicode, Arial, Sans-serif">from the Noun Project</text></svg>