<svg xmlns="http://www.w3.org/2000/svg" xmlns:xlink="http://www.w3.org/1999/xlink" version="1" viewBox="0 0 149 186.25"><path fill-rule="evenodd" clip-rule="evenodd" fill="#FFF" d="M61.624 53.373h.494v2.3h-.494zM59.785 52.417h.494v3.256h-.495zM57.826 53.373h.494v2.3h-.494z"/><path fill="#FFF" d="M74.505 148.424C33.742 148.424.58 115.26.58 74.5.58 33.737 33.744.576 74.506.576c40.76 0 73.924 33.162 73.924 73.924 0 40.76-33.164 73.924-73.925 73.924zm0-142.716c-37.932 0-68.792 30.86-68.792 68.792 0 37.93 30.86 68.792 68.792 68.792 37.93 0 68.792-30.86 68.792-68.792S112.437 5.708 74.505 5.708z"/><path fill="#FFF" d="M91.7 107.79c-7.72.23-13.92 4.21-14.33 10.21H54.46s.02-.57.04-1.81c9.19 0 9.05-8.82 9.05-8.82s18.7-.06 28.09 0c.02.14.03.28.06.42z"/><g fill="#FFF"><path d="M51.245 45.55c.61.586 1.943 1.45 3.6 3.45h22.002c.16-2 .286-2.91.352-3.573C74.86 44.98 72.732 44 70.913 43H53.142c-.548 1-1.18 1.738-1.897 2.55zM80.878 100H57.395c-1.567 3-2.9 5-3.74 6H80.04c.563 0 1.147-.707 1.755-1.018-.12-.655-.465-1.982-.917-4.982zM107.288 100.997c0-.33.022.003.04-.997H88.605c.465 2 .812 2.52.967 2.967.532-.04 1.063-.157 1.59-.157 4.012 0 7.582 1.19 10.18 3.19h6.76c-.534-1-.812-3.243-.812-5.003zM84.246 49h17.3c-.027-1-.056-.696-.056-1.043 0-1.76.403-3.957 1.14-4.957H91.302c-1.744 1-3.777 1.908-6.014 2.37-.14.483-.525 1.63-1.042 3.63zM48.28 100h-6.063c1.54 1 3.063 1.066 4.512 1.922.26-.326.806-.922 1.55-1.922zM120 83.115V64.743c-2-.05-4-.464-6-1.202v23.17c1-.858 1.955-1.623 3.02-2.245a16.03 16.03 0 0 1 2.98-1.35zM41.16 100.094c-.188-.183-.16-.436-.16-.718V76.232c0 .032-.465.062-.583.085.026.412.11.822.11 1.23 0 5.385-2.527 9.975-5.527 12.51v9.318c0 .283-.126.562-.093.836a13.08 13.08 0 0 1 3.292-.422c.977 0 1.97.11 2.96.306zM38.507 68.467c.38-.01 1.493-.038 2.493-.075V51.56c-1 .312-2.656.474-3.973.474-.695 0-1.027-.06-2.027-.15v11.6c1 1.402 2.587 3.086 3.507 4.983z"/></g><defs><path id="a" d="M113.477 61.2L90.36 66.15l19.4-7.194c-5.744-4.44-7.953-11.445-4.89-16.293 3.305-5.228 11.482-5.964 18.267-1.64 6.784 4.32 9.604 12.062 6.3 17.292-2.938 4.648-9.724 5.734-15.96 2.886zm9.027-17.476c0-.397-.356-.72-.795-.72h-8.413c-.44 0-.794.323-.794.72v14.56c0 .397.354.72.794.72h8.412c.437 0 .794-.322.794-.72v-14.56zm-8.89 1.44h7.777v10.668h-7.776V45.165zm3.968 11.39c.525 0 .952.386.952.864 0 .48-.427.866-.952.866s-.952-.387-.952-.866c0-.478.427-.865.952-.865zm-33.87-13.315l-6.578 22.91 2.243-22.807c-7.22-.658-12.822-5.385-12.822-11.127 0-6.19 6.512-11.212 14.547-11.212 8.034 0 14.546 5.02 14.546 11.212 0 5.506-5.15 10.074-11.935 11.023zM74.43 29.172a.303.303 0 0 0-.308-.296h-1.08c-.172 0-.31.133-.31.296v4.824c0 .164.138.298.31.298h1.08c.17 0 .308-.134.308-.298v-4.824zm.12 5.343l1.617 4.008a.5.5 0 0 0 .43.296h1.775c.172 0 .256-.132.19-.296l-1.618-4.008a.505.505 0 0 0-.43-.296H74.74c-.173 0-.257.134-.19.296zm4.282-5.045a.304.304 0 0 0-.308-.297h-3.4a.304.304 0 0 0-.307.298v4.156c0 .165.138.298.308.298h3.4c.168 0 .307-.134.307-.298V29.47zm7.183-2.627c0-.355-.293-.513-.635-.36l-5.783 2.552c-.083.036-.146.197-.146.36v4.376c0 .166.064.327.147.362l5.783 2.555c.342.15.635-.008.635-.363v-9.48zm1.7-.118a.302.302 0 0 0-.31-.296h-.695c-.17 0-.31.13-.31.295v9.723c0 .163.14.296.31.296h.695c.17 0 .31-.133.31-.296v-9.723zM48.4 45.222L66.554 62.61 44.89 47.775c-6.316 3.572-13.6 2.872-16.844-1.857-3.5-5.1-.974-12.944 5.643-17.52 6.614-4.578 14.814-4.153 18.313.946 3.11 4.532 1.45 11.228-3.6 15.876zm-10.206-15.97l-.506-.21a.55.55 0 0 0-.716.295l-1.828 4.396a.548.548 0 0 0 .295.718l.507.212c.28.117.6-.015.716-.294l1.83-4.396a.552.552 0 0 0-.297-.72zm6.812 4.553l-1.82-4.388a.542.542 0 0 0-.712-.294l-.503.21a.55.55 0 0 0-.293.718l1.817 4.388c.117.28.436.412.714.295l.504-.21a.55.55 0 0 0 .294-.718zm3.495.59a.916.916 0 0 0-.915-.916h-2.125l.257.62a.55.55 0 0 1-.293.718l-1.51.633a.544.544 0 0 1-.714-.295l-.693-1.675h-4.884l-.667 1.607a.55.55 0 0 1-.72.296l-1.516-.635a.55.55 0 0 1-.296-.718l.23-.55h-2.24a.915.915 0 0 0-.914.917v1.28c0 .507.408.918.913.918h.016l1.29 5.967c.053.246.343.442.647.442h11.206c.305 0 .593-.197.646-.442l1.29-5.967h.076c.506 0 .915-.41.915-.917v-1.282zm-4.03 7.394c-.316 0-.544-.214-.51-.483l.46-3.464c.045-.34.378-.622.745-.622.366 0 .615.283.557.623l-.593 3.464c-.046.268-.34.482-.658.482zm-2.873 0c-.317 0-.566-.214-.557-.483l.124-3.464c.012-.34.318-.622.684-.622s.644.283.618.623l-.257 3.464c-.02.268-.293.482-.61.482zm-3.064 0c-.317 0-.59-.214-.607-.483l-.236-3.464c-.024-.34.254-.622.62-.622s.672.283.683.623l.1 3.464c.007.268-.243.482-.56.482zm-2.873 0c-.317 0-.61-.214-.654-.483l-.57-3.464c-.056-.34.194-.622.56-.622.365 0 .7.283.742.623l.436 3.464c.033.268-.198.482-.515.482zm1.265 28.717l26.98-.817-25.825 5.014c1.12 7.19-2.08 13.798-7.627 15.196-5.983 1.508-12.417-3.614-14.373-11.438-1.957-7.824 1.308-15.39 7.29-16.897 5.318-1.34 10.986 2.565 13.555 8.942zm-6.3.378c.118-.308.78-3.036-1.25-4.598-1.52-1.17-2.14-1.283-2.14-1.283s-.616.114-2.135 1.283c-2.03 1.562-1.366 4.29-1.247 4.598.12.308-.303.423-.213 1.14.09.72.565.763.57.784.204.77.718 1.59.926 1.817.207.227.486.71.07 1.462-.78 1.407-2.393 1.31-3.774 2.208-1.382.898-.82 3.458-.82 3.458 2.506 1.57 6.624 1.21 6.624 1.21s4.124.36 6.63-1.21c0 0 .566-2.56-.818-3.458-1.385-.898-2.997-.8-3.778-2.21-.417-.75-.14-1.235.07-1.46.208-.227.723-1.05.928-1.82.005-.02.48-.064.57-.782.09-.718-.335-.834-.215-1.14zm16.52 34.076l22.05-27.303-18.85 30.24c4.76 5.49 5.548 12.795 1.59 16.94-4.266 4.472-12.427 3.57-18.228-2.01-5.8-5.58-7.043-13.73-2.776-18.2 3.793-3.974 10.66-3.695 16.214.334zm1.033 12.49c2.14-2.837 1.63-6.91-1.14-9.098-2.77-2.188-6.75-1.66-8.89 1.177-2.14 2.835-1.63 6.908 1.142 9.097 2.77 2.186 6.75 1.66 8.89-1.178zm-11.526 4.763c.676.533 1.605.788 1.605.788l2.065-2.737s-.824-.31-1.5-.843c-.704-.556-1.26-1.337-1.26-1.337l-2.066 2.74s.45.833 1.154 1.39zm3.11-11.376c1.452-1.926 4.156-2.284 6.037-.798 1.883 1.483 2.23 4.25.776 6.177-1.453 1.928-4.155 2.284-6.037.8-1.882-1.487-2.23-4.252-.776-6.18zm44.277-4.315l-5.144-27.98 9.315 26.792c7.156-1.174 13.757 1.997 15.187 7.558 1.54 5.996-3.517 12.49-11.296 14.505-7.78 2.016-15.335-1.21-16.875-7.207-1.37-5.33 2.482-11.046 8.816-13.668zm4.964 17.486c4.19 0 7.502-3.31 7.502-7.504 0-4.194-3.31-7.504-7.502-7.504-4.194 0-7.504 3.31-7.504 7.504 0 4.193 3.31 7.504 7.504 7.504zm-3.38-11.167c-.44 1.192-.703 2.385-.75 3.333h-2.67c.067-1.655.685-3.134 1.7-4.26.463.332 1.06.64 1.72.928zm0 7.327c-.66.288-1.257.596-1.72.928-1.016-1.126-1.633-2.604-1.7-4.26h2.67c.023.928.29 2.14.75 3.332zm1.48 2.868c-1.036-.242-1.964-.77-2.737-1.478a7.33 7.33 0 0 1 1.503-.84c.308.84.728 1.635 1.235 2.318zm1.568-3.022v3.31c-.222 0-.44-.02-.685-.065-.618-.815-1.147-1.787-1.545-2.78a8.296 8.296 0 0 1 2.23-.465zm-3.135-3.18h3.135v2.495c-.75.044-1.612.266-2.45.62-.398-1.06-.64-2.12-.685-3.114zm.685-3.772c.838.355 1.7.575 2.45.62v2.493h-3.135c.044-1.036.287-2.073.685-3.112zm1.765-3.31c.243-.043.463-.066.685-.066v3.312a8.236 8.236 0 0 1-2.252-.486 13.44 13.44 0 0 1 1.567-2.76zm-3.62 1.7a6.434 6.434 0 0 1 2.738-1.5c-.487.662-.928 1.478-1.26 2.315a7.7 7.7 0 0 1-1.478-.815zm7.217 1.06a8.178 8.178 0 0 1-2.25.485v-3.312c.22 0 .44.023.684.067a13.398 13.398 0 0 1 1.566 2.76zm.884 3.663h-3.134v-2.494c.75-.045 1.61-.266 2.448-.62.398 1.04.642 2.077.686 3.113zm-.686 3.774c-.838-.354-1.697-.575-2.448-.62v-2.493h3.134c-.044.993-.288 2.054-.686 3.113zm-1.764 3.31a3.78 3.78 0 0 1-.684.066v-3.31c.707.043 1.48.197 2.23.463a12.153 12.153 0 0 1-1.546 2.78zm3.62-1.7c-.772.707-1.7 1.236-2.737 1.48a9.238 9.238 0 0 0 1.236-2.317c.575.24 1.08.528 1.5.838zm-.51-4.723h2.673c-.066 1.656-.685 3.135-1.7 4.26-.463-.33-1.06-.64-1.72-.927.463-1.19.727-2.404.75-3.333zm-.75-3.993c.663-.287 1.26-.595 1.723-.927 1.016 1.126 1.634 2.604 1.7 4.26h-2.67c-.045-.948-.31-2.14-.75-3.332zm-1.478-2.89a6.415 6.415 0 0 1 2.736 1.5 7.63 7.63 0 0 1-1.478.815c-.33-.837-.77-1.653-1.258-2.316zm-.542-32.293l22.29 13.527c4.177-5.948 11.055-8.458 16.008-5.586 5.34 3.097 6.414 11.27 2.397 18.255-4.018 6.986-11.604 10.14-16.944 7.043-4.75-2.753-6.116-9.514-3.54-15.89l-20.212-17.35zm27.12 17.458a.68.68 0 0 0-.672-.685h-2.42a.68.68 0 0 0-.674.685v5.88a.68.68 0 0 0 .673.684h2.42c.372 0 .673-.307.673-.685v-5.88zm4.84-6.427a.68.68 0 0 0-.673-.684h-2.42a.678.678 0 0 0-.672.684v12.444c0 .378.3.684.673.684h2.42a.68.68 0 0 0 .672-.684V88.688zm4.84 3.145a.68.68 0 0 0-.673-.685h-2.42a.68.68 0 0 0-.67.685v9.3c0 .377.3.683.67.683h2.42a.68.68 0 0 0 .673-.684v-9.3zm-14.655 11.487c0 .377.3.684.672.684h14.655a.68.68 0 0 0 .673-.684v-.41a.68.68 0 0 0-.673-.685h-14.655a.68.68 0 0 0-.672.685v.41z"/></defs><use xlink:href="#a" overflow="visible" fill-rule="evenodd" clip-rule="evenodd" fill="#FFF"/></svg>