<svg xmlns="http://www.w3.org/2000/svg" version="1" viewBox="0 0 149 186.25"><path fill-rule="evenodd" clip-rule="evenodd" fill="#FFF" d="M57.18 83.8a.734.734 0 1 0 .008 1.468.734.734 0 0 0-.008-1.468zm0 0a.734.734 0 1 0 .008 1.468.734.734 0 0 0-.008-1.468zm0 0a.734.734 0 1 0 .008 1.468.734.734 0 0 0-.008-1.468zm0 0a.734.734 0 1 0 .008 1.468.734.734 0 0 0-.008-1.468zm0 0a.734.734 0 1 0 .008 1.468.734.734 0 0 0-.008-1.468zm0 0a.734.734 0 1 0 .008 1.468.734.734 0 0 0-.008-1.468zm0 0a.734.734 0 1 0 .008 1.468.734.734 0 0 0-.008-1.468zm0 0a.734.734 0 1 0 .008 1.468.734.734 0 0 0-.008-1.468zm0 0a.734.734 0 1 0 .008 1.468.734.734 0 0 0-.008-1.468zm0 0a.734.734 0 1 0 .008 1.468.734.734 0 0 0-.008-1.468zm0 0a.734.734 0 1 0 .008 1.468.734.734 0 0 0-.008-1.468zm0 0a.734.734 0 1 0 .008 1.468.734.734 0 0 0-.008-1.468zm0 0a.734.734 0 1 0 .008 1.468.734.734 0 0 0-.008-1.468zm0 0a.734.734 0 1 0 .008 1.468.734.734 0 0 0-.008-1.468zm0 0a.734.734 0 1 0 .008 1.468.734.734 0 0 0-.008-1.468zm0 0a.734.734 0 1 0 .008 1.468.734.734 0 0 0-.008-1.468zm0 0a.734.734 0 1 0 .008 1.468.734.734 0 0 0-.008-1.468zm0 0a.734.734 0 1 0 .008 1.468.734.734 0 0 0-.008-1.468zm0 0a.734.734 0 1 0 .008 1.468.734.734 0 0 0-.008-1.468zm0 0a.734.734 0 1 0 .008 1.468.734.734 0 0 0-.008-1.468zm0 0a.734.734 0 1 0 .008 1.468.734.734 0 0 0-.008-1.468zM61.624 53.373h.494v2.301h-.494zM59.785 52.417h.494v3.256h-.494zM57.826 53.373h.494v2.301h-.494z"/><path fill="#FFF" d="M74.505 146.424c-39.66 0-71.924-32.266-71.924-71.924 0-39.66 32.265-71.924 71.924-71.924 39.658 0 71.924 32.265 71.924 71.924 0 39.658-32.266 71.924-71.924 71.924zm0-138.854c-36.906 0-66.93 30.024-66.93 66.93 0 36.904 30.024 66.931 66.93 66.931 36.904 0 66.931-30.026 66.931-66.931 0-36.906-30.027-66.93-66.931-66.93z"/><g fill="#FFF"><path d="M111.757 100.077c3.386 0 6.243-2.506 6.243-5.867V45.27c0-3.358-3.537-6.27-6.923-6.27H37.569C34.183 39 32 41.892 32 45.25v49.001c0 3.359 2.519 5.826 5.905 5.826l-12.41.173-.093 3.789c0 3.361 2.654 5.961 6.041 5.961h85.76c3.387 0 6.797-2.479 6.797-5.841v-3.909l-12.243-.173zM38 95V45h74v50H38zm49 13H63v-3h24v3zm11.826.26a2.503 2.503 0 0 1-2.499-2.509 2.502 2.502 0 0 1 2.499-2.507c1.382 0 2.5 1.121 2.5 2.507a2.503 2.503 0 0 1-2.5 2.509zm9.001 0a2.502 2.502 0 0 1-2.499-2.509 2.5 2.5 0 1 1 5 0 2.504 2.504 0 0 1-2.501 2.509z"/><path d="M62.328 68H41V46h-2v24.25l34.746-.098L73.329 68z"/><path d="M46.372 52.433l5.615 2.411 2.965-1.78 3.129 1.23 4.76-1.581 3.407 2.053 6.93-6.582-.896-.373-6.219 5.908-3.038-1.83-4.9 1.627-3.312-1.303-2.887 1.871-5.442-2.421-6.043 1.678.435.619zM46.372 60.034l5.615 2.411 2.965-1.779 3.129 1.23 4.76-1.58 3.407 2.051 6.93-6.58-.896-.373-6.219 5.906-3.038-1.83-4.9 1.627-3.312-1.301-2.887 1.869-5.442-2.419-6.043 1.678.435.618zM96.103 71.973l-1.829 5.563c1.634.499 2.822 1.996 2.822 3.765 0 .886-.302 1.701-.805 2.358l4.705 3.575a9.647 9.647 0 0 0 2.043-5.933c-.002-4.364-2.919-8.069-6.936-9.328z"/><path d="M92.123 85.488c-2.209 0-4.007-1.767-4.007-3.941 0-2.172 1.798-3.939 4.007-3.939.412 0 .81.062 1.186.176l1.826-5.563a10.076 10.076 0 0 0-3.012-.46c-5.484 0-9.948 4.391-9.948 9.786 0 5.397 4.464 9.788 9.948 9.788a9.994 9.994 0 0 0 7.906-3.855l-4.704-3.572a4.021 4.021 0 0 1-3.202 1.58zM93.284 49h-.002c-5.394 0-9.767 4.415-9.767 9.628s4.373 9.409 9.766 9.409c5.392 0 10.046-4.037 10.048-9.037H93.33l-.046-10z"/><path d="M95 48.25V58h10v-.75c0-5.214-5-8.998-10-9zM59.45 84.813l-.022.856.354.148.35-1.025-.088-.429zM50.664 74.055l-.612-.162-.757.785.973 2.464.46.11.035-.801.312-.185.019-.305.32-.588-.225-.442zM66.197 83.538l.705.13.327-.975-.192-.16-.947.582zM69.49 84.199l-.09.686-.595-.212.111-.369-.653-.053-.845.766-.896.317.216 1.185-.08.238.326.183 1.33-.32.516.291.244-.132.162.481.678.183.491-.289.271-1.425-.735-.712zM49.703 83.916l-1.115-.808-1.657-.161-.248.391-.333-.108-.168-.604-.495-.032.207-.574-.415-.04-.415.324-.288-.406.248-.683 1.121-.161.385.563.47-.039v-.524l.606-1.049.904-.526 1.238-.56-.933-1.978-.426.242-.335-.885-.791.039-.207 1.571-.293.041-1.199-1.249.219-.646L47 75.813v-1.534l-3.079.325-1.602-.928-.74.685-2.027-1.088-1.115.884.416.843h-.457l-.124.206.621-.04-.621.424.206.654.539.108-.868.677 1.366-.647.746-.407 1.494.726L43 78.271v1.412l.287 1.046.807 1.453 1.087.402.46.242.559.727.397-.062-.448.708.367 1.449.786.685-.952 3.748.333.808.949.242-.577-.606.786-1.449 1.696-1.413.127-.644.828-.123.829-1.65-1.45-.687zM53.913 76.261h.396l.175-.513v.77l.551-.235.154-.235-.593-1.114-.353.238.022.298-.33.387z"/><path d="M66.328 73.25s-4.803.634-7.207.88l-2.087-.373-.835.448-.331.793-.396.297-.021.663.221.129.46-.258.22.686.397-.151.266-.684-.266-.278.241-.511.285-.344.172.025-.161.402-.186.129.068.162-.013.026.021.003.162.385.463-.129.159.185-.511.159.11.405-.332-.107-.241.6-.856-.021-.152-.427-.199.257.067.277-.306.022-.375.49-.681.215.178.365.283.447-.9-.062.044.854.703.105.463-.705.659-.322.285.322.394.514.288-.323-.55-.362-.023-.342.264.128.441.342-.022.342.33.407.153-.513.176.086.241.406.745.122-.122.394-.279.164-1.078-.27-.271.369-.705-.447-.111-.446-1.737.288-.896 1.057-.164 1.428.925.871 1.655-.105.488 1.479-.19.847.787 1.85.896-.159.896-1.639.488-.369-.135-1.135.869-.767.271-.927-.869.397-.888-1.977.183-.031.871 1.664 1.682-.977-.571-.422-.434.21-.271-.633.19-.106.379.316 1.305.237.542.635.882 1.188.776-.365v-.452l.665-.715.183.791.211-.075.017.79.302.579-.716-.342.507.714.567.527 1.356.237-.732-.289-.545-.186-.189-.845-.436-.477.016-.478.502.505.488-.396-.461-.661.217-.344 1.006-.054.459-.818-.325-.897.409-.422.297.397.111.502.352-.186-.135-.556.299-.422.488-.079.568-1.532-.486-.344.677-.635.897.054.732-.581.57-.08-.924 1.083.027.952.707-.847-.027-.607.732-.157.977-.529-.271-.739-6.764-1.171zM59.1 78.846l-.483-.128-.661.105-.152-.276.354-.598 1.141.576-.199.321zm.792.363l.108-.405-.24-.599.682-.363v.319l-.266.107.222.32.107.663-.613-.042z"/><path d="M69.699 77h-.191l-.028 1.09-.488 1.073-.623.482-.028.414 1.139-.652.056-.682.38-.341-.299-.236.161-.694zM72.631 86.866l.08.738-.84.768.541.054.487-.715.381-.5-.244-.027zM68.367 83.272l.733.742.42.027.177-.159.6.369-.244-.503-1.115-.525z"/></g></svg>