<svg xmlns="http://www.w3.org/2000/svg" xmlns:xlink="http://www.w3.org/1999/xlink" version="1" viewBox="0 0 149 186.25"><path fill-rule="evenodd" clip-rule="evenodd" fill="#FFF" d="M61.624 53.373h.494v2.3h-.494zM59.785 52.417h.494v3.256h-.495zM57.826 53.373h.494v2.3h-.494z"/><path fill="#FFF" d="M74.505 146.424c-39.66 0-71.924-32.266-71.924-71.924 0-39.66 32.266-71.924 71.925-71.924 39.658 0 71.924 32.265 71.924 71.924 0 39.658-32.267 71.924-71.925 71.924zm0-138.854C37.6 7.57 7.575 37.594 7.575 74.5c0 36.904 30.024 66.93 66.93 66.93 36.904 0 66.93-30.025 66.93-66.93 0-36.906-30.026-66.93-66.93-66.93z"/><defs><path id="j" d="M98.433 56.428H49.17c-6.302 0-11.413-5.035-11.413-11.246 0-6.16 5.02-11.158 11.25-11.245a9.607 9.607 0 0 1-.026-.66c0-5.125 4.215-9.28 9.416-9.28 1.65 0 3.203.42 4.55 1.156C65.023 19.246 70.714 15 77.417 15c8.456 0 15.31 6.757 15.31 15.09 0 .113-.005.225-.007.337a13.906 13.906 0 0 1 5.62-1.18c7.614 0 13.788 6.085 13.788 13.592 0 7.473-6.123 13.535-13.695 13.588z"/></defs><use xlink:href="#j" overflow="visible" fill-rule="evenodd" clip-rule="evenodd" fill="#FFF"/><defs><path id="i" d="M87.07 51.276c.06-.14.09-.292.09-.453 0-.162-.03-.315-.09-.455h5.58v.908h-5.58zm1.725-3.86h-9.998a1.562 1.562 0 0 1-1.568-1.555c0-.86.703-1.556 1.567-1.556h9.998c.866 0 1.568.696 1.568 1.557 0 .86-.702 1.557-1.568 1.557zm-9.998-2.14a.587.587 0 0 0-.587.584.59.59 0 0 0 1.177 0 .59.59 0 0 0-.59-.584zm9.998-1.75h-9.998a1.563 1.563 0 0 1-1.568-1.557c0-.86.703-1.558 1.567-1.558h9.998c.866 0 1.568.696 1.568 1.557 0 .86-.702 1.555-1.568 1.555zm-9.998-2.142c-.323 0-.587.263-.587.585s.264.582.587.582c.325 0 .59-.26.59-.583s-.265-.586-.59-.586zm9.998-1.75h-9.998a1.563 1.563 0 0 1-1.568-1.557c0-.86.703-1.556 1.567-1.556h9.998a1.56 1.56 0 0 1 1.568 1.557 1.56 1.56 0 0 1-1.568 1.556zm-9.998-2.14a.587.587 0 0 0-.587.584c0 .322.264.583.587.583.325 0 .59-.26.59-.582a.587.587 0 0 0-.59-.584zm9.998-1.752h-9.998a1.563 1.563 0 0 1-1.568-1.557c0-.86.703-1.555 1.567-1.555h9.998a1.56 1.56 0 0 1 1.568 1.555c0 .86-.702 1.557-1.568 1.557zm-9.998-2.14a.586.586 0 0 0-.587.583.587.587 0 0 0 1.177 0 .588.588 0 0 0-.59-.583zm1.634 17.22c0 .16.033.313.092.454h-5.58v-.908h5.58c-.06.14-.09.293-.09.455zm1.863-1.2h.327v-1.556h2.352v1.557h.327c.667 0 1.208.536 1.208 1.2 0 .663-.54 1.2-1.21 1.2h-3.005a1.202 1.202 0 0 1-1.207-1.2c0-.664.54-1.2 1.207-1.2zm-12.93 1.654a1.18 1.18 0 0 0 0-.908h5.58v.908h-5.58zm1.725-3.86H61.09a1.56 1.56 0 0 1-1.567-1.555c0-.86.702-1.556 1.568-1.556h9.998c.866 0 1.568.696 1.568 1.557 0 .86-.702 1.557-1.568 1.557zm-9.997-2.14a.586.586 0 0 0-.587.584.587.587 0 0 0 1.175 0 .586.586 0 0 0-.587-.584zm9.998-1.75H61.09a1.56 1.56 0 0 1-1.567-1.557c0-.86.702-1.558 1.568-1.558h9.998c.866 0 1.568.696 1.568 1.557 0 .86-.702 1.555-1.568 1.555zm-9.997-2.142c-.324 0-.587.263-.587.585s.264.582.588.582a.585.585 0 1 0 0-1.168zm9.998-1.75H61.09a1.56 1.56 0 0 1-1.567-1.557c0-.86.702-1.556 1.568-1.556h9.998a1.56 1.56 0 0 1 1.568 1.557 1.56 1.56 0 0 1-1.568 1.556zm-9.997-2.14a.586.586 0 0 0-.587.584c0 .322.264.583.588.583s.588-.26.588-.582a.585.585 0 0 0-.587-.584zm9.998-1.752H61.09a1.56 1.56 0 0 1-1.567-1.557c0-.86.702-1.555 1.568-1.555h9.998a1.56 1.56 0 0 1 1.568 1.555c0 .86-.702 1.557-1.568 1.557zm-9.997-2.14a.586.586 0 0 0-.587.583.588.588 0 0 0 1.175 0 .585.585 0 0 0-.587-.583zm1.635 17.22c0 .16.032.313.09.454h-5.58v-.908h5.58c-.058.14-.09.293-.09.455zm1.86-1.2h.327v-1.556h2.353v1.557h.328c.667 0 1.21.536 1.21 1.2 0 .663-.543 1.2-1.21 1.2h-3.006c-.667 0-1.21-.537-1.21-1.2 0-.664.542-1.2 1.21-1.2z"/></defs><use xlink:href="#i" overflow="visible" fill="#FFF"/><defs><path id="h" d="M113.456 113.727c-9.535 0-17.266-7.697-17.266-17.19 0-9.492 7.73-17.188 17.266-17.188 9.534 0 17.264 7.695 17.264 17.188 0 9.49-7.73 17.19-17.264 17.19zm0-31.734c-8.068 0-14.608 6.51-14.608 14.544s6.54 14.544 14.608 14.544 14.608-6.51 14.608-14.543-6.54-14.544-14.608-14.544z"/></defs><use xlink:href="#h" overflow="visible" fill-rule="evenodd" clip-rule="evenodd" fill="#FFF"/><defs><path id="g" d="M35.544 113.727c-9.534 0-17.264-7.697-17.264-17.19 0-9.492 7.73-17.188 17.264-17.188 9.536 0 17.265 7.695 17.265 17.188 0 9.49-7.73 17.19-17.266 17.19zm0-31.734c-8.068 0-14.608 6.51-14.608 14.544s6.54 14.544 14.608 14.544c8.07 0 14.61-6.51 14.61-14.543s-6.54-14.544-14.61-14.544z"/></defs><use xlink:href="#g" overflow="visible" fill-rule="evenodd" clip-rule="evenodd" fill="#FFF"/><defs><path id="f" d="M74.5 134c-9.534 0-17.264-7.696-17.264-17.19s7.73-17.187 17.264-17.187c9.536 0 17.265 7.695 17.265 17.188S84.035 134 74.5 134zm0-31.732c-8.068 0-14.608 6.51-14.608 14.543 0 8.034 6.54 14.547 14.608 14.547 8.068 0 14.607-6.513 14.607-14.546 0-8.032-6.54-14.542-14.607-14.542z"/></defs><use xlink:href="#f" overflow="visible" fill-rule="evenodd" clip-rule="evenodd" fill="#FFF"/><g><defs><path id="e" d="M73.17 100.503V56.43h2.66v44.073h-2.66zm-8.85-28.207V56.43h2.654v15.866H64.32zm17.705 0V56.43h2.657v15.866h-2.657zm0 0v-2.644h32.76v2.644h-32.76zm0 0V56.43h2.657v15.866h-2.657zm-47.808 0v-2.644h32.758v2.644H34.217zm77.91 7.934V69.652h2.658V80.23h-2.657zm-77.91 0V69.652h2.656V80.23h-2.656z"/></defs><use xlink:href="#e" overflow="visible" fill="#FFF"/></g><g><defs><path id="d" d="M83.44 124.103H65.567c-.69 0-1.248-.546-1.248-1.22v-12.344c0-.676.56-1.22 1.248-1.22h17.87c.69 0 1.247.544 1.247 1.22v12.342c0 .675-.558 1.22-1.246 1.22zm-.312-13.427h-17.25v12.07h17.25v-12.07zm-11.81 13.773s4.286-.016 6.445 0c.224 2.065 2.074 2.046 2.074 2.046v.456h-10.59s-.003-.173 0-.456c2.115 0 2.07-2.047 2.07-2.047z"/></defs><use xlink:href="#d" overflow="visible" fill-rule="evenodd" clip-rule="evenodd" fill="#FFF"/></g><g><defs><path id="c" d="M114.914 103.148h-8.222a.754.754 0 0 1-.76-.746v-9.97c0-.41.34-.743.76-.743h8.222c.42 0 .76.333.76.742v9.97c0 .412-.34.746-.76.746zm-4.11-.25a.42.42 0 0 0 .422-.412.417.417 0 0 0-.423-.413.417.417 0 0 0-.42.413c0 .228.186.413.42.413zm.864-10.877h-1.73a.126.126 0 0 0-.126.124c0 .07.058.125.126.125h1.73c.07 0 .127-.057.127-.126a.124.124 0 0 0-.127-.123zm3.205.62h-8.14v9.144h8.14V92.64z"/></defs><use xlink:href="#c" overflow="visible" fill-rule="evenodd" clip-rule="evenodd" fill="#FFF"/></g><g><defs><path id="b" d="M121.517 103.152h-3.727a.356.356 0 0 1-.352-.358V95.57c0-.197.157-.357.352-.357h3.727c.193 0 .35.16.35.357v7.224a.356.356 0 0 1-.35.358zm-1.83-.358a.426.426 0 0 0 .423-.43.426.426 0 0 0-.422-.43.425.425 0 0 0-.42.43c0 .238.187.43.42.43zm1.69-6.51h-3.447v5.295h3.446v-5.295z"/></defs><use xlink:href="#b" overflow="visible" fill-rule="evenodd" clip-rule="evenodd" fill="#FFF"/></g><g><defs><path id="a" d="M44.846 101.795c0 .748-.638 1.354-1.423 1.354H28.557c-.786 0-1.424-.606-1.424-1.355v-.17h1.46c-.507-.055-.905-.45-.905-.948v-9.783c0-.533.454-.967 1.016-.967h14.57c.563 0 1.02.434 1.02.967v9.783c0 .498-.4.894-.907.948h1.46v.17zm-3.282.976c.24 0 .436-.184.436-.41a.424.424 0 0 0-.436-.414.426.426 0 0 0-.436.413c0 .227.196.41.436.41zm-7.313.08h3.48v-.68h-3.48v.68zm8.77-11.847H28.96v9.567H43.02v-9.567zm-.27 10.943a.425.425 0 0 0-.435.413c0 .227.195.41.435.41s.435-.184.435-.41a.425.425 0 0 0-.435-.414z"/></defs><use xlink:href="#a" overflow="visible" fill-rule="evenodd" clip-rule="evenodd" fill="#FFF"/></g></svg>