<svg xmlns="http://www.w3.org/2000/svg" xmlns:xlink="http://www.w3.org/1999/xlink" version="1" viewBox="0 0 149 186.25"><path fill-rule="evenodd" clip-rule="evenodd" fill="#FFF" d="M61.624 53.373h.494v2.301h-.494zM59.785 52.417h.494v3.256h-.494zM57.826 53.373h.494v2.301h-.494z"/><path fill="#FFF" d="M74.505 148.424C33.742 148.424.581 115.261.581 74.5.581 33.737 33.743.576 74.505.576c40.761 0 73.924 33.162 73.924 73.924 0 40.761-33.163 73.924-73.924 73.924zm0-142.716c-37.932 0-68.792 30.86-68.792 68.792 0 37.931 30.859 68.792 68.792 68.792 37.931 0 68.792-30.861 68.792-68.792 0-37.932-30.861-68.792-68.792-68.792z"/><path fill="#FFF" d="M91.7 107.791C83.979 108.02 77.78 112 77.37 118H54.46s.02-.57.04-1.811c9.19 0 9.05-8.818 9.05-8.818s18.7-.061 28.089 0c.021.14.031.279.061.42z"/><g fill="#FFF"><path d="M51.245 45.551c.61.585 1.943 1.449 3.601 3.449h22.001c.159-2 .286-2.911.352-3.573C74.862 44.979 72.733 44 70.914 43H53.142c-.548 1-1.18 1.738-1.897 2.551zM80.878 100H57.395c-1.567 3-2.9 5-3.74 6h26.386c.562 0 1.146-.707 1.754-1.018-.121-.655-.465-1.982-.917-4.982zM107.288 100.997c0-.33.022.003.041-.997H88.604c.465 2 .812 2.52.967 2.967.531-.041 1.062-.157 1.59-.157 4.011 0 7.581 1.19 10.18 3.19h6.759c-.534-1-.812-3.243-.812-5.003zM84.246 49h17.301c-.028-1-.057-.696-.057-1.043 0-1.76.403-3.957 1.14-4.957H91.302c-1.744 1-3.777 1.908-6.014 2.37-.139.483-.525 1.63-1.042 3.63zM48.28 100h-6.063c1.539 1 3.063 1.066 4.512 1.922.262-.326.807-.922 1.551-1.922zM120 83.115V64.743c-2-.05-4-.464-6-1.202v23.17c1-.859 1.955-1.624 3.019-2.246a16.03 16.03 0 0 1 2.981-1.35zM41.161 100.094c-.189-.183-.161-.436-.161-.718V76.232c0 .032-.465.062-.583.085.026.412.111.822.111 1.229 0 5.386-2.528 9.976-5.528 12.512v9.317c0 .283-.126.562-.093.836a13.081 13.081 0 0 1 3.292-.423c.978.001 1.97.109 2.962.306zM38.507 68.467c.379-.011 1.493-.038 2.493-.075V51.559c-1 .313-2.656.475-3.973.475-.695 0-1.027-.061-2.027-.15v11.599c1 1.403 2.587 3.087 3.507 4.984z"/></g><defs><path id="a" d="M113.477 61.201l-23.118 4.948 19.402-7.193c-5.745-4.439-7.954-11.445-4.891-16.293 3.305-5.228 11.482-5.964 18.267-1.641 6.784 4.321 9.604 12.063 6.301 17.293-2.939 4.648-9.725 5.734-15.961 2.886zm9.027-17.477c0-.397-.356-.721-.795-.721h-8.412c-.439 0-.794.324-.794.721v14.56c0 .397.354.72.794.72h8.412c.438 0 .795-.322.795-.72v-14.56zm-8.89 1.441h7.777v10.667h-7.777V45.165zm3.968 11.388c.525 0 .952.387.952.865 0 .479-.427.866-.952.866s-.952-.387-.952-.866c0-.478.427-.865.952-.865zM83.713 43.239l-6.579 22.91 2.243-22.806c-7.22-.658-12.822-5.385-12.822-11.127 0-6.191 6.512-11.212 14.547-11.212 8.034 0 14.546 5.021 14.546 11.212-.001 5.506-5.15 10.074-11.935 11.023zM74.43 29.173a.303.303 0 0 0-.308-.296h-1.081a.303.303 0 0 0-.309.296v4.824c0 .164.138.298.309.298h1.081a.304.304 0 0 0 .308-.298v-4.824zm.12 5.343l1.617 4.008a.501.501 0 0 0 .43.296h1.775c.172 0 .256-.132.189-.296l-1.617-4.008a.505.505 0 0 0-.43-.296h-1.775c-.172 0-.256.134-.189.296zm4.282-5.045a.304.304 0 0 0-.308-.298h-3.399a.304.304 0 0 0-.308.298v4.155c0 .165.138.298.308.298h3.399a.304.304 0 0 0 .308-.298v-4.155zm7.183-2.628c0-.355-.293-.513-.635-.361l-5.783 2.553c-.083.036-.146.197-.146.361v4.375c0 .165.063.326.146.361l5.783 2.555c.342.149.635-.008.635-.363v-9.481zm1.699-.118a.302.302 0 0 0-.309-.296h-.695a.303.303 0 0 0-.31.296v9.723c0 .163.139.296.31.296h.695a.303.303 0 0 0 .309-.296v-9.723zM48.402 45.222l18.152 17.387-21.663-14.833c-6.317 3.572-13.601 2.872-16.845-1.857-3.5-5.099-.974-12.943 5.643-17.519 6.615-4.578 14.815-4.153 18.314.946 3.11 4.532 1.451 11.228-3.601 15.876zM38.196 29.253l-.506-.212a.55.55 0 0 0-.716.296l-1.828 4.396a.548.548 0 0 0 .295.718l.506.211a.546.546 0 0 0 .716-.294l1.83-4.396a.552.552 0 0 0-.297-.719zm6.812 4.552l-1.819-4.388a.542.542 0 0 0-.713-.294l-.503.21a.55.55 0 0 0-.293.718l1.817 4.387c.117.28.436.412.714.295l.503-.21a.55.55 0 0 0 .294-.718zm3.495.591a.916.916 0 0 0-.915-.917h-2.125l.257.621a.55.55 0 0 1-.293.718l-1.511.633a.544.544 0 0 1-.713-.296l-.693-1.675h-4.884l-.667 1.607a.55.55 0 0 1-.718.296l-1.517-.635a.55.55 0 0 1-.296-.718l.229-.55h-2.24a.915.915 0 0 0-.913.917v1.281c0 .506.408.917.913.917h.016l1.291 5.967c.052.246.342.442.646.442h11.206c.305 0 .593-.197.646-.442l1.291-5.967h.075a.916.916 0 0 0 .915-.917v-1.282zm-4.029 7.393c-.317 0-.545-.213-.51-.482l.458-3.464c.046-.34.379-.622.746-.622.366 0 .615.282.557.622l-.593 3.464c-.046.268-.341.482-.658.482zm-2.874 0c-.317 0-.566-.213-.557-.482l.124-3.464c.012-.34.318-.622.684-.622s.643.282.617.622l-.257 3.464c-.02.268-.294.482-.611.482zm-3.064 0c-.317 0-.589-.213-.607-.482l-.235-3.464c-.024-.34.254-.622.621-.622s.671.282.682.622l.099 3.464c.008.268-.242.482-.56.482zm-2.873 0c-.317 0-.609-.213-.654-.482l-.57-3.464c-.055-.34.195-.622.56-.622.366 0 .7.282.743.622l.436 3.464c.033.268-.198.482-.515.482zm1.265 28.718l26.981-.817-25.826 5.014c1.12 7.191-2.081 13.798-7.627 15.196-5.983 1.508-12.417-3.614-14.373-11.438-1.957-7.824 1.308-15.39 7.291-16.897 5.317-1.339 10.985 2.565 13.554 8.942zm-6.301.378c.119-.308.781-3.036-1.249-4.598-1.519-1.169-2.139-1.283-2.139-1.283s-.617.114-2.136 1.283c-2.029 1.562-1.366 4.29-1.247 4.598.12.308-.303.423-.213 1.141.091.718.565.762.57.783.204.77.718 1.592.926 1.818.208.227.487.711.072 1.462-.782 1.408-2.394 1.311-3.775 2.209-1.382.898-.819 3.458-.819 3.458 2.505 1.571 6.623 1.211 6.623 1.211s4.124.36 6.631-1.211c0 0 .565-2.56-.819-3.458-1.385-.898-2.997-.801-3.778-2.209-.417-.751-.139-1.236.07-1.462.208-.226.723-1.048.928-1.818.005-.021.479-.065.57-.783.09-.718-.335-.834-.215-1.141zm16.521 34.076l22.05-27.304-18.85 30.239c4.759 5.491 5.548 12.796 1.591 16.941-4.267 4.472-12.428 3.571-18.229-2.009-5.801-5.581-7.043-13.731-2.776-18.202 3.793-3.973 10.66-3.694 16.214.335zm1.033 12.488c2.139-2.836 1.628-6.909-1.141-9.097-2.771-2.188-6.75-1.661-8.891 1.177-2.139 2.836-1.628 6.909 1.143 9.098 2.769 2.186 6.75 1.66 8.889-1.178zm-11.527 4.764c.676.533 1.605.788 1.605.788l2.066-2.738s-.824-.31-1.5-.843c-.704-.556-1.26-1.337-1.26-1.337l-2.066 2.74c.001 0 .452.833 1.155 1.39zm3.11-11.376c1.452-1.926 4.156-2.284 6.037-.798 1.882 1.484 2.229 4.251.775 6.178-1.453 1.928-4.155 2.284-6.037.8-1.881-1.487-2.229-4.252-.775-6.18zm44.277-4.315l-5.145-27.979 9.315 26.791c7.155-1.174 13.756 1.997 15.186 7.558 1.54 5.996-3.517 12.491-11.296 14.505-7.78 2.016-15.336-1.211-16.876-7.207-1.369-5.331 2.482-11.046 8.816-13.668zm4.963 17.486c4.191 0 7.502-3.311 7.502-7.504 0-4.194-3.311-7.504-7.502-7.504-4.194 0-7.504 3.31-7.504 7.504 0 4.193 3.31 7.504 7.504 7.504zm-3.379-11.167c-.44 1.191-.704 2.384-.75 3.332h-2.67c.066-1.655.684-3.134 1.699-4.26.463.332 1.061.64 1.721.928zm0 7.326c-.66.288-1.258.596-1.721.928-1.016-1.126-1.633-2.604-1.699-4.261h2.67c.022.929.288 2.142.75 3.333zm1.48 2.868c-1.037-.242-1.965-.771-2.738-1.478a7.33 7.33 0 0 1 1.503-.839c.308.84.728 1.634 1.235 2.317zm1.567-3.022v3.311c-.222 0-.441-.022-.685-.066-.618-.815-1.147-1.787-1.545-2.78a8.296 8.296 0 0 1 2.23-.465zm-3.135-3.179h3.135v2.494c-.751.044-1.612.266-2.45.619-.398-1.059-.641-2.12-.685-3.113zm.685-3.773c.838.354 1.699.574 2.45.618v2.494h-3.135c.044-1.036.287-2.073.685-3.112zm1.765-3.31c.243-.044.463-.067.685-.067v3.312a8.236 8.236 0 0 1-2.252-.486 13.44 13.44 0 0 1 1.567-2.759zm-3.62 1.699a6.434 6.434 0 0 1 2.738-1.501 10.557 10.557 0 0 0-1.259 2.316 7.701 7.701 0 0 1-1.479-.815zm7.217 1.059a8.178 8.178 0 0 1-2.25.486v-3.312c.22 0 .441.023.684.067a13.398 13.398 0 0 1 1.566 2.759zm.884 3.664h-3.134v-2.494c.751-.044 1.61-.265 2.448-.618.398 1.039.642 2.076.686 3.112zm-.686 3.774c-.838-.354-1.697-.575-2.448-.619v-2.494h3.134c-.044.993-.288 2.054-.686 3.113zm-1.764 3.31a3.78 3.78 0 0 1-.684.066v-3.311a8.317 8.317 0 0 1 2.229.464 12.153 12.153 0 0 1-1.545 2.781zm3.619-1.699c-.771.706-1.699 1.235-2.736 1.478a9.238 9.238 0 0 0 1.235-2.316 7.265 7.265 0 0 1 1.501.838zm-.508-4.724h2.672c-.067 1.656-.686 3.135-1.7 4.261-.464-.332-1.06-.64-1.722-.928.464-1.191.728-2.404.75-3.333zm-.75-3.993c.662-.288 1.258-.596 1.722-.928 1.015 1.126 1.633 2.604 1.7 4.26h-2.672c-.044-.948-.31-2.141-.75-3.332zm-1.479-2.892a6.415 6.415 0 0 1 2.736 1.501 7.63 7.63 0 0 1-1.478.815 10.513 10.513 0 0 0-1.258-2.316zm-.542-32.292l22.289 13.527c4.178-5.948 11.056-8.458 16.009-5.586 5.341 3.097 6.414 11.27 2.397 18.255-4.018 6.986-11.604 10.14-16.944 7.043-4.749-2.753-6.115-9.514-3.539-15.891L90.358 77.657zm27.12 17.458a.679.679 0 0 0-.672-.685h-2.421a.68.68 0 0 0-.673.685v5.88c0 .378.302.684.673.684h2.421a.678.678 0 0 0 .672-.684v-5.88zm4.84-6.427a.679.679 0 0 0-.673-.684h-2.419a.678.678 0 0 0-.673.684v12.444c0 .378.3.684.673.684h2.419a.679.679 0 0 0 .673-.684V88.688zm4.84 3.145a.68.68 0 0 0-.673-.685h-2.419a.679.679 0 0 0-.672.685v9.299c0 .378.301.684.672.684h2.419a.679.679 0 0 0 .673-.684v-9.299zm-14.655 11.487c0 .377.301.684.672.684h14.655a.679.679 0 0 0 .673-.684v-.41a.68.68 0 0 0-.673-.685h-14.655a.679.679 0 0 0-.672.685v.41z"/></defs><use xlink:href="#a" overflow="visible" fill-rule="evenodd" clip-rule="evenodd" fill="#FFF"/></svg>