<svg id="report" xmlns="http://www.w3.org/2000/svg" xmlns:xlink="http://www.w3.org/1999/xlink" version="1.1" x="0px" y="0px" viewBox="0 0 64 110" style="enable-background:new 0 0 64 88;" xml:space="preserve"><path d="M63,0H1C0.448,0,0,0.448,0,1v86c0,0.552,0.448,1,1,1h62c0.552,0,1-0.448,1-1V1C64,0.448,63.552,0,63,0z M62,86H2V2h60V86z"/><rect fill="none" path="#fff" x="8" y="31.5" width="48" height="1"/><rect fill="none" path="#fff" x="8" y="35.5" width="48" height="1"/><rect fill="none" path="#fff" x="8" y="39.5" width="48" height="1"/><rect x="8" y="43.5" width="44" height="1"/><path d="M56,55.5H28.184c0.467-0.181,0.906-0.406,1.278-0.702c0.765-0.61,1.202-1.4,1.325-2.298H56v-1H30.798  c-0.176-1.079-0.907-2.225-2.062-3.208c-2.028-1.729-4.762-2.536-7.317-2.16c-0.223,0.032-0.378,0.24-0.345,0.464  c0.033,0.223,0.234,0.377,0.464,0.345c2.735-0.399,5.238,0.757,6.667,1.975c0.945,0.805,1.57,1.739,1.754,2.585H19.731  c-0.054-0.214-0.087-0.425-0.085-0.627c0.007-0.615,0.388-1.546,1.206-2.133c0.516-0.37,1.397-0.724,2.658-0.315  c0.217,0.063,0.445-0.05,0.515-0.264c0.069-0.215-0.048-0.445-0.263-0.516c-1.591-0.514-2.719-0.05-3.387,0.43  c-1.055,0.758-1.537,1.946-1.547,2.788c-0.003,0.206,0.017,0.42,0.059,0.637H8v1h11.243c0.603,1.151,1.912,2.286,4.218,3H8v1h48  V55.5z M20.196,52.5h9.772c-0.116,0.643-0.456,1.211-1.017,1.658c-1.09,0.868-2.854,1.168-4.495,0.77  C22.194,54.378,20.865,53.456,20.196,52.5z"/><rect fill="none" path="#fff" x="8" y="59.5" width="48" height="1"/><rect fill="none" path="#fff" x="8" y="67.5" width="48" height="1"/><rect x="8" y="71.5" width="48" height="1"/><rect x="8" y="63.5" width="20" height="1"/><path d="M36.448,20.749c1.811,0.672,4.136,1.029,6.599,1.029c4.125,0,8.633-1.004,11.746-3.218c0.319-0.226,0.393-0.668,0.167-0.986  c-0.228-0.317-0.67-0.395-0.986-0.166c-4.54,3.227-12.62,3.65-17.034,2.015c-1.201-0.446-2.7-1.249-3.02-2.542  c-0.39-1.636,0.251-3.414,1.808-5.01c1.696-1.738,4.344-3.104,7.458-3.848c3.2-0.765,6.62-0.815,9.384-0.142  c2.653,0.647,4.383,1.892,4.74,3.383c0.146,0.752-0.01,1.442-0.477,2.111c-1.065,1.525-3.706,2.759-7.063,3.299  c-0.386,0.062-0.648,0.425-0.586,0.811c0.062,0.387,0.43,0.647,0.811,0.586c3.784-0.608,6.699-2.025,7.998-3.886  c0.679-0.972,0.923-2.075,0.7-3.22c-0.498-2.086-2.553-3.669-5.787-4.459C49.93,5.78,46.269,5.83,42.858,6.646  c-3.37,0.805-6.262,2.31-8.142,4.237c-1.907,1.954-2.678,4.201-2.169,6.331C32.917,18.718,34.267,19.94,36.448,20.749z"/><path d="M47.159,13.755c0.127-0.067,0.247-0.145,0.361-0.229c0.113-0.084,0.201-0.181,0.263-0.285  c-0.003-0.034-0.026-0.076-0.072-0.124s-0.097-0.097-0.151-0.144c-0.054-0.048-0.107-0.089-0.161-0.124  c-0.054-0.033-0.093-0.055-0.119-0.062c-0.044-0.006-0.111,0.004-0.203,0.026c-0.093,0.024-0.188,0.051-0.289,0.082  c-0.101,0.033-0.193,0.067-0.281,0.103c-0.087,0.036-0.146,0.067-0.179,0.096l-1.064-4.421c-0.091-0.078-0.196-0.093-0.316-0.041  c-0.12,0.049-0.239,0.128-0.355,0.233c-0.117,0.107-0.22,0.221-0.311,0.341c-0.089,0.122-0.149,0.213-0.18,0.274  c-0.094,0.502-0.187,0.913-0.275,1.234c-0.09,0.322-0.177,0.629-0.265,0.92c-0.087,0.292-0.178,0.601-0.271,0.928  c-0.093,0.325-0.191,0.74-0.294,1.241c-0.118,0.025-0.232,0.057-0.346,0.094c-0.112,0.038-0.214,0.087-0.304,0.148  s-0.161,0.137-0.215,0.226s-0.076,0.201-0.067,0.337c0.016,0.11,0.049,0.185,0.099,0.225c0.05,0.039,0.102,0.065,0.159,0.079  c0.056,0.012,0.11,0.023,0.162,0.032c0.052,0.01,0.088,0.039,0.108,0.089c-0.066,0.167-0.138,0.437-0.215,0.809  c-0.077,0.373-0.16,0.771-0.246,1.194c-0.087,0.424-0.168,0.834-0.244,1.231c-0.075,0.397-0.145,0.7-0.208,0.91l0.956-0.064  c0.158-0.702,0.295-1.297,0.411-1.787s0.215-0.897,0.296-1.223c0.08-0.325,0.148-0.579,0.205-0.763  c0.055-0.183,0.1-0.32,0.132-0.412s0.056-0.15,0.071-0.177s0.027-0.04,0.035-0.041c0.059-0.013,0.169-0.039,0.328-0.08  c0.159-0.04,0.327-0.08,0.503-0.117c0.178-0.037,0.344-0.072,0.499-0.104s0.268-0.051,0.336-0.056  c0.064,0.202,0.115,0.452,0.152,0.752c0.037,0.301,0.074,0.616,0.108,0.946c0.035,0.331,0.076,0.66,0.124,0.989  c0.048,0.33,0.118,0.622,0.212,0.876c0.095,0.254,0.219,0.459,0.374,0.615c0.156,0.155,0.356,0.226,0.604,0.209  c-0.051-0.747-0.118-1.529-0.202-2.349c-0.086-0.817-0.229-1.595-0.433-2.331c0.108-0.042,0.231-0.086,0.369-0.134  S47.03,13.823,47.159,13.755z M43.964,13.738c0.011-0.095,0.041-0.249,0.091-0.466c0.049-0.216,0.127-0.553,0.233-1.009  c0.105-0.454,0.255-1.093,0.447-1.916c0.028,0.168,0.074,0.388,0.14,0.655c0.065,0.269,0.131,0.546,0.197,0.832  c0.065,0.285,0.127,0.561,0.183,0.825c0.057,0.267,0.099,0.479,0.126,0.638l0.007,0.103L43.964,13.738z"/><path d="M31.098,47.121c-0.216-0.058-0.442,0.069-0.502,0.287c-0.172,0.636-0.041,1.331,0.351,1.86  c0.067,0.091,0.168,0.149,0.28,0.163c0.016,0.002,0.032,0.003,0.048,0.003c0.096,0,0.188-0.033,0.263-0.096  c0.42-0.352,0.729-0.791,0.97-1.255c0.037,0.225,0.082,0.448,0.133,0.671c0.034,0.145,0.143,0.259,0.285,0.3  c0.142,0.04,0.296,0.002,0.401-0.102c0.324-0.32,0.635-0.657,0.927-1.004c0.376,0.246,0.853,0.28,1.123,0.3l3.369,0.243  c0.225,0.03,0.421-0.153,0.438-0.379s-0.153-0.421-0.379-0.438l-3.369-0.243c-0.335-0.024-0.736-0.079-0.85-0.29  c-0.065-0.121-0.188-0.201-0.325-0.213c-0.136-0.013-0.271,0.046-0.356,0.153c-0.194,0.247-0.399,0.488-0.612,0.724  c-0.077-0.512-0.113-1.029-0.108-1.546c0.001-0.202-0.145-0.376-0.344-0.408c-0.199-0.023-0.393,0.088-0.455,0.28  c-0.227,0.709-0.498,1.561-0.999,2.191c-0.06-0.229-0.062-0.475-0.001-0.701C31.445,47.404,31.316,47.18,31.098,47.121z"/><path d="M49.982,61.883c-0.153-0.164-0.412-0.173-0.577-0.021c-0.016,0.015-1.593,1.435-5.538,1.724  c-0.226,0.017-0.395,0.213-0.378,0.438c0.016,0.215,0.195,0.379,0.407,0.379c0.01,0,0.02-0.001,0.03-0.001  c4.269-0.312,5.969-1.878,6.039-1.944C50.129,62.304,50.136,62.047,49.982,61.883z"/><path d="M49.857,64.308c0.043,0.015,0.086,0.021,0.129,0.021c0.171,0,0.331-0.108,0.388-0.28l0.848-2.541  c0.041-0.122,0.021-0.255-0.05-0.36c-0.072-0.105-0.19-0.172-0.317-0.178l-2.712-0.136c-0.216-0.035-0.418,0.162-0.429,0.388  s0.163,0.418,0.388,0.429l2.174,0.109l-0.677,2.03C49.527,64.005,49.643,64.236,49.857,64.308z"/><rect fill="none" path="#fff" x="8" y="19" width="16" height="2"/><rect fill="none" path="#fff" x="8" y="23.5" width="24" height="1"/><path fill="none" path="#fff" d="M58.015,31.415c-0.075-0.02-0.152-0.03-0.229-0.032c-0.149-0.036-0.304-0.002-0.421,0.086  c-0.034,0.016-0.066,0.032-0.098,0.052c-0.219,0.133-0.303,0.41-0.193,0.642c0.007,0.015,0.014,0.029,0.021,0.045  c-0.002,0.132,0.014,0.265,0.048,0.393c0.016,0.057,0.041,0.109,0.073,0.156c0.019,0.458-0.146,0.932-0.465,1.249  c-0.196,0.194-0.197,0.511-0.002,0.707c0.098,0.099,0.226,0.147,0.354,0.147c0.127,0,0.255-0.049,0.353-0.146  c0.54-0.536,0.807-1.321,0.754-2.079c0.044-0.058,0.083-0.121,0.114-0.188c0.107-0.233,0.117-0.499,0.028-0.729  C58.294,31.569,58.169,31.457,58.015,31.415z"/><path d="M13.012,78.521c0,0.276,0.224,0.5,0.5,0.5s0.5-0.224,0.5-0.5c0-0.673,0.613-1.395,1.36-2.021h0.26  c0.657,0.813,1.194,1.752,1.429,2.238c0.086,0.179,0.265,0.282,0.451,0.282c0.073,0,0.147-0.016,0.217-0.05  c0.249-0.12,0.353-0.419,0.232-0.668c-0.088-0.183-0.478-0.96-1.067-1.803H56v-1H16.778c0.379-0.232,0.719-0.416,0.952-0.529  c0.249-0.12,0.353-0.419,0.232-0.668c-0.12-0.248-0.418-0.354-0.667-0.232c-0.172,0.083-0.87,0.433-1.653,0.963  c-0.635-0.584-1.36-1.013-2.13-1.013c-0.276,0-0.5,0.224-0.5,0.5s0.224,0.5,0.5,0.5c0.371,0,0.757,0.188,1.133,0.479H8v1h5.922  C13.39,77.108,13.012,77.795,13.012,78.521z"/></svg>
