<svg xmlns="http://www.w3.org/2000/svg" viewBox="0 0 330 60"><defs><style>.cls-1{fill:url(#linear-gradient)}.cls-2{fill:#fff}</style><linearGradient id="linear-gradient" x1="6683.63" y1="33.01" x2="6771.19" y2="33.01" gradientTransform="matrix(-1 0 0 1 6973.63 0)" gradientUnits="userSpaceOnUse"><stop offset="0" stop-color="#00aeef"/><stop offset="1" stop-color="#1a7fc3"/></linearGradient></defs><title>icons</title><path class="cls-1" d="M202.44 25.19h82.39L290 40.83h-82.27l-5.29-15.64z"/><path class="cls-2" d="M213.64 30.5l-.18 7.32h-1.13l.31-9h1.48l2.6 7 2.6-7h1.48l.31 9H220l-.18-7.32-2.31 6.16h-1.57zm17.67-1.71h5.32v1h-4.15v2.83h3.85v1h-3.85v3.07h4.16v1h-5.33v-9zm18.5 0c2.21 0 2.9 1.15 2.9 2.59v3.85c0 1.44-.69 2.59-2.9 2.59h-3.16v-9h3.16zm-2 8h2c1.37 0 1.78-.57 1.78-1.63v-3.7c0-1.06-.41-1.63-1.78-1.63h-2v6.94zM264 37.82h-1.17v-9H264v9zm17.29 0h-1.18l-.75-2.17h-3.84l-.73 2.17h-1.18l3.05-9h1.57zm-3.84-8.19l-1.61 5h3.23zM56.63 22.29a.25.25 0 0 1-.28.27h-6v17.95a.28.28 0 0 1-.3.32h-3.63c-.18 0-.25-.11-.25-.32V22.56h-5.92a.25.25 0 0 1-.25-.29v-2c0-.27.05-.27.28-.27h16.53a.2.2 0 0 1 .23.19v.05zm5.99 18.83c-4.71 0-7.49-2.61-7.49-7.75 0-5.59 3-8 7.49-8s7.46 2.34 7.46 8c.01 5.11-2.75 7.75-7.46 7.75zm0-13.35c-2.4 0-3.26 1.49-3.26 5.57 0 3.86.94 5.3 3.26 5.3s3.24-1.49 3.24-5.3c0-4.1-.86-5.57-3.24-5.57zm24.51 12.6a50.29 50.29 0 0 1-6.53.69c-4.58 0-7-1.54-7-6.31v-8.87a.22.22 0 0 1 .25-.27h3.69a.23.23 0 0 1 .25.24V35c0 2.56 1 3.41 3.32 3.41a10.9 10.9 0 0 0 1.9-.16.26.26 0 0 0 .23-.27V25.86a.23.23 0 0 1 .28-.24h3.67a.23.23 0 0 1 .25.27V40a.32.32 0 0 1-.31.37zm15.96.48c-1.24.08-2.58.29-4 .29C94 41.15 91 39 91 33.07s3.21-7.73 7.92-7.73c1.34 0 2.66.16 3.75.27a.25.25 0 0 1 .28.29l-.25 1.81a.27.27 0 0 1-.3.27l-2.5.02c-3.16 0-4.61 1.2-4.61 5 0 3.62 1.11 5.41 4.3 5.41h3.49c.23 0 .28.05.28.24v1.94c0 .16-.05.21-.27.26zm17.38-.29c0 .19-.05.27-.23.27h-3.72a.22.22 0 0 1-.25-.27v-9.11c0-2.66-1-3.49-3.44-3.49h-2.13a.24.24 0 0 0-.23.29v12.31a.22.22 0 0 1-.25.27h-3.72c-.18 0-.23-.08-.23-.27v-21.2a.23.23 0 0 1 .23-.27l3.69-.27a.23.23 0 0 1 .28.27v6.33a.19.19 0 0 0 .23.21h.08s2.12-.24 3.16-.24c4.38 0 6.53 1.92 6.53 6.39v8.76zm15.77-18.36a.25.25 0 0 1-.28.27h-6v18a.28.28 0 0 1-.3.32H126c-.18 0-.25-.11-.25-.32v-18h-5.91a.25.25 0 0 1-.25-.29v-2c0-.21.05-.27.28-.27h16.35a.2.2 0 0 1 .23.19v.05zM149 40.37a50.26 50.26 0 0 1-6.53.69c-4.58 0-7-1.54-7-6.31v-8.87a.22.22 0 0 1 .25-.27h3.7a.23.23 0 0 1 .25.24V35c0 2.56 1 3.41 3.31 3.41a10.9 10.9 0 0 0 1.9-.16.26.26 0 0 0 .23-.27V25.86a.22.22 0 0 1 .28-.24H149a.23.23 0 0 1 .25.27V40a.32.32 0 0 1-.25.37zm18.65.46h-3.72a.22.22 0 0 1-.25-.27v-9.14c0-2.45-.89-3.44-3.21-3.44h-2.33c-.15 0-.23.05-.23.27v12.31a.22.22 0 0 1-.25.27H154a.22.22 0 0 1-.25-.27V26.44c0-.21.07-.32.23-.32a51.87 51.87 0 0 1 7.21-.72c4.76 0 6.73 2 6.73 6.5v8.66c-.04.19-.09.27-.27.27zm17.72-6.32h-9.26c-.15 0-.23 0-.23.24 0 2.82 1.47 3.7 4.43 3.7.94 0 2.23-.11 3.47-.24h.08c.1 0 .18 0 .18.21v.05l-.25 2a.3.3 0 0 1-.28.27 34.76 34.76 0 0 1-4.41.35c-4.5 0-7.74-1.73-7.74-7.91 0-5.33 2.76-7.89 7.21-7.89 5.52 0 7.06 3.06 7.06 8.87a.24.24 0 0 1-.26.35zm-6.83-6.63c-2.3 0-2.78 1.81-2.78 4 0 .24.05.29.23.29h5a.22.22 0 0 0 .28-.27c.03-2.24-.38-4.02-2.73-4.02zm14.6 13.29a26.24 26.24 0 0 1-4.23-.37.29.29 0 0 1-.28-.29v-1.95c0-.16.08-.24.3-.24.66.05 2.3.19 3.62.19 2 0 3.21-.4 3.21-1.81 0-3.17-7.11-2.29-7.11-7.11 0-3.14 2.94-4.37 6.35-4.37a21.31 21.31 0 0 1 4.33.51.31.31 0 0 1 .3.27l-.3 1.79a.2.2 0 0 1-.2.21h-.05c-.86-.05-2.35-.19-3.24-.19-1.77 0-2.94.24-2.94 1.6 0 2.8 7.09 1.81 7.09 6.79.01 3.08-2.27 4.97-6.85 4.97z"/></svg>