<svg version="1" xmlns="http://www.w3.org/2000/svg" viewBox="0 0 72.613 100"><circle cx="23.177" cy="18.7" r="4.173"/><circle cx="49.436" cy="18.7" r="4.173"/><path d="M0 0v39.225h31.896v3.34L0 42.567V100h18.544l14.114-14.114-8.11-8.11 8.11-8.11-2.37-2.37-10.48 10.48 4.597 4.6-9.28 9.28h-6.78V50.91h55.922v40.742H57.49l-9.28-9.28 4.598-4.6-10.483-10.48-2.37 2.37 8.11 8.11-8.11 8.11L54.068 100h18.543V42.567H40.717v-3.34h31.896V0H0zm64.267 30.88H8.347V7.75h55.92v23.13z"/><path d="M29.488 77.774l6.817-6.817 6.818 6.818-6.817 6.817z"/></svg>