<?xml version="1.0" standalone="no"?>
<!DOCTYPE svg PUBLIC "-//W3C//DTD SVG 20010904//EN"
 "http://www.w3.org/TR/2001/REC-SVG-20010904/DTD/svg10.dtd">
<svg version="1.0" xmlns="http://www.w3.org/2000/svg"
 width="180.000000pt" height="180.000000pt" viewBox="0 0 180.000000 180.000000"
 preserveAspectRatio="xMidYMid meet">
<metadata>
Created by potrace 1.11, written by Peter Selinger 2001-2013
</metadata>
<g transform="translate(0.000000,180.000000) scale(0.100000,-0.100000)"
fill="#000000" stroke="none">
<path d="M1640 1706 c-19 -18 -46 -46 -59 -62 -58 -70 -716 -733 -721 -726 -3
4 -80 80 -171 170 -91 89 -164 164 -162 165 5 6 -164 167 -175 167 -6 0 -16 9
-23 21 -9 19 -6 26 33 61 l43 40 -35 -5 c-49 -6 -61 0 -51 26 6 19 7 37 2 51
0 2 -19 0 -40 -4 l-39 -7 3 43 c2 24 1 44 -2 44 -3 0 -23 -16 -45 -35 -32 -26
-46 -33 -68 -29 -20 5 -29 1 -34 -12 -6 -15 17 -42 103 -127 61 -60 111 -113
111 -117 0 -10 143 -150 167 -163 21 -12 343 -328 343 -337 0 -17 -290 -301
-325 -318 -22 -11 -76 -37 -120 -58 -64 -31 -75 -39 -55 -42 37 -4 70 -23 70
-40 0 -8 -21 -36 -47 -61 -27 -26 -83 -83 -126 -128 -42 -44 -84 -84 -92 -87
-24 -9 -29 -34 -11 -61 21 -32 39 -32 66 2 29 37 177 202 243 270 21 22 22 22
40 5 10 -10 19 -28 20 -40 3 -48 20 -20 67 109 30 86 37 96 100 166 60 66 176
196 199 222 18 20 20 18 252 -213 316 -314 294 -289 269 -311 -29 -26 -70
-114 -70 -151 0 -24 8 -39 28 -54 37 -30 112 -22 193 20 32 16 61 30 64 30 3
0 9 0 14 0 5 0 13 10 17 22 3 12 20 36 35 52 61 65 88 165 54 199 -41 41 -132
29 -227 -30 -37 -23 -38 -23 -48 -3 -6 11 -21 25 -35 32 -13 7 -128 116 -255
241 -207 204 -230 229 -218 245 15 19 9 13 105 118 39 43 80 88 90 100 47 55
141 160 163 184 14 15 77 85 140 155 63 71 142 156 176 189 50 51 94 106 82
106 -2 0 -19 -15 -38 -34z m-1347 -139 c7 3 3 -3 -7 -15 -11 -12 -24 -22 -30
-21 -6 0 -6 3 2 6 6 2 13 17 13 31 1 17 3 21 6 9 3 -10 10 -14 16 -10z m1367
-1192 c28 -9 28 -35 -1 -95 -23 -48 -59 -95 -59 -77 0 18 -62 -20 -78 -47 -17
-28 -28 -35 -68 -41 -77 -13 -93 -13 -105 1 -39 47 56 168 191 241 56 30 74
33 120 18z"/>
</g>
</svg>
