<svg xmlns="http://www.w3.org/2000/svg" xmlns:xlink="http://www.w3.org/1999/xlink" version="1.0" x="0px" y="0px" viewBox="0 0 149 186.25" enable-background="new 0 0 149 149" xml:space="preserve"><rect x="61.624" y="53.373" fill-rule="evenodd" clip-rule="evenodd" fill="#FFFFFF" width="0.494" height="2.301"/><rect x="59.785" y="52.417" fill-rule="evenodd" clip-rule="evenodd" fill="#FFFFFF" width="0.494" height="3.256"/><rect x="57.826" y="53.373" fill-rule="evenodd" clip-rule="evenodd" fill="#FFFFFF" width="0.494" height="2.301"/><path fill="#FFFFFF" d="M74.505,146.424c-39.66,0-71.924-32.266-71.924-71.924c0-39.66,32.265-71.924,71.924-71.924  c39.658,0,71.924,32.265,71.924,71.924C146.429,114.158,114.163,146.424,74.505,146.424z M74.505,7.57  c-36.906,0-66.93,30.024-66.93,66.93c0,36.904,30.024,66.931,66.93,66.931c36.904,0,66.931-30.026,66.931-66.931  C141.436,37.594,111.409,7.57,74.505,7.57z"/><g><g><defs><path id="j" d="M98.433,56.428L98.433,56.428L49.17,56.429c-6.302,0-11.413-5.036-11.413-11.247     c0-6.159,5.021-11.158,11.249-11.245c-0.015-0.218-0.025-0.438-0.025-0.66c0-5.125,4.214-9.28,9.415-9.28     c1.651,0,3.203,0.421,4.551,1.156C65.022,19.246,70.713,15,77.415,15c8.457,0,15.311,6.757,15.311,15.09     c0,0.113-0.005,0.225-0.007,0.337c1.716-0.756,3.617-1.18,5.62-1.18c7.615,0,13.789,6.085,13.789,13.592     C112.128,50.313,106.005,56.375,98.433,56.428L98.433,56.428z"/></defs><use xlink:href="#j" overflow="visible" fill-rule="evenodd" clip-rule="evenodd" fill="#FFFFFF"/><clipPath><use xlink:href="#j" overflow="visible"/></clipPath></g><g><defs><path id="i" d="M87.071,51.276c0.059-0.141,0.09-0.292,0.09-0.453c0-0.162-0.031-0.315-0.09-0.455h5.579v0.908H87.071     L87.071,51.276z M88.795,47.417h-9.998c-0.864,0-1.568-0.695-1.568-1.556c0-0.861,0.704-1.557,1.568-1.557h9.998     c0.866,0,1.568,0.696,1.568,1.557C90.363,46.721,89.661,47.417,88.795,47.417L88.795,47.417z M78.797,45.276     c-0.323,0-0.587,0.262-0.587,0.584c0,0.321,0.264,0.584,0.587,0.584c0.325,0,0.59-0.263,0.59-0.584     C79.387,45.539,79.122,45.276,78.797,45.276L78.797,45.276z M88.795,43.525h-9.998c-0.864,0-1.568-0.696-1.568-1.556     c0-0.86,0.704-1.557,1.568-1.557h9.998c0.866,0,1.568,0.696,1.568,1.557C90.363,42.829,89.661,43.525,88.795,43.525     L88.795,43.525z M78.797,41.384c-0.323,0-0.587,0.263-0.587,0.585s0.264,0.583,0.587,0.583c0.325,0,0.59-0.261,0.59-0.583     S79.122,41.384,78.797,41.384L78.797,41.384z M88.795,39.633h-9.998c-0.864,0-1.568-0.696-1.568-1.556     c0-0.86,0.704-1.556,1.568-1.556h9.998c0.866,0,1.568,0.695,1.568,1.556C90.363,38.938,89.661,39.633,88.795,39.633     L88.795,39.633z M78.797,37.494c-0.323,0-0.587,0.262-0.587,0.584c0,0.322,0.264,0.583,0.587,0.583     c0.325,0,0.59-0.262,0.59-0.583C79.387,37.755,79.122,37.494,78.797,37.494L78.797,37.494z M88.795,35.742h-9.998     c-0.864,0-1.568-0.696-1.568-1.557c0-0.86,0.704-1.555,1.568-1.555h9.998c0.866,0,1.568,0.695,1.568,1.555     C90.363,35.046,89.661,35.742,88.795,35.742L88.795,35.742z M78.797,33.602c-0.323,0-0.587,0.262-0.587,0.583     c0,0.322,0.264,0.585,0.587,0.585c0.325,0,0.59-0.263,0.59-0.585C79.387,33.864,79.122,33.602,78.797,33.602L78.797,33.602z      M80.431,50.823c0,0.16,0.032,0.312,0.091,0.453h-5.58v-0.908h5.58C80.463,50.508,80.431,50.661,80.431,50.823L80.431,50.823z      M82.293,49.623h0.327v-1.557h2.352v1.557h0.327c0.668,0,1.209,0.536,1.209,1.201c0,0.662-0.541,1.199-1.209,1.199h-3.006     c-0.668,0-1.207-0.537-1.207-1.199C81.086,50.159,81.625,49.623,82.293,49.623L82.293,49.623z M69.364,51.276     c0.058-0.141,0.09-0.292,0.09-0.453c0-0.162-0.032-0.315-0.09-0.455h5.578v0.908H69.364L69.364,51.276z M71.088,47.417h-9.997     c-0.867,0-1.568-0.695-1.568-1.556c0-0.861,0.702-1.557,1.568-1.557h9.997c0.866,0,1.568,0.696,1.568,1.557     C72.656,46.721,71.954,47.417,71.088,47.417L71.088,47.417z M61.091,45.276c-0.325,0-0.588,0.262-0.588,0.584     c0,0.321,0.264,0.584,0.588,0.584s0.587-0.263,0.587-0.584C61.678,45.539,61.416,45.276,61.091,45.276L61.091,45.276z      M71.088,43.525h-9.997c-0.867,0-1.568-0.696-1.568-1.556c0-0.86,0.702-1.557,1.568-1.557h9.997c0.866,0,1.568,0.696,1.568,1.557     C72.656,42.829,71.954,43.525,71.088,43.525L71.088,43.525z M61.091,41.384c-0.325,0-0.588,0.263-0.588,0.585     s0.264,0.583,0.588,0.583s0.587-0.261,0.587-0.583S61.416,41.384,61.091,41.384L61.091,41.384z M71.088,39.633h-9.997     c-0.867,0-1.568-0.696-1.568-1.556c0-0.86,0.702-1.556,1.568-1.556h9.997c0.866,0,1.568,0.695,1.568,1.556     C72.656,38.938,71.954,39.633,71.088,39.633L71.088,39.633z M61.091,37.494c-0.325,0-0.588,0.262-0.588,0.584     c0,0.322,0.264,0.583,0.588,0.583s0.587-0.262,0.587-0.583C61.678,37.755,61.416,37.494,61.091,37.494L61.091,37.494z      M71.088,35.742h-9.997c-0.867,0-1.568-0.696-1.568-1.557c0-0.86,0.702-1.555,1.568-1.555h9.997c0.866,0,1.568,0.695,1.568,1.555     C72.656,35.046,71.954,35.742,71.088,35.742L71.088,35.742z M61.091,33.602c-0.325,0-0.588,0.262-0.588,0.583     c0,0.322,0.264,0.585,0.588,0.585s0.587-0.263,0.587-0.585C61.678,33.864,61.416,33.602,61.091,33.602L61.091,33.602z      M62.725,50.823c0,0.16,0.032,0.312,0.09,0.453h-5.579v-0.908h5.579C62.757,50.508,62.725,50.661,62.725,50.823L62.725,50.823z      M64.586,49.623h0.326v-1.557h2.353v1.557h0.328c0.667,0,1.209,0.536,1.209,1.201c0,0.662-0.542,1.199-1.209,1.199h-3.006     c-0.667,0-1.209-0.537-1.209-1.199C63.377,50.159,63.919,49.623,64.586,49.623L64.586,49.623z"/></defs><use xlink:href="#i" overflow="visible" fill="#FFFFFF"/><clipPath><use xlink:href="#i" overflow="visible"/></clipPath></g><g><defs><path id="h" d="M113.456,113.727c-9.535,0-17.266-7.697-17.266-17.189c0-9.493,7.73-17.189,17.266-17.189     c9.534,0,17.264,7.696,17.264,17.189C130.72,106.029,122.99,113.727,113.456,113.727L113.456,113.727z M113.456,81.993     c-8.068,0-14.608,6.511-14.608,14.544s6.54,14.544,14.608,14.544s14.608-6.511,14.608-14.544S121.524,81.993,113.456,81.993     L113.456,81.993z"/></defs><use xlink:href="#h" overflow="visible" fill-rule="evenodd" clip-rule="evenodd" fill="#FFFFFF"/><clipPath><use xlink:href="#h" overflow="visible"/></clipPath></g><g><defs><path id="g" d="M35.544,113.727c-9.534,0-17.264-7.697-17.264-17.189c0-9.493,7.729-17.189,17.264-17.189     c9.536,0,17.265,7.696,17.265,17.189C52.809,106.029,45.08,113.727,35.544,113.727L35.544,113.727z M35.544,81.993     c-8.068,0-14.608,6.511-14.608,14.544s6.54,14.544,14.608,14.544c8.069,0,14.609-6.511,14.609-14.544     S43.613,81.993,35.544,81.993L35.544,81.993z"/></defs><use xlink:href="#g" overflow="visible" fill-rule="evenodd" clip-rule="evenodd" fill="#FFFFFF"/><clipPath><use xlink:href="#g" overflow="visible"/></clipPath></g><g><defs><path id="f" d="M74.5,134c-9.534,0-17.264-7.696-17.264-17.189s7.73-17.188,17.264-17.188     c9.536,0,17.265,7.695,17.265,17.188S84.036,134,74.5,134L74.5,134z M74.5,102.268c-8.068,0-14.608,6.511-14.608,14.543     c0,8.033,6.54,14.546,14.608,14.546c8.068,0,14.607-6.513,14.607-14.546C89.107,108.778,82.568,102.268,74.5,102.268     L74.5,102.268z"/></defs><use xlink:href="#f" overflow="visible" fill-rule="evenodd" clip-rule="evenodd" fill="#FFFFFF"/><clipPath><use xlink:href="#f" overflow="visible"/></clipPath></g><g><defs><path id="e" d="M73.171,100.503V56.429h2.658v44.074H73.171L73.171,100.503z M64.319,72.296V56.429h2.655v15.867H64.319     L64.319,72.296z M82.025,72.296V56.429h2.657v15.867H82.025L82.025,72.296z M82.025,72.296v-2.644h32.76v2.644H82.025     L82.025,72.296z M82.025,72.296V56.429h2.657v15.867H82.025L82.025,72.296z M34.217,72.296v-2.644h32.758v2.644H34.217     L34.217,72.296z M112.128,80.23V69.652h2.657V80.23H112.128L112.128,80.23z M34.217,80.23V69.652h2.656V80.23H34.217     L34.217,80.23z"/></defs><use xlink:href="#e" overflow="visible" fill="#FFFFFF"/><clipPath><use xlink:href="#e" overflow="visible"/></clipPath></g><g><defs><path id="d" d="M83.439,124.103H65.568c-0.689,0-1.248-0.546-1.248-1.221v-12.343c0-0.675,0.559-1.22,1.248-1.22h17.871     c0.688,0,1.246,0.545,1.246,1.22v12.343C84.686,123.557,84.127,124.103,83.439,124.103L83.439,124.103z M83.128,110.676H65.879     v12.07h17.249V110.676L83.128,110.676z M71.317,124.449c0,0,4.287-0.015,6.446,0c0.224,2.066,2.074,2.047,2.074,2.047v0.456     H69.247c0,0-0.003-0.173,0-0.456C71.362,126.496,71.317,124.449,71.317,124.449L71.317,124.449z"/></defs><use xlink:href="#d" overflow="visible" fill-rule="evenodd" clip-rule="evenodd" fill="#FFFFFF"/><clipPath><use xlink:href="#d" overflow="visible"/></clipPath></g><g><defs><path id="c" d="M114.914,103.148h-8.222c-0.42,0-0.761-0.334-0.761-0.746v-9.97c0-0.409,0.341-0.743,0.761-0.743h8.222     c0.42,0,0.761,0.334,0.761,0.743v9.97C115.675,102.814,115.334,103.148,114.914,103.148L114.914,103.148z M110.803,102.899     c0.234,0,0.423-0.186,0.423-0.413c0-0.229-0.188-0.413-0.423-0.413c-0.233,0-0.421,0.185-0.421,0.413     C110.382,102.714,110.569,102.899,110.803,102.899L110.803,102.899z M111.668,92.021h-1.73c-0.068,0-0.126,0.055-0.126,0.123     c0,0.069,0.058,0.125,0.126,0.125h1.73c0.07,0,0.127-0.056,0.127-0.125C111.795,92.075,111.738,92.021,111.668,92.021     L111.668,92.021z M114.873,92.641h-8.139v9.143h8.139V92.641L114.873,92.641z"/></defs><use xlink:href="#c" overflow="visible" fill-rule="evenodd" clip-rule="evenodd" fill="#FFFFFF"/><clipPath><use xlink:href="#c" overflow="visible"/></clipPath></g><g><defs><path id="b" d="M121.517,103.152h-3.727c-0.194,0-0.352-0.161-0.352-0.358V95.57c0-0.197,0.157-0.357,0.352-0.357h3.727     c0.193,0,0.351,0.16,0.351,0.357v7.224C121.867,102.991,121.71,103.152,121.517,103.152L121.517,103.152z M119.688,102.794     c0.233,0,0.422-0.192,0.422-0.43c0-0.236-0.188-0.429-0.422-0.429c-0.232,0-0.421,0.192-0.421,0.429     C119.267,102.602,119.455,102.794,119.688,102.794L119.688,102.794z M121.376,96.285h-3.446v5.294h3.446V96.285L121.376,96.285z"/></defs><use xlink:href="#b" overflow="visible" fill-rule="evenodd" clip-rule="evenodd" fill="#FFFFFF"/><clipPath><use xlink:href="#b" overflow="visible"/></clipPath></g><g><defs><path id="a" d="M44.846,101.795c0,0.748-0.638,1.354-1.423,1.354H28.557c-0.786,0-1.424-0.605-1.424-1.354v-0.17h1.459     c-0.506-0.055-0.904-0.45-0.904-0.948v-9.783c0-0.533,0.454-0.967,1.016-0.967h14.571c0.562,0,1.018,0.434,1.018,0.967v9.783     c0,0.498-0.4,0.894-0.906,0.948h1.459V101.795L44.846,101.795z M41.564,102.771c0.241,0,0.436-0.185,0.436-0.412     c0-0.229-0.195-0.413-0.436-0.413c-0.24,0-0.436,0.185-0.436,0.413C41.128,102.587,41.324,102.771,41.564,102.771L41.564,102.771     z M34.251,102.849h3.479v-0.678h-3.479V102.849L34.251,102.849z M43.021,91.003H28.958v9.567h14.063V91.003L43.021,91.003z      M42.75,101.946c-0.24,0-0.435,0.185-0.435,0.413c0,0.228,0.195,0.412,0.435,0.412c0.239,0,0.435-0.185,0.435-0.412     C43.185,102.131,42.989,101.946,42.75,101.946L42.75,101.946z"/></defs><use xlink:href="#a" overflow="visible" fill-rule="evenodd" clip-rule="evenodd" fill="#FFFFFF"/><clipPath><use xlink:href="#a" overflow="visible"/></clipPath></g></g></svg>