<svg xmlns="http://www.w3.org/2000/svg" xmlns:xlink="http://www.w3.org/1999/xlink" version="1.0" x="0px" y="0px" viewBox="0 0 149 186.25" enable-background="new 0 0 149 149" xml:space="preserve"><path fill-rule="evenodd" clip-rule="evenodd" fill="#FFFFFF" d="M57.18,83.8c-0.4,0-0.73,0.33-0.73,0.73  c0,0.41,0.33,0.739,0.73,0.739c0.41,0,0.74-0.329,0.74-0.739C57.92,84.13,57.59,83.8,57.18,83.8z M57.18,83.8  c-0.4,0-0.73,0.33-0.73,0.73c0,0.41,0.33,0.739,0.73,0.739c0.41,0,0.74-0.329,0.74-0.739C57.92,84.13,57.59,83.8,57.18,83.8z   M57.18,83.8c-0.4,0-0.73,0.33-0.73,0.73c0,0.41,0.33,0.739,0.73,0.739c0.41,0,0.74-0.329,0.74-0.739  C57.92,84.13,57.59,83.8,57.18,83.8z M57.18,83.8c-0.4,0-0.73,0.33-0.73,0.73c0,0.41,0.33,0.739,0.73,0.739  c0.41,0,0.74-0.329,0.74-0.739C57.92,84.13,57.59,83.8,57.18,83.8z M57.18,83.8c-0.4,0-0.73,0.33-0.73,0.73  c0,0.41,0.33,0.739,0.73,0.739c0.41,0,0.74-0.329,0.74-0.739C57.92,84.13,57.59,83.8,57.18,83.8z M57.18,83.8  c-0.4,0-0.73,0.33-0.73,0.73c0,0.41,0.33,0.739,0.73,0.739c0.41,0,0.74-0.329,0.74-0.739C57.92,84.13,57.59,83.8,57.18,83.8z   M57.18,83.8c-0.4,0-0.73,0.33-0.73,0.73c0,0.41,0.33,0.739,0.73,0.739c0.41,0,0.74-0.329,0.74-0.739  C57.92,84.13,57.59,83.8,57.18,83.8z M57.18,83.8c-0.4,0-0.73,0.33-0.73,0.73c0,0.41,0.33,0.739,0.73,0.739  c0.41,0,0.74-0.329,0.74-0.739C57.92,84.13,57.59,83.8,57.18,83.8z M57.18,83.8c-0.4,0-0.73,0.33-0.73,0.73  c0,0.41,0.33,0.739,0.73,0.739c0.41,0,0.74-0.329,0.74-0.739C57.92,84.13,57.59,83.8,57.18,83.8z M57.18,83.8  c-0.4,0-0.73,0.33-0.73,0.73c0,0.41,0.33,0.739,0.73,0.739c0.41,0,0.74-0.329,0.74-0.739C57.92,84.13,57.59,83.8,57.18,83.8z   M57.18,83.8c-0.4,0-0.73,0.33-0.73,0.73c0,0.41,0.33,0.739,0.73,0.739c0.41,0,0.74-0.329,0.74-0.739  C57.92,84.13,57.59,83.8,57.18,83.8z M57.18,83.8c-0.4,0-0.73,0.33-0.73,0.73c0,0.41,0.33,0.739,0.73,0.739  c0.41,0,0.74-0.329,0.74-0.739C57.92,84.13,57.59,83.8,57.18,83.8z M57.18,83.8c-0.4,0-0.73,0.33-0.73,0.73  c0,0.41,0.33,0.739,0.73,0.739c0.41,0,0.74-0.329,0.74-0.739C57.92,84.13,57.59,83.8,57.18,83.8z M57.18,83.8  c-0.4,0-0.73,0.33-0.73,0.73c0,0.41,0.33,0.739,0.73,0.739c0.41,0,0.74-0.329,0.74-0.739C57.92,84.13,57.59,83.8,57.18,83.8z   M57.18,83.8c-0.4,0-0.73,0.33-0.73,0.73c0,0.41,0.33,0.739,0.73,0.739c0.41,0,0.74-0.329,0.74-0.739  C57.92,84.13,57.59,83.8,57.18,83.8z M57.18,83.8c-0.4,0-0.73,0.33-0.73,0.73c0,0.41,0.33,0.739,0.73,0.739  c0.41,0,0.74-0.329,0.74-0.739C57.92,84.13,57.59,83.8,57.18,83.8z M57.18,83.8c-0.4,0-0.73,0.33-0.73,0.73  c0,0.41,0.33,0.739,0.73,0.739c0.41,0,0.74-0.329,0.74-0.739C57.92,84.13,57.59,83.8,57.18,83.8z M57.18,83.8  c-0.4,0-0.73,0.33-0.73,0.73c0,0.41,0.33,0.739,0.73,0.739c0.41,0,0.74-0.329,0.74-0.739C57.92,84.13,57.59,83.8,57.18,83.8z   M57.18,83.8c-0.4,0-0.73,0.33-0.73,0.73c0,0.41,0.33,0.739,0.73,0.739c0.41,0,0.74-0.329,0.74-0.739  C57.92,84.13,57.59,83.8,57.18,83.8z M57.18,83.8c-0.4,0-0.73,0.33-0.73,0.73c0,0.41,0.33,0.739,0.73,0.739  c0.41,0,0.74-0.329,0.74-0.739C57.92,84.13,57.59,83.8,57.18,83.8z M57.18,83.8c-0.4,0-0.73,0.33-0.73,0.73  c0,0.41,0.33,0.739,0.73,0.739c0.41,0,0.74-0.329,0.74-0.739C57.92,84.13,57.59,83.8,57.18,83.8z"/><rect x="61.624" y="53.373" fill-rule="evenodd" clip-rule="evenodd" fill="#FFFFFF" width="0.494" height="2.301"/><rect x="59.785" y="52.417" fill-rule="evenodd" clip-rule="evenodd" fill="#FFFFFF" width="0.494" height="3.256"/><rect x="57.826" y="53.373" fill-rule="evenodd" clip-rule="evenodd" fill="#FFFFFF" width="0.494" height="2.301"/><path fill="#FFFFFF" d="M74.505,146.424c-39.66,0-71.924-32.266-71.924-71.924c0-39.66,32.265-71.924,71.924-71.924  c39.658,0,71.924,32.265,71.924,71.924C146.429,114.158,114.163,146.424,74.505,146.424z M74.505,7.57  c-36.906,0-66.93,30.024-66.93,66.93c0,36.904,30.024,66.931,66.93,66.931c36.904,0,66.931-30.026,66.931-66.931  C141.436,37.594,111.409,7.57,74.505,7.57z"/><g><path fill="#FFFFFF" d="M111.757,100.077c3.386,0,6.243-2.506,6.243-5.867V45.27c0-3.358-3.537-6.27-6.923-6.27H37.569   C34.183,39,32,41.892,32,45.25v49.001c0,3.359,2.519,5.826,5.905,5.826l-12.41,0.173l-0.093,3.789c0,3.361,2.654,5.961,6.041,5.961   h85.76c3.387,0,6.797-2.479,6.797-5.841v-3.909L111.757,100.077z M38,95V45h74v50H38z M87,108H63v-3h24V108z M98.826,108.26   c-1.381,0-2.499-1.122-2.499-2.509c0-1.386,1.118-2.507,2.499-2.507c1.382,0,2.5,1.121,2.5,2.507   C101.326,107.138,100.208,108.26,98.826,108.26z M107.827,108.26c-1.382,0-2.499-1.122-2.499-2.509   c0-1.386,1.117-2.507,2.499-2.507s2.501,1.121,2.501,2.507C110.328,107.138,109.209,108.26,107.827,108.26z"/><polygon fill="#FFFFFF" points="62.328,68 41,68 41,46 39,46 39,70.25 73.746,70.152 73.329,68  "/><polygon fill="#FFFFFF" points="46.372,52.433 51.987,54.844 54.952,53.064 58.081,54.294 62.841,52.713 66.248,54.766    73.178,48.184 72.282,47.811 66.063,53.719 63.025,51.889 58.125,53.516 54.813,52.213 51.926,54.084 46.484,51.663 40.441,53.341    40.876,53.96  "/><polygon fill="#FFFFFF" points="46.372,60.034 51.987,62.445 54.952,60.666 58.081,61.896 62.841,60.316 66.248,62.367    73.178,55.787 72.282,55.414 66.063,61.32 63.025,59.49 58.125,61.117 54.813,59.816 51.926,61.685 46.484,59.266 40.441,60.944    40.876,61.562  "/><path fill="#FFFFFF" d="M96.103,71.973l-1.829,5.563c1.634,0.499,2.822,1.996,2.822,3.765c0,0.886-0.302,1.701-0.805,2.358   l4.705,3.575c1.279-1.648,2.043-3.705,2.043-5.933C103.037,76.937,100.12,73.232,96.103,71.973z"/><path fill="#FFFFFF" d="M92.123,85.488c-2.209,0-4.007-1.767-4.007-3.941c0-2.172,1.798-3.939,4.007-3.939   c0.412,0,0.81,0.062,1.186,0.176l1.826-5.563c-0.949-0.297-1.962-0.46-3.012-0.46c-5.484,0-9.948,4.391-9.948,9.786   c0,5.397,4.464,9.788,9.948,9.788c3.221,0,6.088-1.515,7.906-3.855l-4.704-3.572C94.593,84.865,93.434,85.488,92.123,85.488z"/><path fill="#FFFFFF" d="M93.284,49c-0.002,0-0.002,0-0.002,0c-5.394,0-9.767,4.415-9.767,9.628s4.373,9.409,9.766,9.409   c5.392,0,10.046-4.037,10.048-9.037H93.33L93.284,49z"/><path fill="#FFFFFF" d="M95,48.25V58h10v-0.75C105,52.036,100,48.252,95,48.25z"/><polygon fill="#FFFFFF" points="59.45,84.813 59.428,85.669 59.782,85.817 60.132,84.792 60.044,84.363  "/><polygon fill="#FFFFFF" points="50.664,74.055 50.052,73.893 49.295,74.678 50.268,77.142 50.728,77.252 50.763,76.451    51.075,76.266 51.094,75.961 51.414,75.373 51.189,74.931  "/><polygon fill="#FFFFFF" points="66.197,83.538 66.902,83.668 67.229,82.693 67.037,82.533 66.09,83.115  "/><polygon fill="#FFFFFF" points="69.49,84.199 69.4,84.885 68.805,84.673 68.916,84.304 68.263,84.251 67.418,85.017 66.522,85.334    66.738,86.519 66.658,86.757 66.984,86.94 68.314,86.62 68.83,86.911 69.074,86.779 69.236,87.26 69.914,87.443 70.405,87.154    70.676,85.729 69.941,85.017  "/><polygon fill="#FFFFFF" points="49.703,83.916 48.588,83.108 46.931,82.947 46.683,83.338 46.35,83.23 46.182,82.626    45.687,82.594 45.894,82.02 45.479,81.98 45.064,82.304 44.776,81.898 45.024,81.215 46.145,81.054 46.53,81.617 47,81.578    47,81.054 47.606,80.005 48.51,79.479 49.748,78.919 48.815,76.941 48.389,77.183 48.054,76.298 47.263,76.337 47.056,77.908    46.763,77.949 45.564,76.7 45.783,76.054 47,75.813 47,74.279 43.921,74.604 42.319,73.676 41.579,74.361 39.552,73.273    38.437,74.157 38.853,75 38.396,75 38.272,75.206 38.893,75.166 38.272,75.59 38.478,76.244 39.017,76.352 38.149,77.029    39.515,76.382 40.261,75.975 41.755,76.701 43,78.271 43,79.683 43.287,80.729 44.094,82.182 45.181,82.584 45.641,82.826    46.2,83.553 46.597,83.491 46.149,84.199 46.516,85.648 47.302,86.333 46.35,90.081 46.683,90.889 47.632,91.131 47.055,90.525    47.841,89.076 49.537,87.663 49.664,87.019 50.492,86.896 51.321,85.246 49.871,84.559  "/><polygon fill="#FFFFFF" points="53.913,76.261 54.309,76.261 54.484,75.748 54.484,76.518 55.035,76.283 55.189,76.048    54.596,74.934 54.243,75.172 54.265,75.47 53.935,75.857  "/><path fill="#FFFFFF" d="M66.328,73.25c0,0-4.803,0.634-7.207,0.88l-2.087-0.373l-0.835,0.448l-0.331,0.793l-0.396,0.297   l-0.021,0.663l0.221,0.129l0.46-0.258l0.22,0.686l0.397-0.151l0.266-0.684l-0.266-0.278l0.241-0.511l0.285-0.344l0.172,0.025   l-0.161,0.402l-0.186,0.129l0.068,0.162l-0.013,0.026l0.021,0.003l0.162,0.385l0.463-0.129l0.159,0.185l-0.511,0.159l0.11,0.405   l-0.332-0.107l-0.241,0.6l-0.856-0.021l-0.152-0.427l-0.199,0.257l0.067,0.277L55.54,76.9l-0.375,0.49l-0.681,0.215l0.178,0.365   l0.283,0.447l-0.9-0.062l0.044,0.854l0.703,0.105l0.463-0.705l0.659-0.322l0.285,0.322l0.394,0.514l0.288-0.323l-0.55-0.362   l-0.023-0.342l0.264,0.128l0.441,0.342l-0.022,0.342l0.33,0.407l0.153-0.513l0.176,0.086l0.241,0.406l0.745,0.122l-0.122,0.394   l-0.279,0.164l-1.078-0.27l-0.271,0.369l-0.705-0.447L56.07,79.18l-1.737,0.288l-0.896,1.057l-0.164,1.428l0.925,0.871l1.655-0.105   l0.488,1.479l-0.19,0.847l0.787,1.85l0.896-0.159l0.896-1.639l0.488-0.369l-0.135-1.135l0.869-0.767l0.271-0.927l-0.869,0.397   l-0.888-1.977l0.183-0.031l0.871,1.664l1.682-0.977l-0.571-0.422l-0.434,0.21l-0.271-0.633l0.19-0.106l0.379,0.316l1.305,0.237   l0.542,0.635l0.882,1.188L64,82.035v-0.452l0.665-0.715l0.183,0.791l0.211-0.075l0.017,0.79l0.302,0.579l-0.716-0.342l0.507,0.714   l0.567,0.527l1.356,0.237L66.36,83.8l-0.545-0.186l-0.189-0.845l-0.436-0.477l0.016-0.478l0.502,0.505l0.488-0.396l-0.461-0.661   l0.217-0.344l1.006-0.054l0.459-0.818l-0.325-0.897l0.409-0.422l0.297,0.397l0.111,0.502l0.352-0.186l-0.135-0.556l0.299-0.422   l0.488-0.079l0.568-1.532l-0.486-0.344l0.677-0.635l0.897,0.054l0.732-0.581l0.57-0.08l-0.924,1.083l0.027,0.952l0.707-0.847   l-0.027-0.607l0.732-0.157l0.977-0.529l-0.271-0.739L66.328,73.25z M59.1,78.846l-0.483-0.128l-0.661,0.105l-0.152-0.276   l0.354-0.598l1.141,0.576L59.1,78.846z M59.892,79.209L60,78.804l-0.24-0.599l0.682-0.363v0.319l-0.266,0.107l0.222,0.32   l0.107,0.663L59.892,79.209z"/><polygon fill="#FFFFFF" points="69.699,77 69.508,77 69.48,78.09 68.992,79.163 68.369,79.645 68.341,80.059 69.48,79.407    69.536,78.725 69.916,78.384 69.617,78.148 69.778,77.454  "/><polygon fill="#FFFFFF" points="72.631,86.866 72.711,87.604 71.871,88.372 72.412,88.426 72.899,87.711 73.28,87.211    73.036,87.184  "/><polygon fill="#FFFFFF" points="68.367,83.272 69.1,84.014 69.52,84.041 69.697,83.882 70.297,84.251 70.053,83.748 68.938,83.223     "/></g><text x="0" y="164" fill="#FFFFFF" font-size="5px" font-weight="bold" font-family="'Helvetica Neue', Helvetica, Arial-Unicode, Arial, Sans-serif">Created by YuguDesign </text><text x="0" y="169" fill="#FFFFFF" font-size="5px" font-weight="bold" font-family="'Helvetica Neue', Helvetica, Arial-Unicode, Arial, Sans-serif">from the Noun Project</text></svg>