<svg xmlns="http://www.w3.org/2000/svg" xmlns:xlink="http://www.w3.org/1999/xlink" version="1.0" x="0px" y="0px" viewBox="0 0 149 186.25" enable-background="new 0 0 149 149" xml:space="preserve"><g><path fill="#FFFFFF" d="M55,82v7h9v-7H55z M56.1,88l0.91-1.74l0.84,0.91l1.12-1.82l1.13,1.11l1.54-2.37L63.25,88H56.1z"/><path fill="#FFFFFF" d="M70,75H54c-1.66,0-3,1.34-3,3v15c0,1.66,1.34,3,3,3h16c1.66,0,3-1.34,3-3V78C73,76.34,71.66,75,70,75z    M67.18,91.4L66,91.05v-3.56l1.12,0.34l1.67-6.63l-9.01-2.41L59.19,81H65v12H54V81h4.17l0.92-3.41l10.96,2.92L67.18,91.4z"/><path fill="#FFFFFF" d="M95,75H79c-1.66,0-3,1.34-3,3v15c0,1.66,1.34,3,3,3h16c1.66,0,3-1.34,3-3V78C98,76.34,96.66,75,95,75z    M92.67,92H88v-4h1.75l-2.6-2.86L84.55,88H86v4h-4.82c0,0-3.12-0.24-3.18-3.3c0-3.061,2.93-3.86,2.93-3.86s-0.229-1.53,1.09-2.359   C83.5,81.6,84.58,82.67,84.58,82.67s1.1-3.439,4.72-3.06c4.21,0.54,3.87,5.25,3.87,5.25s3,0.84,2.811,4.02   C95.57,91.78,92.71,92,92.67,92z"/><path fill="#FFFFFF" d="M69.7,60.13c0.29,1.2-1.74,2.17-3.74,2.79c0.71-1.05,1.04-2.3,1.04-3.66v-0.07   C68,59.16,69.42,59.05,69.7,60.13z"/><path fill="#FFFFFF" d="M70,50H54c-1.66,0-3,1.34-3,3v15c0,1.66,1.34,3,3,3h16c1.66,0,3-1.34,3-3V53C73,51.34,71.66,50,70,50z    M64.93,64.06c-0.51,0.48-0.93,0.89-1.93,1.2V66h-6v-0.74c-2-1.12-3.8-3.27-3.8-5.89C53.2,59.33,53,57,53,57h14c0,0,0,0.43,0,0.77   c1-0.04,3.78,0.17,4.02,2.39C71.53,62.3,68.04,63.34,64.93,64.06z"/><path fill="#FFFFFF" d="M83.18,55.67c-1.35,0-2.449,1.05-2.449,2.34c0,1.3,1.1,2.34,2.449,2.34c1.36,0,2.46-1.04,2.46-2.34   C85.64,56.72,84.54,55.67,83.18,55.67z M83.18,59.31c-0.75,0-1.359-0.58-1.359-1.3c0-0.71,0.609-1.3,1.359-1.3   c0.761,0,1.37,0.59,1.37,1.3C84.55,58.73,83.94,59.31,83.18,59.31z"/><path fill="#FFFFFF" d="M90.25,58.53c0,0.29-0.24,0.52-0.54,0.52c-0.31,0-0.55-0.23-0.55-0.52c0-0.28,0.24-0.52,0.55-0.52   C90.01,58.01,90.25,58.25,90.25,58.53z"/><path fill="#FFFFFF" d="M91.93,60.09c0,0.29-0.25,0.52-0.55,0.52s-0.55-0.23-0.55-0.52c0-0.28,0.25-0.52,0.55-0.52   S91.93,59.81,91.93,60.09z"/><path fill="#FFFFFF" d="M91.93,56.97c0,0.29-0.25,0.52-0.55,0.52s-0.55-0.23-0.55-0.52c0-0.28,0.25-0.52,0.55-0.52   S91.93,56.69,91.93,56.97z"/><path fill="#FFFFFF" d="M93.02,58.01c0.301,0,0.54,0.24,0.54,0.52c0,0.29-0.239,0.52-0.54,0.52c-0.3,0-0.55-0.23-0.55-0.52   C92.47,58.25,92.72,58.01,93.02,58.01z"/><path fill="#FFFFFF" d="M95,50H79c-1.66,0-3,1.34-3,3v15c0,1.66,1.34,3,3,3h16c1.66,0,3-1.34,3-3V53C98,51.34,96.66,50,95,50z    M94.38,65.55c-2.18,0-4.1-3.46-7.38-3.46c-4.05,0-4.45,3.5-7.41,3.5c-3.51,0-0.82-12,3.87-12c0.68,0,2.271,1.04,3.55,1.04   c1.271,0,2.78-1.04,3.55-1.04C95.25,53.59,97.89,65.55,94.38,65.55z"/><path fill="#FFFFFF" d="M106.94,41.39c0.319-2.84-3.07-5.39-6.101-5.39H48.18C45.21,36,42,37.56,42,40.46v69.07   c0,2.899,3.21,4.47,6.18,4.47h52.66c2.97,0,6.17-1.56,6.17-4.46C107.01,109.54,106.93,42.99,106.94,41.39z M68.31,39h11.4   c0.37,0,0.66,0.15,0.66,0.5S80.08,40,79.71,40h-11.4c-0.36,0-0.66-0.15-0.66-0.5S67.95,39,68.31,39z M74.01,112.35   c-1.49,0-2.7-1.18-2.7-2.63c0-1.46,1.21-2.64,2.7-2.64c1.49,0,2.7,1.18,2.7,2.64C76.71,111.17,75.5,112.35,74.01,112.35z M102,105   H47V42h55V105z"/></g><path fill-rule="evenodd" clip-rule="evenodd" fill="#FFFFFF" d="M57.18,83.8c-0.4,0-0.73,0.33-0.73,0.73  c0,0.41,0.33,0.739,0.73,0.739c0.41,0,0.74-0.329,0.74-0.739C57.92,84.13,57.59,83.8,57.18,83.8z M57.18,83.8  c-0.4,0-0.73,0.33-0.73,0.73c0,0.41,0.33,0.739,0.73,0.739c0.41,0,0.74-0.329,0.74-0.739C57.92,84.13,57.59,83.8,57.18,83.8z   M57.18,83.8c-0.4,0-0.73,0.33-0.73,0.73c0,0.41,0.33,0.739,0.73,0.739c0.41,0,0.74-0.329,0.74-0.739  C57.92,84.13,57.59,83.8,57.18,83.8z M57.18,83.8c-0.4,0-0.73,0.33-0.73,0.73c0,0.41,0.33,0.739,0.73,0.739  c0.41,0,0.74-0.329,0.74-0.739C57.92,84.13,57.59,83.8,57.18,83.8z M57.18,83.8c-0.4,0-0.73,0.33-0.73,0.73  c0,0.41,0.33,0.739,0.73,0.739c0.41,0,0.74-0.329,0.74-0.739C57.92,84.13,57.59,83.8,57.18,83.8z M57.18,83.8  c-0.4,0-0.73,0.33-0.73,0.73c0,0.41,0.33,0.739,0.73,0.739c0.41,0,0.74-0.329,0.74-0.739C57.92,84.13,57.59,83.8,57.18,83.8z   M57.18,83.8c-0.4,0-0.73,0.33-0.73,0.73c0,0.41,0.33,0.739,0.73,0.739c0.41,0,0.74-0.329,0.74-0.739  C57.92,84.13,57.59,83.8,57.18,83.8z M57.18,83.8c-0.4,0-0.73,0.33-0.73,0.73c0,0.41,0.33,0.739,0.73,0.739  c0.41,0,0.74-0.329,0.74-0.739C57.92,84.13,57.59,83.8,57.18,83.8z M57.18,83.8c-0.4,0-0.73,0.33-0.73,0.73  c0,0.41,0.33,0.739,0.73,0.739c0.41,0,0.74-0.329,0.74-0.739C57.92,84.13,57.59,83.8,57.18,83.8z M57.18,83.8  c-0.4,0-0.73,0.33-0.73,0.73c0,0.41,0.33,0.739,0.73,0.739c0.41,0,0.74-0.329,0.74-0.739C57.92,84.13,57.59,83.8,57.18,83.8z   M57.18,83.8c-0.4,0-0.73,0.33-0.73,0.73c0,0.41,0.33,0.739,0.73,0.739c0.41,0,0.74-0.329,0.74-0.739  C57.92,84.13,57.59,83.8,57.18,83.8z M57.18,83.8c-0.4,0-0.73,0.33-0.73,0.73c0,0.41,0.33,0.739,0.73,0.739  c0.41,0,0.74-0.329,0.74-0.739C57.92,84.13,57.59,83.8,57.18,83.8z M57.18,83.8c-0.4,0-0.73,0.33-0.73,0.73  c0,0.41,0.33,0.739,0.73,0.739c0.41,0,0.74-0.329,0.74-0.739C57.92,84.13,57.59,83.8,57.18,83.8z M57.18,83.8  c-0.4,0-0.73,0.33-0.73,0.73c0,0.41,0.33,0.739,0.73,0.739c0.41,0,0.74-0.329,0.74-0.739C57.92,84.13,57.59,83.8,57.18,83.8z   M57.18,83.8c-0.4,0-0.73,0.33-0.73,0.73c0,0.41,0.33,0.739,0.73,0.739c0.41,0,0.74-0.329,0.74-0.739  C57.92,84.13,57.59,83.8,57.18,83.8z M57.18,83.8c-0.4,0-0.73,0.33-0.73,0.73c0,0.41,0.33,0.739,0.73,0.739  c0.41,0,0.74-0.329,0.74-0.739C57.92,84.13,57.59,83.8,57.18,83.8z M57.18,83.8c-0.4,0-0.73,0.33-0.73,0.73  c0,0.41,0.33,0.739,0.73,0.739c0.41,0,0.74-0.329,0.74-0.739C57.92,84.13,57.59,83.8,57.18,83.8z M57.18,83.8  c-0.4,0-0.73,0.33-0.73,0.73c0,0.41,0.33,0.739,0.73,0.739c0.41,0,0.74-0.329,0.74-0.739C57.92,84.13,57.59,83.8,57.18,83.8z   M57.18,83.8c-0.4,0-0.73,0.33-0.73,0.73c0,0.41,0.33,0.739,0.73,0.739c0.41,0,0.74-0.329,0.74-0.739  C57.92,84.13,57.59,83.8,57.18,83.8z M57.18,83.8c-0.4,0-0.73,0.33-0.73,0.73c0,0.41,0.33,0.739,0.73,0.739  c0.41,0,0.74-0.329,0.74-0.739C57.92,84.13,57.59,83.8,57.18,83.8z M57.18,83.8c-0.4,0-0.73,0.33-0.73,0.73  c0,0.41,0.33,0.739,0.73,0.739c0.41,0,0.74-0.329,0.74-0.739C57.92,84.13,57.59,83.8,57.18,83.8z"/><rect x="61.624" y="53.373" fill-rule="evenodd" clip-rule="evenodd" fill="#FFFFFF" width="0.494" height="2.301"/><rect x="59.785" y="52.417" fill-rule="evenodd" clip-rule="evenodd" fill="#FFFFFF" width="0.494" height="3.256"/><rect x="57.826" y="53.373" fill-rule="evenodd" clip-rule="evenodd" fill="#FFFFFF" width="0.494" height="2.301"/><path fill="#FFFFFF" d="M74.505,146.424c-39.66,0-71.924-32.266-71.924-71.924c0-39.66,32.265-71.924,71.924-71.924  c39.658,0,71.924,32.265,71.924,71.924C146.429,114.158,114.163,146.424,74.505,146.424z M74.505,7.57  c-36.906,0-66.93,30.024-66.93,66.93c0,36.904,30.024,66.931,66.93,66.931c36.904,0,66.931-30.026,66.931-66.931  C141.436,37.594,111.409,7.57,74.505,7.57z"/><text x="0" y="164" fill="#FFFFFF" font-size="5px" font-weight="bold" font-family="'Helvetica Neue', Helvetica, Arial-Unicode, Arial, Sans-serif">Created by YuguDesign </text><text x="0" y="169" fill="#FFFFFF" font-size="5px" font-weight="bold" font-family="'Helvetica Neue', Helvetica, Arial-Unicode, Arial, Sans-serif">from the Noun Project</text></svg>