<svg xmlns="http://www.w3.org/2000/svg" xmlns:xlink="http://www.w3.org/1999/xlink" version="1.1" x="0px" y="0px" viewBox="0 0 47 58.75" enable-background="new 0 0 47 47" xml:space="preserve"><path d="M23.595,8.328c-8.329,0-15.104,6.775-15.104,15.104c0,8.329,6.776,15.104,15.104,15.104s15.104-6.775,15.104-15.104  C38.699,15.104,31.924,8.328,23.595,8.328z M36.096,18.073h-6.973c-0.459-3.245-1.344-6.146-2.618-7.924  C30.825,11.095,34.383,14.094,36.096,18.073z M27.995,23.432c0,1.206-0.058,2.35-0.154,3.435H19.35  c-0.096-1.085-0.154-2.229-0.154-3.435c0-1.364,0.072-2.651,0.193-3.858h8.413C27.924,20.781,27.995,22.068,27.995,23.432z   M23.595,37.036c-1.619,0-3.377-3.392-4.08-8.67h8.161C26.973,33.645,25.215,37.036,23.595,37.036z M19.571,18.073  c0.738-5.037,2.448-8.245,4.024-8.245c1.577,0,3.287,3.208,4.025,8.245H19.571z M20.686,10.149  c-1.274,1.778-2.159,4.679-2.619,7.924h-6.972C12.807,14.094,16.365,11.095,20.686,10.149z M10.557,19.573h7.333  c-0.126,1.271-0.194,2.571-0.194,3.858c0,1.145,0.057,2.299,0.156,3.435h-7.404c-0.288-1.1-0.457-2.246-0.457-3.435  C9.991,22.091,10.193,20.798,10.557,19.573z M10.931,28.366h7.083c0.441,3.413,1.342,6.494,2.671,8.349  C16.215,35.736,12.568,32.554,10.931,28.366z M26.505,36.715c1.329-1.854,2.23-4.936,2.672-8.349h7.082  C34.621,32.554,30.976,35.736,26.505,36.715z M36.743,26.866h-7.404c0.1-1.136,0.156-2.29,0.156-3.435  c0-1.287-0.067-2.587-0.193-3.858h7.332c0.363,1.225,0.565,2.518,0.565,3.858C37.199,24.62,37.03,25.767,36.743,26.866z"/><path d="M4.227,24.16c0.103,0.053,0.214,0.09,0.338,0.09c0,0,0,0,0,0l0,0c0,0,0.001,0,0.001,0c0.122-0.001,0.231-0.036,0.333-0.088  c0.01-0.006,0.022-0.003,0.033-0.009c0.029-0.017,0.047-0.043,0.073-0.063c0.042-0.031,0.082-0.062,0.117-0.101  c0.032-0.037,0.055-0.077,0.08-0.118c0.024-0.041,0.047-0.081,0.063-0.126c0.018-0.05,0.024-0.1,0.031-0.152  C5.3,23.562,5.315,23.533,5.315,23.5c0-10.08,8.201-18.28,18.28-18.28c8.374,0,15.66,5.661,17.718,13.766  c0.102,0.402,0.516,0.644,0.911,0.542c0.401-0.102,0.645-0.51,0.542-0.912C40.54,9.845,32.656,3.72,23.595,3.72  c-10.045,0-18.347,7.533-19.599,17.243l-1.757-3.12c-0.204-0.362-0.662-0.49-1.021-0.285c-0.361,0.203-0.489,0.661-0.285,1.021  l2.979,5.289c0.01,0.019,0.031,0.026,0.043,0.043c0.053,0.078,0.117,0.143,0.195,0.196C4.176,24.126,4.198,24.146,4.227,24.16z"/><path d="M46.067,28.421l-2.979-5.289c-0.017-0.029-0.043-0.047-0.063-0.073c-0.03-0.042-0.061-0.082-0.1-0.116  c-0.036-0.032-0.077-0.056-0.118-0.08c-0.041-0.024-0.08-0.047-0.126-0.063c-0.049-0.018-0.1-0.024-0.151-0.031  c-0.032-0.004-0.062-0.019-0.095-0.019c-0.015,0-0.026,0.007-0.04,0.008c-0.05,0.002-0.097,0.017-0.145,0.029  c-0.051,0.013-0.099,0.024-0.145,0.047c-0.013,0.006-0.026,0.006-0.039,0.013c-0.029,0.016-0.047,0.043-0.072,0.063  c-0.042,0.032-0.083,0.062-0.117,0.102c-0.031,0.036-0.055,0.075-0.078,0.116c-0.025,0.042-0.049,0.083-0.064,0.129  c-0.018,0.048-0.023,0.097-0.03,0.148c-0.005,0.033-0.02,0.063-0.02,0.097c0,10.08-8.2,18.28-18.28,18.28  c-8.374,0-15.659-5.66-17.717-13.765c-0.102-0.402-0.508-0.645-0.912-0.542c-0.401,0.102-0.645,0.51-0.542,0.911  C6.461,37.155,14.344,43.28,23.405,43.28c10.045,0,18.346-7.532,19.598-17.243l1.758,3.12c0.138,0.244,0.392,0.382,0.654,0.382  c0.124,0,0.251-0.031,0.367-0.097C46.143,29.239,46.271,28.782,46.067,28.421z"/><text x="0" y="62" fill="#000000" font-size="5px" font-weight="bold" font-family="'Helvetica Neue', Helvetica, Arial-Unicode, Arial, Sans-serif">Created by Adnen Kadri</text><text x="0" y="67" fill="#000000" font-size="5px" font-weight="bold" font-family="'Helvetica Neue', Helvetica, Arial-Unicode, Arial, Sans-serif">from the Noun Project</text></svg>