<svg xmlns="http://www.w3.org/2000/svg" xmlns:xlink="http://www.w3.org/1999/xlink" version="1.0" x="0px" y="0px" viewBox="0 0 149 186.25" enable-background="new 0 0 149 149" xml:space="preserve"><rect x="61.624" y="53.373" fill-rule="evenodd" clip-rule="evenodd" fill="#FFFFFF" width="0.494" height="2.301"/><rect x="59.785" y="52.417" fill-rule="evenodd" clip-rule="evenodd" fill="#FFFFFF" width="0.494" height="3.256"/><rect x="57.826" y="53.373" fill-rule="evenodd" clip-rule="evenodd" fill="#FFFFFF" width="0.494" height="2.301"/><path fill="#FFFFFF" d="M74.505,148.424c-40.763,0-73.924-33.163-73.924-73.924c0-40.763,33.162-73.924,73.924-73.924  c40.761,0,73.924,33.162,73.924,73.924C148.429,115.261,115.266,148.424,74.505,148.424z M74.505,5.708  C36.573,5.708,5.713,36.568,5.713,74.5c0,37.931,30.859,68.792,68.792,68.792c37.931,0,68.792-30.861,68.792-68.792  C143.297,36.568,112.436,5.708,74.505,5.708z"/><g><path fill="#FFFFFF" d="M91.7,107.791C83.979,108.02,77.78,112,77.37,118H54.46c0,0,0.02-0.57,0.04-1.811   c9.19,0,9.05-8.818,9.05-8.818s18.7-0.061,28.089,0C91.66,107.511,91.67,107.65,91.7,107.791z"/><g><path fill="#FFFFFF" d="M51.245,45.551C51.855,46.136,53.188,47,54.846,49h22.001c0.159-2,0.286-2.911,0.352-3.573    C74.862,44.979,72.733,44,70.914,43H53.142C52.594,44,51.962,44.738,51.245,45.551z"/><path fill="#FFFFFF" d="M80.878,100H57.395c-1.567,3-2.9,5-3.74,6h26.386c0.562,0,1.146-0.707,1.754-1.018    C81.674,104.327,81.33,103,80.878,100z"/><path fill="#FFFFFF" d="M107.288,100.997c0-0.33,0.022,0.003,0.041-0.997H88.604c0.465,2,0.812,2.52,0.967,2.967    c0.531-0.041,1.062-0.157,1.59-0.157c4.011,0,7.581,1.19,10.18,3.19h6.759C107.566,105,107.288,102.757,107.288,100.997z"/><path fill="#FFFFFF" d="M84.246,49h17.301c-0.028-1-0.057-0.696-0.057-1.043c0-1.76,0.403-3.957,1.14-4.957H91.302    c-1.744,1-3.777,1.908-6.014,2.37C85.149,45.853,84.763,47,84.246,49z"/><path fill="#FFFFFF" d="M48.28,100h-6.063c1.539,1,3.063,1.066,4.512,1.922C46.991,101.596,47.536,101,48.28,100z"/><path fill="#FFFFFF" d="M120,83.115V64.743c-2-0.05-4-0.464-6-1.202v23.17c1-0.859,1.955-1.624,3.019-2.246    C117.988,83.898,119,83.451,120,83.115z"/><path fill="#FFFFFF" d="M41.161,100.094C40.972,99.911,41,99.658,41,99.376V76.232c0,0.032-0.465,0.062-0.583,0.085    c0.026,0.412,0.111,0.822,0.111,1.229c0,5.386-2.528,9.976-5.528,12.512v9.317c0,0.283-0.126,0.562-0.093,0.836    c1.044-0.271,2.146-0.423,3.292-0.423C39.177,99.789,40.169,99.897,41.161,100.094z"/><path fill="#FFFFFF" d="M38.507,68.467C38.886,68.456,40,68.429,41,68.392V51.559c-1,0.313-2.656,0.475-3.973,0.475    c-0.695,0-1.027-0.061-2.027-0.15v11.599C36,64.886,37.587,66.57,38.507,68.467z"/></g><g><defs><path id="a" d="M113.477,61.201l-23.118,4.948l19.402-7.193c-5.745-4.439-7.954-11.445-4.891-16.293     c3.305-5.228,11.482-5.964,18.267-1.641c6.784,4.321,9.604,12.063,6.301,17.293C126.499,62.963,119.713,64.049,113.477,61.201     L113.477,61.201z M122.504,43.724c0-0.397-0.356-0.721-0.795-0.721h-8.412c-0.439,0-0.794,0.324-0.794,0.721v14.56     c0,0.397,0.354,0.72,0.794,0.72h8.412c0.438,0,0.795-0.322,0.795-0.72V43.724L122.504,43.724z M113.614,45.165h7.777v10.667     h-7.777V45.165L113.614,45.165z M117.582,56.553c0.525,0,0.952,0.387,0.952,0.865c0,0.479-0.427,0.866-0.952,0.866     s-0.952-0.387-0.952-0.866C116.63,56.94,117.057,56.553,117.582,56.553L117.582,56.553z M83.713,43.239l-6.579,22.91     l2.243-22.806c-7.22-0.658-12.822-5.385-12.822-11.127c0-6.191,6.512-11.212,14.547-11.212c8.034,0,14.546,5.021,14.546,11.212     C95.647,37.722,90.498,42.29,83.713,43.239L83.713,43.239z M74.43,29.173c0-0.163-0.139-0.296-0.308-0.296h-1.081     c-0.171,0-0.309,0.133-0.309,0.296v4.824c0,0.164,0.138,0.298,0.309,0.298h1.081c0.169,0,0.308-0.134,0.308-0.298V29.173     L74.43,29.173z M74.55,34.516l1.617,4.008c0.066,0.165,0.259,0.296,0.43,0.296h1.775c0.172,0,0.256-0.132,0.189-0.296     l-1.617-4.008c-0.066-0.163-0.259-0.296-0.43-0.296h-1.775C74.567,34.22,74.483,34.354,74.55,34.516L74.55,34.516z      M78.832,29.471c0-0.164-0.139-0.298-0.308-0.298h-3.399c-0.17,0-0.308,0.134-0.308,0.298v4.155c0,0.165,0.138,0.298,0.308,0.298     h3.399c0.169,0,0.308-0.134,0.308-0.298V29.471L78.832,29.471z M86.015,26.843c0-0.355-0.293-0.513-0.635-0.361l-5.783,2.553     c-0.083,0.036-0.146,0.197-0.146,0.361v4.375c0,0.165,0.063,0.326,0.146,0.361l5.783,2.555c0.342,0.149,0.635-0.008,0.635-0.363     V26.843L86.015,26.843z M87.714,26.725c0-0.165-0.138-0.296-0.309-0.296H86.71c-0.171,0-0.31,0.132-0.31,0.296v9.723     c0,0.163,0.139,0.296,0.31,0.296h0.695c0.171,0,0.309-0.133,0.309-0.296V26.725L87.714,26.725z M48.402,45.222l18.152,17.387     L44.891,47.776c-6.317,3.572-13.601,2.872-16.845-1.857c-3.5-5.099-0.974-12.943,5.643-17.519     c6.615-4.578,14.815-4.153,18.314,0.946C55.113,33.878,53.454,40.574,48.402,45.222L48.402,45.222z M38.196,29.253l-0.506-0.212     c-0.278-0.115-0.601,0.017-0.716,0.296l-1.828,4.396c-0.117,0.28,0.015,0.603,0.295,0.718l0.506,0.211     c0.28,0.117,0.601-0.015,0.716-0.294l1.83-4.396C38.608,29.692,38.476,29.37,38.196,29.253L38.196,29.253z M45.008,33.805     l-1.819-4.388c-0.115-0.28-0.435-0.412-0.713-0.294l-0.503,0.21c-0.278,0.117-0.41,0.438-0.293,0.718l1.817,4.387     c0.117,0.28,0.436,0.412,0.714,0.295l0.503-0.21C44.993,34.405,45.123,34.085,45.008,33.805L45.008,33.805z M48.503,34.396     c0-0.506-0.409-0.917-0.915-0.917h-2.125l0.257,0.621c0.117,0.28-0.015,0.601-0.293,0.718l-1.511,0.633     c-0.278,0.116-0.598-0.016-0.713-0.296l-0.693-1.675h-4.884l-0.667,1.607c-0.117,0.28-0.438,0.412-0.718,0.296l-1.517-0.635     c-0.28-0.117-0.412-0.438-0.296-0.718l0.229-0.55h-2.24c-0.505,0-0.913,0.411-0.913,0.917v1.281c0,0.506,0.408,0.917,0.913,0.917     h0.016l1.291,5.967c0.052,0.246,0.342,0.442,0.646,0.442h11.206c0.305,0,0.593-0.197,0.646-0.442l1.291-5.967h0.075     c0.506,0,0.915-0.411,0.915-0.917V34.396L48.503,34.396z M44.474,41.789c-0.317,0-0.545-0.213-0.51-0.482l0.458-3.464     c0.046-0.34,0.379-0.622,0.746-0.622c0.366,0,0.615,0.282,0.557,0.622l-0.593,3.464C45.086,41.575,44.791,41.789,44.474,41.789     L44.474,41.789z M41.6,41.789c-0.317,0-0.566-0.213-0.557-0.482l0.124-3.464c0.012-0.34,0.318-0.622,0.684-0.622     s0.643,0.282,0.617,0.622l-0.257,3.464C42.191,41.575,41.917,41.789,41.6,41.789L41.6,41.789z M38.536,41.789     c-0.317,0-0.589-0.213-0.607-0.482l-0.235-3.464c-0.024-0.34,0.254-0.622,0.621-0.622s0.671,0.282,0.682,0.622l0.099,3.464     C39.104,41.575,38.854,41.789,38.536,41.789L38.536,41.789z M35.663,41.789c-0.317,0-0.609-0.213-0.654-0.482l-0.57-3.464     c-0.055-0.34,0.195-0.622,0.56-0.622c0.366,0,0.7,0.282,0.743,0.622l0.436,3.464C36.211,41.575,35.98,41.789,35.663,41.789     L35.663,41.789z M36.928,70.507l26.981-0.817l-25.826,5.014c1.12,7.191-2.081,13.798-7.627,15.196     c-5.983,1.508-12.417-3.614-14.373-11.438c-1.957-7.824,1.308-15.39,7.291-16.897C28.691,60.226,34.359,64.13,36.928,70.507     L36.928,70.507z M30.627,70.885c0.119-0.308,0.781-3.036-1.249-4.598c-1.519-1.169-2.139-1.283-2.139-1.283     s-0.617,0.114-2.136,1.283c-2.029,1.562-1.366,4.29-1.247,4.598c0.12,0.308-0.303,0.423-0.213,1.141     c0.091,0.718,0.565,0.762,0.57,0.783c0.204,0.77,0.718,1.592,0.926,1.818c0.208,0.227,0.487,0.711,0.072,1.462     c-0.782,1.408-2.394,1.311-3.775,2.209c-1.382,0.898-0.819,3.458-0.819,3.458c2.505,1.571,6.623,1.211,6.623,1.211     s4.124,0.36,6.631-1.211c0,0,0.565-2.56-0.819-3.458c-1.385-0.898-2.997-0.801-3.778-2.209c-0.417-0.751-0.139-1.236,0.07-1.462     c0.208-0.226,0.723-1.048,0.928-1.818c0.005-0.021,0.479-0.065,0.57-0.783C30.932,71.308,30.507,71.192,30.627,70.885     L30.627,70.885z M47.148,104.961l22.05-27.304l-18.85,30.239c4.759,5.491,5.548,12.796,1.591,16.941     c-4.267,4.472-12.428,3.571-18.229-2.009c-5.801-5.581-7.043-13.731-2.776-18.202C34.727,100.653,41.594,100.932,47.148,104.961     L47.148,104.961z M48.181,117.449c2.139-2.836,1.628-6.909-1.141-9.097c-2.771-2.188-6.75-1.661-8.891,1.177     c-2.139,2.836-1.628,6.909,1.143,9.098C42.061,120.813,46.042,120.287,48.181,117.449L48.181,117.449z M36.654,122.213     c0.676,0.533,1.605,0.788,1.605,0.788l2.066-2.738c0,0-0.824-0.31-1.5-0.843c-0.704-0.556-1.26-1.337-1.26-1.337l-2.066,2.74     C35.5,120.823,35.951,121.656,36.654,122.213L36.654,122.213z M39.764,110.837c1.452-1.926,4.156-2.284,6.037-0.798     c1.882,1.484,2.229,4.251,0.775,6.178c-1.453,1.928-4.155,2.284-6.037,0.8C38.658,115.53,38.31,112.765,39.764,110.837     L39.764,110.837z M84.041,106.522l-5.145-27.979l9.315,26.791c7.155-1.174,13.756,1.997,15.186,7.558     c1.54,5.996-3.517,12.491-11.296,14.505c-7.78,2.016-15.336-1.211-16.876-7.207C73.856,114.859,77.707,109.144,84.041,106.522     L84.041,106.522z M89.004,124.008c4.191,0,7.502-3.311,7.502-7.504c0-4.194-3.311-7.504-7.502-7.504     c-4.194,0-7.504,3.31-7.504,7.504C81.5,120.697,84.81,124.008,89.004,124.008L89.004,124.008z M85.625,112.841     c-0.44,1.191-0.704,2.384-0.75,3.332h-2.67c0.066-1.655,0.684-3.134,1.699-4.26C84.367,112.245,84.965,112.553,85.625,112.841     L85.625,112.841z M85.625,120.167c-0.66,0.288-1.258,0.596-1.721,0.928c-1.016-1.126-1.633-2.604-1.699-4.261h2.67     C84.897,117.763,85.163,118.976,85.625,120.167L85.625,120.167z M87.105,123.035c-1.037-0.242-1.965-0.771-2.738-1.478     c0.42-0.31,0.928-0.597,1.503-0.839C86.178,121.558,86.598,122.352,87.105,123.035L87.105,123.035z M88.672,120.013v3.311     c-0.222,0-0.441-0.022-0.685-0.066c-0.618-0.815-1.147-1.787-1.545-2.78C87.193,120.211,87.965,120.057,88.672,120.013     L88.672,120.013z M85.537,116.834h3.135v2.494c-0.751,0.044-1.612,0.266-2.45,0.619     C85.824,118.888,85.581,117.827,85.537,116.834L85.537,116.834z M86.222,113.061c0.838,0.354,1.699,0.574,2.45,0.618v2.494     h-3.135C85.581,115.137,85.824,114.1,86.222,113.061L86.222,113.061z M87.987,109.751c0.243-0.044,0.463-0.067,0.685-0.067v3.312     c-0.729-0.044-1.522-0.221-2.252-0.486C86.84,111.494,87.392,110.568,87.987,109.751L87.987,109.751z M84.367,111.45     c0.773-0.706,1.701-1.235,2.738-1.501c-0.487,0.663-0.928,1.479-1.259,2.316C85.273,112.023,84.766,111.737,84.367,111.45     L84.367,111.45z M91.584,112.509c-0.728,0.266-1.522,0.442-2.25,0.486v-3.312c0.22,0,0.441,0.023,0.684,0.067     C90.613,110.568,91.166,111.494,91.584,112.509L91.584,112.509z M92.468,116.173h-3.134v-2.494     c0.751-0.044,1.61-0.265,2.448-0.618C92.18,114.1,92.424,115.137,92.468,116.173L92.468,116.173z M91.782,119.947     c-0.838-0.354-1.697-0.575-2.448-0.619v-2.494h3.134C92.424,117.827,92.18,118.888,91.782,119.947L91.782,119.947z      M90.018,123.257c-0.242,0.044-0.464,0.066-0.684,0.066v-3.311c0.707,0.044,1.479,0.198,2.229,0.464     C91.166,121.47,90.635,122.441,90.018,123.257L90.018,123.257z M93.637,121.558c-0.771,0.706-1.699,1.235-2.736,1.478     c0.508-0.684,0.928-1.478,1.235-2.316C92.711,120.961,93.217,121.248,93.637,121.558L93.637,121.558z M93.129,116.834h2.672     c-0.067,1.656-0.686,3.135-1.7,4.261c-0.464-0.332-1.06-0.64-1.722-0.928C92.843,118.976,93.107,117.763,93.129,116.834     L93.129,116.834z M92.379,112.841c0.662-0.288,1.258-0.596,1.722-0.928c1.015,1.126,1.633,2.604,1.7,4.26h-2.672     C93.085,115.225,92.819,114.032,92.379,112.841L92.379,112.841z M90.9,109.949c1.037,0.266,1.965,0.795,2.736,1.501     c-0.397,0.287-0.905,0.573-1.478,0.815C91.828,111.428,91.387,110.612,90.9,109.949L90.9,109.949z M90.358,77.657l22.289,13.527     c4.178-5.948,11.056-8.458,16.009-5.586c5.341,3.097,6.414,11.27,2.397,18.255c-4.018,6.986-11.604,10.14-16.944,7.043     c-4.749-2.753-6.115-9.514-3.539-15.891L90.358,77.657L90.358,77.657z M117.478,95.115c0-0.378-0.301-0.685-0.672-0.685h-2.421     c-0.371,0-0.673,0.307-0.673,0.685v5.88c0,0.378,0.302,0.684,0.673,0.684h2.421c0.371,0,0.672-0.306,0.672-0.684V95.115     L117.478,95.115z M122.318,88.688c0-0.378-0.302-0.684-0.673-0.684h-2.419c-0.373,0-0.673,0.306-0.673,0.684v12.444     c0,0.378,0.3,0.684,0.673,0.684h2.419c0.371,0,0.673-0.306,0.673-0.684V88.688L122.318,88.688z M127.158,91.833     c0-0.378-0.302-0.685-0.673-0.685h-2.419c-0.371,0-0.672,0.307-0.672,0.685v9.299c0,0.378,0.301,0.684,0.672,0.684h2.419     c0.371,0,0.673-0.306,0.673-0.684V91.833L127.158,91.833z M112.503,103.32c0,0.377,0.301,0.684,0.672,0.684h14.655     c0.372,0,0.673-0.307,0.673-0.684v-0.41c0-0.378-0.301-0.685-0.673-0.685h-14.655c-0.371,0-0.672,0.307-0.672,0.685V103.32     L112.503,103.32z"/></defs><use xlink:href="#a" overflow="visible" fill-rule="evenodd" clip-rule="evenodd" fill="#FFFFFF"/><clipPath><use xlink:href="#a" overflow="visible"/></clipPath></g></g><text x="0" y="164" fill="#FFFFFF" font-size="5px" font-weight="bold" font-family="'Helvetica Neue', Helvetica, Arial-Unicode, Arial, Sans-serif">Created by YuguDesign </text><text x="0" y="169" fill="#FFFFFF" font-size="5px" font-weight="bold" font-family="'Helvetica Neue', Helvetica, Arial-Unicode, Arial, Sans-serif">from the Noun Project</text></svg>