<svg xmlns="http://www.w3.org/2000/svg" xmlns:xlink="http://www.w3.org/1999/xlink" version="1.1" x="0px" y="0px" viewBox="0 0 100 125" enable-background="new 0 0 100 100" xml:space="preserve"><path fill="#000000" d="M72.333,10.04c0-0.791,0.107-3.096-2.672-3.681C63.627,5.088,50,5,50,5S36.374,5.088,30.34,6.359  c-2.779,0.584-2.673,2.89-2.673,3.681c0,0.79,0,79.13,0,79.919c0,0.791-0.106,3.098,2.672,3.682C36.373,94.91,50,95,50,95  s13.627-0.09,19.66-1.359c2.78-0.584,2.673-2.891,2.673-3.682C72.333,89.17,72.333,10.83,72.333,10.04z M50,8.432  c0.538,0,0.975,0.437,0.975,0.975c0,0.538-0.437,0.975-0.975,0.975s-0.975-0.437-0.975-0.975C49.025,8.869,49.462,8.432,50,8.432z   M70.389,84.461H29.611V12.819h40.777V84.461z"/><text x="0" y="115" fill="#000000" font-size="5px" font-weight="bold" font-family="'Helvetica Neue', Helvetica, Arial-Unicode, Arial, Sans-serif">Created by Martin Jordan</text><text x="0" y="120" fill="#000000" font-size="5px" font-weight="bold" font-family="'Helvetica Neue', Helvetica, Arial-Unicode, Arial, Sans-serif">from the Noun Project</text></svg>