<svg xmlns="http://www.w3.org/2000/svg" xmlns:xlink="http://www.w3.org/1999/xlink" version="1.0" x="0px" y="0px" viewBox="0 0 100 125" enable-background="new 0 0 100 100" xml:space="preserve"><rect x="52.303" y="18.889" fill="none" stroke="#000000" stroke-linecap="round" stroke-linejoin="round" stroke-miterlimit="10" width="3.593" height="3.59"/><path fill="none" stroke="#000000" stroke-linecap="round" stroke-linejoin="round" stroke-miterlimit="10" d="M87.608,18.889  h-67.01c-1.321,0-2.395,1.072-2.395,2.393v6.497h55.731c1.131,0,2.049,0.919,2.049,2.05v36.923h11.622  c1.322,0,2.395-1.071,2.395-2.392V21.282C90,19.96,88.928,18.889,87.608,18.889z"/><path fill="none" stroke="#000000" stroke-linecap="round" stroke-linejoin="round" stroke-miterlimit="10" d="M21.796,22.479v5.299  h52.139c1.131,0,2.049,0.919,2.049,2.05v33.334h10.428V22.479H21.796z"/><rect x="43.673" y="27.778" fill="none" stroke="#000000" stroke-linecap="round" stroke-linejoin="round" stroke-miterlimit="10" width="3.079" height="3.078"/><path fill="none" stroke="#000000" stroke-linecap="round" stroke-linejoin="round" stroke-miterlimit="10" d="M59.576,36.665  c0.943,0,1.709,0.767,1.709,1.71v30.771c0,0.943-0.77,1.709-1.712,1.709H11.711c-0.943,0-1.712-0.766-1.712-1.709V38.375  c0-0.943,0.769-1.71,1.712-1.71H59.576z"/><path fill="none" stroke="#000000" stroke-linecap="round" stroke-linejoin="round" stroke-miterlimit="10" d="M73.935,27.778  H16.498c-1.133,0-2.052,0.919-2.052,2.05v6.836h45.13c0.943,0,1.709,0.767,1.709,1.71v30.428h12.646  c1.134,0,2.052-0.918,2.052-2.049V29.829C75.983,28.697,75.065,27.778,73.935,27.778z"/><path fill="none" stroke="#000000" stroke-linecap="round" stroke-linejoin="round" stroke-miterlimit="10" d="M17.524,30.856v5.809  h42.052c0.943,0,1.709,0.767,1.709,1.71v27.351h11.621V30.856H17.524z"/><rect x="12.563" y="39.231" fill="none" stroke="#000000" stroke-linecap="round" stroke-linejoin="round" stroke-miterlimit="10" width="46.156" height="29.062"/><rect x="34.357" y="36.665" fill="none" stroke="#000000" stroke-linecap="round" stroke-linejoin="round" stroke-miterlimit="10" width="2.566" height="2.566"/><rect x="33.077" y="68.293" fill="none" stroke="#000000" stroke-linecap="round" stroke-linejoin="round" stroke-miterlimit="10" width="5.129" height="2.563"/><polygon fill="none" stroke="#000000" stroke-linecap="round" stroke-linejoin="round" stroke-miterlimit="10" points="  42.48,81.111 28.805,81.111 31.368,70.855 39.914,70.855 "/><path fill="none" stroke="#000000" stroke-linecap="round" stroke-linejoin="round" stroke-miterlimit="10" d="M60.93,70.139  c-0.313,0.423-0.79,0.717-1.356,0.717h-8.719l2.566,10.256h10.256L60.93,70.139z"/><polygon fill="none" stroke="#000000" stroke-linecap="round" stroke-linejoin="round" stroke-miterlimit="10" points="  39.914,70.855 42.48,81.111 53.421,81.111 50.854,70.855 "/><polygon fill="none" stroke="#000000" stroke-linecap="round" stroke-linejoin="round" stroke-miterlimit="10" points="  31.195,44.871 26.75,44.871 26.75,49.314 26.75,44.871 "/><polygon fill="none" stroke="#000000" stroke-linecap="round" stroke-linejoin="round" stroke-miterlimit="10" points="  44.53,49.315 44.53,44.869 40.085,44.869 44.53,44.869 "/><polygon fill="none" stroke="#000000" stroke-linecap="round" stroke-linejoin="round" stroke-miterlimit="10" points="  40.085,62.651 44.53,62.651 44.53,58.205 44.53,62.651 "/><polygon fill="none" stroke="#000000" stroke-linecap="round" stroke-linejoin="round" stroke-miterlimit="10" points="  26.75,58.202 26.75,62.651 31.195,62.651 26.75,62.651 "/><path fill="none" stroke="#000000" stroke-linecap="round" stroke-linejoin="round" stroke-miterlimit="10" d="M26.75,44.871  l17.78,17.781L26.75,44.871z"/><path fill="none" stroke="#000000" stroke-linecap="round" stroke-linejoin="round" stroke-miterlimit="10" d="M26.75,62.651  l17.78-17.781L26.75,62.651z"/><text x="0" y="115" fill="#000000" font-size="5px" font-weight="bold" font-family="'Helvetica Neue', Helvetica, Arial-Unicode, Arial, Sans-serif">Created by Danil Polshin</text><text x="0" y="120" fill="#000000" font-size="5px" font-weight="bold" font-family="'Helvetica Neue', Helvetica, Arial-Unicode, Arial, Sans-serif">from the Noun Project</text></svg>