<svg xmlns="http://www.w3.org/2000/svg" xmlns:xlink="http://www.w3.org/1999/xlink" version="1.1" x="0px" y="0px" viewBox="0 0 100 125" enable-background="new 0 0 100 100" xml:space="preserve"><g><path d="M83.147,6.433C82.952,6.002,82.303,5,80.5,5h-61c-1.803,0-2.453,1.002-2.648,1.433c-0.196,0.431-0.522,1.58,0.666,2.936   l21.708,24.809c0.667,0.763,1.275,2.38,1.275,3.394V69c0,1.928,1.131,2.791,2.251,2.791c0,0,0,0,0,0   c0.716,0,1.414-0.336,2.077-0.998l12.543-16.545C58.591,52.975,59.5,50.742,59.5,49V37.571c0-1.013,0.607-2.631,1.275-3.394   L82.482,9.369C83.67,8.012,83.343,6.863,83.147,6.433z"/><path d="M53.051,73.515C52.104,73.515,51,74.166,51,76c0,3.396-1.747,4.311-3.769,5.371C45.569,82.242,43.5,83.326,43.5,86   c0,4.963,4.038,9,9,9c4.963,0,9-4.037,9-9c0-2.651-2.148-6.207-3.071-7.612C56.968,76.165,54.849,73.515,53.051,73.515z"/></g><text x="0" y="115" fill="#000000" font-size="5px" font-weight="bold" font-family="'Helvetica Neue', Helvetica, Arial-Unicode, Arial, Sans-serif">Created by Ralf Schmitzer</text><text x="0" y="120" fill="#000000" font-size="5px" font-weight="bold" font-family="'Helvetica Neue', Helvetica, Arial-Unicode, Arial, Sans-serif">from the Noun Project</text></svg>