<svg version="1" xmlns="http://www.w3.org/2000/svg" viewBox="0 0 72.613 100"><circle fill="#fff" cx="23.177" cy="18.7" r="4.173"/><circle fill="#fff" cx="49.436" cy="18.7" r="4.173"/><path fill="#fff" d="M0 0v39.225h31.896v3.34L0 42.567V100h18.544l14.114-14.114-8.111-8.11 8.111-8.111-2.371-2.37-10.48 10.481 4.598 4.599-9.279 9.28h-6.78V50.912h55.921v40.742h-6.778l-9.28-9.28 4.599-4.599-10.483-10.481-2.371 2.37 8.112 8.111-8.112 8.11L54.069 100h18.544V42.567l-31.896-.001v-3.34h31.896V0H0zm64.267 30.879H8.346V7.75h55.921v23.129z"/><path fill="#fff" d="M29.488 77.774l6.817-6.817 6.818 6.818-6.817 6.817z"/></svg>
