<svg xmlns="http://www.w3.org/2000/svg" xmlns:xlink="http://www.w3.org/1999/xlink" version="1.1" x="0px" y="0px" viewBox="0 0 100 100" enable-background="new 0 0 100 100" xml:space="preserve"><g><path fill="#fff" d="M49.597,91.061C26.956,91.061,8.536,72.643,8.536,50c0-22.641,18.42-41.061,41.061-41.061   S90.658,27.359,90.658,50C90.658,72.643,72.238,91.061,49.597,91.061z M49.597,12.039c-20.932,0-37.962,17.029-37.962,37.961   s17.03,37.961,37.962,37.961c20.932,0,37.962-17.029,37.962-37.961S70.528,12.039,49.597,12.039z"/><path fill="#fff" d="M65.051,26.104c0.644-1.391,0.039-3.039-1.35-3.684c-1.391-0.645-3.039-0.041-3.684,1.35l-15.233,29.1   l-0.638,1.373c-0.698,1.506-0.461,3.205,0.469,4.445l3.731,1.73c1.547-0.09,2.997-1.008,3.695-2.514l0.634-1.367L65.051,26.104z"/><path fill="#fff" d="M48.407,61.797l-2.441-1.133l-2.444-1.133c0,0-1.156,2.881-5.75,3.088l-0.024,14.92l3.611-7.787   c-0.567-0.439-0.779-1.227-0.464-1.906c0.366-0.791,1.304-1.135,2.094-0.768s1.134,1.305,0.768,2.096   c-0.315,0.68-1.053,1.025-1.757,0.877l-3.61,7.787l11.373-9.656C46.955,64.539,48.407,61.797,48.407,61.797z"/></g></svg>