<svg xmlns="http://www.w3.org/2000/svg" xmlns:xlink="http://www.w3.org/1999/xlink" version="1.1" x="0px" y="0px" viewBox="0 0 100 100" enable-background="new 0 0 100 100" xml:space="preserve"><g><path fill="#fff" d="M50,91.061c-22.641,0-41.061-18.42-41.061-41.06C8.939,27.359,27.359,8.939,50,8.939   S91.061,27.359,91.061,50C91.061,72.641,72.641,91.061,50,91.061z M50,12.038c-20.932,0-37.962,17.03-37.962,37.962   c0,20.931,17.03,37.96,37.962,37.96c20.932,0,37.962-17.029,37.962-37.96C87.962,29.068,70.932,12.038,50,12.038z"/><path fill="#fff" d="M70.014,47.412v-5.253c0-11.326-8.824-20.548-19.65-20.548c-10.848,0-19.661,9.222-19.661,20.548v4.765   c-1.331,0.728-2.264,2.08-2.264,3.707v7.276c0,2.016,1.422,3.629,3.299,4.084c0.454,1.867,2.057,3.285,4.07,3.285   c2.365,0,4.276-1.908,4.276-4.273V48.264c0-2.364-1.911-4.275-4.276-4.275c-0.193,0-0.363,0.091-0.545,0.115v-1.946   c0-8.813,6.778-15.977,15.101-15.977c8.325,0,15.09,7.164,15.09,15.977v2.081c-0.398-0.123-0.808-0.25-1.262-0.25   c-2.365,0-4.275,1.911-4.275,4.275v12.738c0,2.365,1.91,4.273,4.275,4.273c1.956,0,3.48-1.352,3.979-3.137   c-1.272,6.596-6.56,11.723-13.201,12.85c-0.398-1.08-1.24-1.945-2.456-1.945c-1.559,0-2.82,1.262-2.82,2.82s1.261,2.82,2.82,2.82   c1.216,0,2.058-0.865,2.456-1.943c8.017-1.229,14.237-7.723,15.09-15.863c0.852-0.752,1.5-1.719,1.5-2.971V50.63   C71.56,49.323,70.946,48.197,70.014,47.412z"/></g></svg>