<svg xmlns="http://www.w3.org/2000/svg" xmlns:xlink="http://www.w3.org/1999/xlink" version="1.1" x="0px" y="0px" viewBox="0 0 100 100" enable-background="new 0 0 100 100" xml:space="preserve"><g><path fill="#fff" d="M81.451,57.263l-3.902-3.145c0.236-0.488,0.391-1.003,0.447-1.539c1.223-11.502-5.221-13.132-12.887-13.132   c-2.85,0-5.191,0.331-7.088,0.897H41.643c-1.895-0.566-4.236-0.897-7.086-0.897c-7.668,0-14.111,1.63-12.889,13.132   c0.064,0.606,0.25,1.188,0.541,1.732l-3.66,2.951c-0.77,0.71-0.818,1.91-0.109,2.68c0.711,0.77,1.91,0.818,2.68,0.109l3.291-3.467   c3.32,2.123,9.318,2.538,16.264-0.825c3.881-1.878,6.352-4.662,7.023-7.402h4.271c0.672,2.74,3.143,5.524,7.021,7.402   c7.092,3.434,13.197,2.93,16.473,0.691l3.416,3.601c0.77,0.709,1.971,0.66,2.68-0.109C82.27,59.173,82.221,57.973,81.451,57.263z    M51.789,46.85h-3.912c-0.004-1.179-0.369-2.313-1.123-3.324h6.158C52.156,44.537,51.793,45.671,51.789,46.85z M53.318,43.036   h-6.971c-0.715-0.781-1.684-1.476-2.932-2.04H56.25C55.002,41.561,54.031,42.255,53.318,43.036z"/><path fill="#fff" d="M50,90.939c-22.641,0-41.061-18.419-41.061-41.061C8.939,27.238,27.359,8.818,50,8.818   s41.061,18.42,41.061,41.061C91.061,72.521,72.641,90.939,50,90.939z M50,11.917c-20.932,0-37.963,17.03-37.963,37.962   c0,20.933,17.031,37.962,37.963,37.962s37.961-17.029,37.961-37.962C87.961,28.947,70.932,11.917,50,11.917z"/></g></svg>