<svg xmlns="http://www.w3.org/2000/svg" xmlns:xlink="http://www.w3.org/1999/xlink" version="1.1" x="0px" y="0px" viewBox="0 0 100 125" enable-background="new 0 0 100 100" xml:space="preserve"><path fill="none" path="#fff" d="M47.447,48.283c-1.138,0-2.203,0.441-3.003,1.243c-1.658,1.662-1.644,4.374,0.032,6.045  c0.815,0.813,1.896,1.261,3.043,1.261c1.137,0,2.204-0.441,3.003-1.243c1.658-1.662,1.644-4.373-0.033-6.046  C49.674,48.73,48.593,48.283,47.447,48.283z M49.167,54.237c-0.437,0.438-1.022,0.681-1.647,0.681c-0.638,0-1.237-0.249-1.69-0.702  c-0.93-0.926-0.941-2.424-0.029-3.337c0.438-0.439,1.023-0.681,1.647-0.681c0.637,0,1.237,0.248,1.691,0.7  C50.066,51.825,50.079,53.323,49.167,54.237z"/><path fill="none" path="#fff" d="M64.899,24.622c-2.781,0-5.395,1.085-7.357,3.054l-2.445,2.766l-4.479,4.488l-1.252,1.419  c-1.583,1.978-6.982,8.075-14.002,9.01c0,0-0.185,0.024-0.411,0.055c-0.226,0.031-0.412,0.241-0.415,0.47l-0.005,0.415  c-0.001,0.137-0.206,13.279-5.506,22.369c-0.151,0.262-0.472,0.412-0.715,0.378c-0.146-0.021-0.294-0.03-0.442-0.03  c-0.849,0-1.642,0.329-2.238,0.926c-1.233,1.238-1.223,3.257,0.023,4.5c0.605,0.605,1.409,0.938,2.263,0.938  c0.847,0,1.642-0.328,2.237-0.926c0.692-0.693,1-1.65,0.9-2.58c-0.033-0.301,0.104-0.665,0.364-0.817  c9.076-5.322,22.218-5.561,22.355-5.563c0,0,0.186-0.002,0.414-0.006c0.229-0.003,0.438-0.189,0.469-0.416l0.054-0.411  c0.918-7.021,7.002-12.436,8.975-14.023l1.415-1.261l4.477-4.487l2.678-2.533c4.047-4.057,4.039-10.649-0.018-14.696  C70.276,25.701,67.67,24.622,64.899,24.622z M28.801,73.101c-0.234,0.234-0.548,0.364-0.883,0.364c-0.343,0-0.666-0.135-0.911-0.379  c-0.499-0.499-0.508-1.303-0.02-1.794c0.234-0.234,0.547-0.363,0.883-0.363c0.254,0,0.5,0.074,0.711,0.215  c0,0,0.049,0.033,0.109,0.073s0.143,0.121,0.182,0.181l0.073,0.108C29.282,72.009,29.221,72.679,28.801,73.101z M61.881,49.635  c-2.422,2.042-7.438,6.938-8.835,13.433c-0.063,0.295-0.351,0.546-0.652,0.562c-3.539,0.19-13.217,1.079-20.927,5.203  c-0.267,0.143-0.359,0.049-0.218-0.217c4.104-7.722,4.97-17.401,5.151-20.94c0.016-0.302,0.266-0.591,0.561-0.654  c6.491-1.412,11.373-6.439,13.41-8.866c0.194-0.231,0.521-0.249,0.734-0.036l10.809,10.781  C62.128,49.112,62.11,49.439,61.881,49.635z M67.837,43.923l-3.688,3.697c-0.213,0.214-0.56,0.214-0.773,0.001L52.378,36.65  c-0.213-0.213-0.213-0.56,0-0.772l3.688-3.697c0.214-0.214,0.559-0.214,0.773,0l9.598,9.573l1.399,1.396  C68.05,43.361,68.05,43.709,67.837,43.923z M70.901,41.002l-0.864,0.866c-0.214,0.214-0.56,0.215-0.773,0.002L58.034,30.668  c-0.214-0.213-0.215-0.56-0.002-0.773l0.865-0.866c1.602-1.606,3.732-2.491,6.002-2.491c2.261,0,4.387,0.879,5.987,2.476  C74.196,32.314,74.202,37.692,70.901,41.002z"/>\</svg>