<svg xmlns="http://www.w3.org/2000/svg" xmlns:xlink="http://www.w3.org/1999/xlink" version="1.1" x="0px" y="0px" viewBox="0 0 100 125" enable-background="new 0 0 100 100" xml:space="preserve"><path d="M9.3,65.6L7.1,44C7,43,7.3,41.9,8.2,41.2c1-0.8,2.6-1.1,3.8,0.2c0.8,0.9,1.2,3.9,1.4,4.7c0.5,2.8,0.9,6.9,1,9.7  c0,0.2,0,0.5,0,0.7c0.1,1.3,0.4,2.4,0.9,3.5c2.9,6.3,8.7,14.2,8.7,14.2l0.3,0.5c0.2,0.4,0.7,0.5,1.1,0.3c0.4-0.2,0.6-0.8,0.3-1.2  L18,61.3c-0.8-1.4-0.4-3.4,1.1-4.3c1.5-0.9,3.5-0.4,4.3,0.9l8,10.2c0.5,0.7,1.5,1.6,2.2,2.1c7.2,5.2,8.1,10.4,8.8,13.1  c0,0,0.1,0.6,0.1,1.5h0l0,0c0,0.7,0,1.6-0.1,2.5L41.8,96c0,0.6-0.5,1.1-1.1,1.1L27.2,97c-0.6,0-1.1-0.5-1.1-1.1l-0.3-7.1L13,73.4  c-1.9-2-3.2-4.3-3.6-7L9.3,65.6z M15.1,42.9c0.2,0.8,0.4,1.5,0.5,2.3c0.4,2.4,1,6.9,1.1,9.2c0,0.2,0,0.5,0,0.7  c0.3-0.2,0.6-0.5,0.9-0.6c0.4-0.2,0.8-0.4,1.2-0.6c0,0,0,0,0-0.1c-0.3-2.2-1.1-6.5-1.7-8.6C16.9,44.1,16.3,43.3,15.1,42.9z M19.4,46  c0.4,1.6,1.3,4.6,1.5,6.2l0.1,1.1c0,0.1,0,0.2,0,0.3c0.7,0,1.3,0.2,1.9,0.4c-0.2-1.4-1.2-4.3-1.5-5.7C21.2,47.2,20.5,46.4,19.4,46z   M88.1,41.4c-0.8,0.9-1.2,3.9-1.4,4.7c-0.5,2.8-0.9,6.9-1,9.7c0,0.2,0,0.5,0,0.7c-0.1,1.3-0.4,2.4-0.9,3.5  c-2.9,6.3-8.7,14.2-8.7,14.2l-0.3,0.5C75.5,75,75,75.2,74.7,75c-0.4-0.2-0.6-0.8-0.3-1.2L82,61.3c0.8-1.4,0.4-3.4-1.2-4.3  c-1.5-0.9-3.5-0.4-4.3,0.9l-8,10.2c-0.5,0.7-1.5,1.6-2.2,2.1c-7.2,5.2-8.1,10.4-8.8,13.1c0,0-0.1,0.6-0.1,1.5v0c0,0.7,0,1.6,0.1,2.5  l0.5,8.6c0,0.6,0.5,1.1,1.1,1.1L72.8,97c0.6,0,1.1-0.5,1.1-1.1l0.3-7.1L87,73.4c1.9-2,3.2-4.3,3.6-7l0.1-0.8L92.9,44  c0.1-1.1-0.3-2.2-1.1-2.8C90.8,40.4,89.3,40.1,88.1,41.4z M81.2,53.8C81.2,53.8,81.2,53.9,81.2,53.8c0.5,0.2,0.9,0.4,1.3,0.6  c0.3,0.2,0.6,0.4,0.9,0.6c0-0.2,0-0.5,0-0.7c0-2.3,0.6-6.8,1.1-9.2c0.1-0.7,0.3-1.5,0.5-2.3c-1.1,0.4-1.8,1.2-2,2.3  C82.2,47.4,81.5,51.6,81.2,53.8z M77,53.9c0.6-0.2,1.3-0.4,1.9-0.4c0-0.1,0-0.2,0-0.3l0.1-1.1c0.2-1.6,1.1-4.5,1.5-6.2  c-1.1,0.4-1.7,1.2-2,2.2C78.2,49.6,77.2,52.5,77,53.9z M80.9,18.4c0,6.9-5.6,12.6-12.6,12.6h-1.6c-2.4,5.2-7.1,9.2-12.9,10.4v7.9  h4.5c1.4,0,2.5,1.1,2.5,2.5v3.3h3.9v11.8H35.3V55.1h3.9v-3.3c0-1.4,1.1-2.5,2.5-2.5h4.5v-7.9c-5.7-1.2-10.5-5.2-12.9-10.4h-1.6  c-6.9,0-12.6-5.6-12.6-12.6V8.8h12.6V2.9h36.7v5.9h12.6V18.4z M31.7,24.6c0-0.4,0-0.8,0-1.2v-8.3h-6.2v3.3  C25.4,21.8,28.2,24.6,31.7,24.6L31.7,24.6z M44.9,55.7V62h10.2v-6.3H44.9z M60.2,17.8c-0.3-1-1.2-1.7-2.3-1.8l-3.9-0.3L52.4,12  c-0.4-1-1.4-1.6-2.4-1.6c-1.1,0-2,0.6-2.4,1.6l-1.5,3.7L42.1,16c-1.1,0.1-2,0.8-2.3,1.8c-0.3,1,0,2.1,0.8,2.8l3,2.5L42.7,27  c-0.2,0.8,0,1.6,0.5,2.2c0.8,1,2.3,1.3,3.5,0.6l3.4-2.1l3.4,2.1c0.4,0.3,0.9,0.4,1.4,0.4c0.8,0,1.6-0.4,2.1-1  c0.5-0.6,0.7-1.5,0.5-2.2l-0.9-3.8l3-2.5C60.2,19.9,60.5,18.8,60.2,17.8z M74.6,15.1h-6.2v8.3c0,0.4,0,0.8,0,1.2h0  c3.4,0,6.2-2.8,6.2-6.2V15.1z M50,14.5l-1.7,4.2l-4.6,0.3l3.5,2.9l-1.1,4.4L50,24l3.9,2.4L52.8,22l3.5-2.9l-4.6-0.3L50,14.5z"/><text x="0" y="115" fill="#000000" font-size="5px" font-weight="bold" font-family="'Helvetica Neue', Helvetica, Arial-Unicode, Arial, Sans-serif">Created by Gregor Črešnar</text><text x="0" y="120" fill="#000000" font-size="5px" font-weight="bold" font-family="'Helvetica Neue', Helvetica, Arial-Unicode, Arial, Sans-serif">from the Noun Project</text></svg>