<svg xmlns="http://www.w3.org/2000/svg" xmlns:xlink="http://www.w3.org/1999/xlink" version="1.1" x="0px" y="0px" viewBox="0 0 100 125" enable-background="new 0 0 100 100" xml:space="preserve"><path d="M87.475,12.525c-4.002-4.002-10.515-4.002-14.517,0c-0.763,0.763-0.763,2.001,0,2.764c0.763,0.763,2.001,0.763,2.764,0  c2.479-2.478,6.511-2.478,8.989,0c2.478,2.478,2.478,6.511,0,8.989c-0.045,0.045-0.079,0.097-0.119,0.145  c-0.048,0.04-0.1,0.073-0.145,0.119l-2.594,2.594l-14.94-14.94c-0.763-0.763-2.001-0.763-2.764,0L47.91,28.434  c-0.763,0.763-0.763,2.001,0,2.764c0.382,0.382,0.882,0.572,1.382,0.572s1-0.191,1.382-0.572l14.857-14.857l1.805,1.805  L32.426,53.056c-0.366,0.367-0.572,0.864-0.572,1.382c0,0.518,0.206,1.016,0.573,1.382l1.014,1.014l-4.871,4.871  c-0.366,0.367-0.572,0.864-0.572,1.382c0,0.518,0.206,1.016,0.573,1.382l2.098,2.098l-4.135,4.135c-0.763,0.763-0.763,2.001,0,2.764  c0.382,0.382,0.882,0.572,1.382,0.572s1-0.191,1.382-0.572l4.135-4.135l2.098,2.098c0.382,0.382,0.882,0.572,1.382,0.572  c0.5,0,1-0.191,1.382-0.572l4.871-4.871l1.015,1.015c0.382,0.382,0.882,0.572,1.382,0.572s1-0.191,1.382-0.572l36.292-36.292h0v0  l3.976-3.976c0.045-0.045,0.079-0.097,0.119-0.145c0.048-0.04,0.1-0.073,0.145-0.118C91.478,23.04,91.478,16.527,87.475,12.525z   M36.913,67.284l-2.098-2.098c0,0,0,0,0,0s0,0,0,0l-2.098-2.098l3.489-3.489l4.196,4.196L36.913,67.284z M45.562,63.427  l-1.014-1.014l0,0l-6.96-6.96c0,0,0,0-0.001,0l-1.014-1.014L70.1,20.911l8.989,8.989L45.562,63.427z M40.829,38.279  c-0.763-0.763-0.763-2.001,0-2.764l2.796-2.796c0.763-0.763,2.001-0.763,2.764,0c0.763,0.763,0.763,2.001,0,2.764l-2.796,2.796  c-0.382,0.382-0.882,0.572-1.382,0.572S41.211,38.661,40.829,38.279z M58.094,66.847v13.271c0,5.712-4.647,10.359-10.359,10.359  H19.882c-5.712,0-10.359-4.647-10.359-10.359V52.265c0-5.712,4.647-10.359,10.359-10.359h12.65c1.079,0,1.955,0.875,1.955,1.955  s-0.875,1.955-1.955,1.955h-12.65c-3.557,0-6.45,2.893-6.45,6.45v27.853c0,3.557,2.893,6.45,6.45,6.45h27.853  c3.557,0,6.45-2.893,6.45-6.45V66.847c0-1.079,0.875-1.955,1.955-1.955S58.094,65.768,58.094,66.847z"/><text x="0" y="115" fill="#000000" font-size="5px" font-weight="bold" font-family="'Helvetica Neue', Helvetica, Arial-Unicode, Arial, Sans-serif">Created by Gregor Črešnar</text><text x="0" y="120" fill="#000000" font-size="5px" font-weight="bold" font-family="'Helvetica Neue', Helvetica, Arial-Unicode, Arial, Sans-serif">from the Noun Project</text></svg>