<svg xmlns="http://www.w3.org/2000/svg" xmlns:xlink="http://www.w3.org/1999/xlink" version="1.1" x="0px" y="0px" viewBox="0 0 24 30" enable-background="new 0 0 24 24" xml:space="preserve"><g><g><path path="#FFFFFF" fill="none" d="M21,16v-2c0-1.6-1.3-3-3-3c-1.7,0-3,1.4-3,3v2h-1v6h8v-6H21z M19,16h-2v-2c0-0.6,0.4-1,1-1c0.6,0,1,0.4,1,1V16z"/><rect x="6" y="16" width="6" height="2"/><rect x="6" y="12" width="7" height="2"/><rect x="6" y="8" width="9" height="2"/></g><polygon points="19,2 19,9 17,9 17,4 6,4 6,6 4,6 4,20 12,20 12,22 2,22 2,5 5,2  "/></g></svg>