<svg xmlns="http://www.w3.org/2000/svg" xmlns:xlink="http://www.w3.org/1999/xlink" version="1.1" x="0px" y="0px" viewBox="0 0 100 125" enable-background="new 0 0 100 100" xml:space="preserve"><path fill="#000000" d="M74.475,43.615c0-0.302-0.244-0.547-0.547-0.547h-6.016V31.355c0-4.235-3.047-7.43-7.268-7.43H39.453  c-4.438,0-8.184,3.333-8.184,7.43v11.713h-5.195c-0.303,0-0.549,0.245-0.549,0.547v8.326c0,6.289,2.646,12.35,7.387,17.067  c4.512,4.49,10.865,7.065,17.371,7.065c13.377,0,24.191-10.827,24.191-24.133V43.615z M33.184,31.355c0-3.04,2.889-5.515,6.27-5.515  h21.191c3.182,0,5.352,2.319,5.352,5.515v11.713H33.184V31.355z M72.559,51.941c0,12.251-9.988,22.218-22.311,22.218  c-6.004,0-11.795-2.371-15.951-6.507c-4.377-4.355-6.855-9.936-6.855-15.711v-6.412c0-0.303,0.244-0.547,0.545-0.547h44.027  c0.301,0,0.545,0.244,0.545,0.547V51.941z"/><path fill="#000000" d="M54.025,58.691c-0.08-0.291,0.02-0.708,0.193-0.955c0.559-0.793,0.865-1.748,0.865-2.74  c0-2.633-2.143-4.775-4.777-4.775c-2.633,0-4.777,2.143-4.777,4.775c0,0.992,0.309,1.947,0.865,2.74  c0.174,0.247,0.275,0.664,0.193,0.955l-2.047,7.34c-0.082,0.291,0.098,0.526,0.4,0.526h10.732c0.301,0,0.48-0.235,0.4-0.526  L54.025,58.691z M53.152,64.645h-5.691c-0.301,0-0.48-0.237-0.398-0.528l1.684-6.038c0.08-0.291,0.043-0.615-0.084-0.725  c-0.127-0.11-0.23-0.198-0.23-0.198c-0.627-0.54-0.986-1.327-0.986-2.159c0-1.578,1.283-2.862,2.861-2.862s2.863,1.284,2.863,2.862  c0,0.832-0.359,1.619-0.988,2.159l-0.229,0.198c-0.129,0.109-0.166,0.434-0.084,0.725l1.684,6.038  C53.635,64.407,53.455,64.645,53.152,64.645z"/><text x="0" y="115" fill="#000000" font-size="5px" font-weight="bold" font-family="'Helvetica Neue', Helvetica, Arial-Unicode, Arial, Sans-serif">Created by www.yugudesign.com</text><text x="0" y="120" fill="#000000" font-size="5px" font-weight="bold" font-family="'Helvetica Neue', Helvetica, Arial-Unicode, Arial, Sans-serif">from the Noun Project</text></svg>