<svg xmlns="http://www.w3.org/2000/svg" xmlns:xlink="http://www.w3.org/1999/xlink" version="1.1" x="0px" y="0px" viewBox="0 0 100 125" enable-background="new 0 0 100 100" xml:space="preserve"><path fill="#000000" d="M80.62,30.86H51.5v-0.13l-0.34-0.31l-6.25-5.8v-3.24c0-1.18-1-2.15-2.23-2.15H39.1l-7.17-6.66l-7.18,6.66  h-3.1c-1.24,0-2.24,0.97-2.24,2.15v2.81l-6.28,5.83l-0.77,0.71v21.01c0,0.61,0.27,1.18,0.739,1.55c0.36,0.29,0.801,0.44,1.25,0.44  h9.511v17.23c0,3.87,3.159,7.02,7.029,7.02h19.09v4.199h-2.575c-0.775,0-1.404,0.631-1.404,1.404v2.521  c0,0.777,0.629,1.406,1.404,1.406h16.698c0.774,0,1.404-0.629,1.404-1.406v-2.521c0-0.773-0.63-1.404-1.404-1.404h-2.575V77.98  H80.62c3.87,0,7.02-3.15,7.02-7.02V37.88C87.64,34.01,84.49,30.86,80.62,30.86z M63.321,85.327H48.185v-0.963h15.137V85.327z   M59.342,77.981v4.182h-7.179v-4.182H59.342z M30.32,53.73H49.51c0.37,0,0.73-0.1,1.03-0.29c0.07-0.04,0.14-0.08,0.2-0.13  c0.49-0.38,0.76-0.95,0.76-1.57V38.15h29.69v31.18H30.32V53.73z M49.86,38.15v13.33l-0.681-0.39l-4.27-2.48l-1.771-1.03l-6.8-3.96  l-0.1-0.06l6.84-5.41l0.06-0.05l1.771-1.4l4.63-3.66h0.32v3.87V38.15z M34.72,42.68l-2.79-1.63l-1.609,0.94l-0.931,0.54l-0.319-0.25  l-3.021-2.32l-0.084-0.064h12.276L34.72,42.68z M49.22,30.86l0.2,0.19l-0.06,0.05l-0.7,0.55l-1.76,1.39l-1.99,1.58v-7.76  L49.22,30.86z M31.93,14.81l4.761,4.42H27.17L31.93,14.81z M21.18,21.38c0-0.2,0.221-0.38,0.471-0.38h1.199h2.41H38.6h2.41h1.67  c0.25,0,0.46,0.18,0.46,0.38v1.6v2.24v10.8l-1.13,0.89l-1.56,1.24l-1.447,1.144H25.182L23.86,38.28l-2.681-2.06V24.79v-2.24V21.38z   M19.41,26.43v8.43L14.52,31.1l-0.039-0.04l-0.03-0.02L19.41,26.43z M14,51.48V32.76l5.41,4.16l1.77,1.36l2.681,2.06l2.189,1.69  l1.811,1.39l-0.891,0.52l-0.92,0.54l-2.189,1.27l-2.681,1.56l-1.77,1.02L14,51.48z M16.22,52.09l3.25-1.89l1.71-0.99l2.681-1.56  l2.189-1.27l3.021-1.76l1.25-0.73l0.479-0.28l1.13-0.66l1.4,0.82l9.81,5.7l1.65,0.96l2.85,1.66H30.32h-1.25H26.05H23.86H16.22z   M85.46,70.96c0,2.67-2.17,4.84-4.84,4.84H61.527v-0.002H49.979V75.8H30.89c-2.67,0-4.84-2.17-4.84-4.84V53.73h3.021v16.85h53.37  V36.91H51.5v-3.87h29.12c2.67,0,4.84,2.17,4.84,4.84V70.96z"/><circle fill="#000000" cx="77.016" cy="73.248" r="1.456"/><rect x="23.317" y="22.97" fill="#000000" width="8.296" height="9.371"/><rect x="33.682" y="22.97" fill="#000000" width="7.179" height="2.152"/><rect x="33.682" y="26.312" fill="#000000" width="7.179" height="0.75"/><rect x="33.682" y="28.952" fill="#000000" width="7.179" height="0.75"/><rect x="33.682" y="31.593" fill="#000000" width="7.179" height="0.748"/><rect x="23.317" y="34.155" fill="#000000" width="17.543" height="2.156"/><rect x="23.317" y="37.112" fill="#000000" width="17.543" height="0.602"/><text x="0" y="115" fill="#000000" font-size="5px" font-weight="bold" font-family="'Helvetica Neue', Helvetica, Arial-Unicode, Arial, Sans-serif">Created by www.yugudesign.com</text><text x="0" y="120" fill="#000000" font-size="5px" font-weight="bold" font-family="'Helvetica Neue', Helvetica, Arial-Unicode, Arial, Sans-serif">from the Noun Project</text></svg>