<svg xmlns="http://www.w3.org/2000/svg" xmlns:xlink="http://www.w3.org/1999/xlink" version="1.1" x="0px" y="0px" viewBox="0 0 100 125" enable-background="new 0 0 100 100" xml:space="preserve"><g><path d="M23.932,49.333c0-1.106-0.898-2.002-2.006-2.002h-6.685c-1.107,0-2.005,0.896-2.005,2.002c0,1.104,0.898,2.001,2.005,2.001   h6.685C23.033,51.334,23.932,50.438,23.932,49.333z"/><path d="M24.684,61.608l-5.788,3.335c-0.959,0.552-1.287,1.776-0.734,2.733c0.555,0.958,1.78,1.285,2.739,0.733l5.789-3.335   c0.959-0.552,1.288-1.776,0.734-2.733C26.87,61.383,25.644,61.056,24.684,61.608z"/><path d="M27.209,33.676l-5.745-3.41c-0.952-0.565-2.183-0.253-2.749,0.696s-0.254,2.178,0.698,2.743l5.744,3.41   c0.952,0.565,2.183,0.253,2.75-0.697C28.473,35.469,28.16,34.241,27.209,33.676z"/><path d="M42.313,24.652h16.042c0.924,0,1.672-0.747,1.672-1.667c0-0.921-0.748-1.668-1.672-1.668H42.313   c-0.923,0-1.671,0.747-1.671,1.668C40.643,23.905,41.391,24.652,42.313,24.652z"/><path d="M42.313,29.322h16.042c0.924,0,1.672-0.747,1.672-1.668s-0.748-1.668-1.672-1.668H42.313c-0.923,0-1.671,0.747-1.671,1.668   C40.643,28.575,41.391,29.322,42.313,29.322z"/><path d="M42.313,19.983h16.042c0.924,0,1.672-0.746,1.672-1.668c0-0.921-0.748-1.667-1.672-1.667h-5.013v-0.668   c0-1.105-0.897-2-2.005-2h-2.674c-1.107,0-2.005,0.896-2.005,2v0.668h-4.345c-0.923,0-1.671,0.746-1.671,1.667   C40.643,19.237,41.391,19.983,42.313,19.983z"/><path d="M36.984,72.078c-0.951-0.565-2.183-0.253-2.748,0.696l-3.417,5.733c-0.566,0.949-0.254,2.177,0.698,2.743   c0.951,0.564,2.182,0.253,2.748-0.697l3.418-5.733C38.249,73.87,37.937,72.643,36.984,72.078z"/><path d="M60.355,30.655H39.645C33.065,34.296,28.61,41.293,28.61,49.333c0,11.789,9.576,21.345,21.39,21.345   c11.813,0,21.39-9.557,21.39-21.345C71.39,41.293,66.934,34.296,60.355,30.655z M50,61.512c-6.768,0-12.255-5.487-12.255-12.255   S43.232,37.003,50,37.003s12.255,5.486,12.255,12.254S56.768,61.512,50,61.512z"/><path d="M81.209,65.732l-5.744-3.411c-0.951-0.565-2.182-0.253-2.749,0.697c-0.566,0.949-0.253,2.178,0.698,2.743l5.745,3.41   c0.952,0.565,2.183,0.253,2.748-0.696C82.474,67.525,82.162,66.297,81.209,65.732z"/><path d="M50,75.348c-1.108,0-2.006,0.896-2.006,2.002v6.67c0,1.106,0.898,2.001,2.006,2.001s2.005-0.896,2.005-2.001v-6.67   C52.005,76.244,51.107,75.348,50,75.348z"/><path d="M84.758,47.332h-6.685c-1.107,0-2.004,0.896-2.004,2.002c0,1.104,0.897,2.001,2.004,2.001h6.685   c1.107,0,2.006-0.896,2.006-2.001C86.764,48.227,85.865,47.332,84.758,47.332z"/><path d="M75.315,37.057l5.788-3.334c0.96-0.553,1.288-1.777,0.734-2.733c-0.554-0.957-1.78-1.286-2.738-0.732l-5.789,3.335   c-0.959,0.553-1.288,1.776-0.734,2.733S74.356,37.611,75.315,37.057z"/><path d="M55.756,45.256l-8.274,6.893l-2.139-2.568c-0.656-0.788-1.827-0.895-2.615-0.238c-0.787,0.655-0.894,1.827-0.238,2.614   l3.327,3.995c0.656,0.789,1.827,0.895,2.616,0.239l9.701-8.081c0.787-0.656,0.894-1.827,0.237-2.615   C57.715,44.706,56.545,44.6,55.756,45.256z"/><path d="M65.802,73.232c-0.554-0.957-1.78-1.285-2.739-0.733s-1.288,1.776-0.733,2.733l3.342,5.777   c0.554,0.958,1.78,1.285,2.739,0.733c0.959-0.552,1.287-1.776,0.733-2.733L65.802,73.232z"/></g><text x="0" y="115" fill="#000000" font-size="5px" font-weight="bold" font-family="'Helvetica Neue', Helvetica, Arial-Unicode, Arial, Sans-serif">Created by YuguDesign </text><text x="0" y="120" fill="#000000" font-size="5px" font-weight="bold" font-family="'Helvetica Neue', Helvetica, Arial-Unicode, Arial, Sans-serif">from the Noun Project</text></svg>