<svg xmlns="http://www.w3.org/2000/svg" xmlns:xlink="http://www.w3.org/1999/xlink" version="1.1" x="0px" y="0px" viewBox="0 0 100 125" enable-background="new 0 0 100 100" xml:space="preserve"><path fill="#000000" d="M57.203,50h-0.002L47.074,35.756c-0.174-0.246-0.516-0.305-0.762-0.129L39,40.826  c-0.244,0.176-0.303,0.516-0.129,0.762L49.477,56.5v0.002l21.75,30.592c0.176,0.244,0.516,0.303,0.764,0.127l7.311-5.197  c0.246-0.176,0.303-0.518,0.129-0.764L57.203,50z M41.67,41.277l4.191-2.98c0.246-0.176,0.588-0.117,0.762,0.129l8.385,11.791  c0.176,0.248,0.119,0.588-0.127,0.764l-2.096,1.49l-2.096,1.49c-0.246,0.174-0.588,0.117-0.762-0.129l-8.387-11.793  C41.367,41.793,41.424,41.451,41.67,41.277z M76.631,81.572l-4.191,2.979c-0.246,0.176-0.586,0.117-0.762-0.127L51.67,56.283  c-0.176-0.246-0.117-0.586,0.129-0.762l2.096-1.49l2.096-1.49c0.246-0.176,0.586-0.117,0.762,0.129L76.76,80.809  C76.936,81.057,76.877,81.396,76.631,81.572z"/><path fill="#000000" d="M49.391,35.096c-0.041,0.299,0.109,0.381,0.336,0.18l6.861-6.047c0.227-0.199,0.654-0.328,0.953-0.287  l9.061,1.238c0.301,0.041,0.381-0.109,0.182-0.336l-6.047-6.861c-0.199-0.229-0.328-0.654-0.289-0.953l1.24-9.063  c0.041-0.299-0.109-0.379-0.336-0.18l-6.861,6.049c-0.227,0.199-0.652,0.328-0.953,0.287l-9.063-1.238  c-0.299-0.043-0.379,0.107-0.18,0.334l6.047,6.861c0.201,0.229,0.328,0.654,0.287,0.953L49.391,35.096z M49.131,20.813  c-0.199-0.227-0.119-0.377,0.182-0.336l4.834,0.662c0.299,0.039,0.725-0.09,0.951-0.289l3.66-3.227  c0.227-0.199,0.377-0.117,0.336,0.182l-0.66,4.834c-0.041,0.299,0.088,0.725,0.287,0.951l3.227,3.66  c0.199,0.227,0.117,0.377-0.182,0.338l-4.834-0.662c-0.299-0.041-0.725,0.088-0.951,0.287l-3.66,3.227  c-0.227,0.199-0.377,0.119-0.336-0.182l0.66-4.832c0.041-0.301-0.088-0.727-0.287-0.953L49.131,20.813z"/><path fill="#000000" d="M30.682,42.41l6.83,1.188c0.297,0.053,0.383-0.096,0.191-0.328l-4.393-5.363  c-0.191-0.234-0.305-0.664-0.252-0.963l1.188-6.828c0.051-0.297-0.096-0.383-0.33-0.191l-5.363,4.391  c-0.232,0.191-0.664,0.305-0.961,0.254l-6.828-1.188c-0.299-0.051-0.383,0.096-0.193,0.33l4.393,5.361  c0.191,0.234,0.305,0.664,0.252,0.963l-1.188,6.828c-0.051,0.297,0.096,0.383,0.33,0.193l5.363-4.393  C29.953,42.473,30.385,42.359,30.682,42.41z M29.186,40.627l-2.061,1.688c-0.234,0.191-0.381,0.105-0.33-0.191L27.25,39.5  c0.053-0.299-0.061-0.73-0.252-0.963l-1.688-2.061c-0.191-0.232-0.105-0.381,0.193-0.328l2.623,0.455  c0.297,0.053,0.729-0.061,0.963-0.252l2.059-1.688c0.234-0.191,0.383-0.105,0.33,0.191l-0.455,2.623  c-0.053,0.299,0.061,0.729,0.252,0.963l1.688,2.061c0.191,0.234,0.105,0.381-0.193,0.328l-2.623-0.455  C29.85,40.324,29.418,40.438,29.186,40.627z"/><path fill="#000000" d="M47.242,55.035l-6.176-0.709c-0.301-0.033-0.682-0.264-0.852-0.514l-3.502-5.137  c-0.17-0.248-0.336-0.207-0.371,0.094l-0.707,6.174c-0.033,0.301-0.264,0.682-0.514,0.852l-5.137,3.504  c-0.248,0.17-0.207,0.336,0.092,0.369l6.178,0.707c0.299,0.035,0.68,0.266,0.852,0.514l3.5,5.137  c0.17,0.248,0.338,0.207,0.371-0.092l0.707-6.176c0.033-0.301,0.266-0.682,0.514-0.852l5.137-3.502  C47.582,55.234,47.543,55.068,47.242,55.035z M42.004,56.721l-1.607,1.098c-0.25,0.17-0.48,0.551-0.516,0.852l-0.221,1.936  c-0.035,0.301-0.201,0.34-0.371,0.092l-1.096-1.609c-0.172-0.25-0.553-0.48-0.852-0.514l-1.938-0.223  c-0.299-0.033-0.34-0.199-0.09-0.371l1.609-1.096c0.248-0.172,0.479-0.553,0.514-0.852l0.223-1.938  c0.033-0.299,0.199-0.34,0.369-0.09l1.098,1.609c0.17,0.25,0.551,0.479,0.852,0.514l1.936,0.223  C42.215,56.385,42.256,56.551,42.004,56.721z"/><text x="0" y="115" fill="#000000" font-size="5px" font-weight="bold" font-family="'Helvetica Neue', Helvetica, Arial-Unicode, Arial, Sans-serif">Created by www.yugudesign.com</text><text x="0" y="120" fill="#000000" font-size="5px" font-weight="bold" font-family="'Helvetica Neue', Helvetica, Arial-Unicode, Arial, Sans-serif">from the Noun Project</text></svg>