<svg xmlns="http://www.w3.org/2000/svg" xmlns:xlink="http://www.w3.org/1999/xlink" version="1.1" x="0px" y="0px" viewBox="0 0 100 125" enable-background="new 0 0 100 100" xml:space="preserve"><path fill="#000000" d="M54.598,32.284h3.078c0.307,0,0.557-0.249,0.557-0.556c0-0.308-0.25-0.557-0.557-0.557h-3.078  c-0.305,0-0.557,0.249-0.557,0.557C54.041,32.035,54.293,32.284,54.598,32.284z"/><circle fill="#000000" cx="56.982" cy="75.104" r="1.456"/><path fill="#000000" d="M38.5,44.62V72.9c0,3.88,3.15,7.03,7.03,7.03h21.22c3.87,0,7.02-3.15,7.02-7.03V33.75  c0-3.87-3.149-7.02-7.02-7.02H49.41c-2.04-3.95-6.16-6.66-10.91-6.66c-6.77,0-12.27,5.51-12.27,12.28  C26.23,39.11,31.73,44.62,38.5,44.62z M66.75,28.92c2.67,0,4.84,2.17,4.84,4.83V72.9c0,2.67-2.17,4.84-4.84,4.84H45.53  c-2.67,0-4.84-2.17-4.84-4.84V44.42c1.31-0.23,2.56-0.68,3.689-1.31v29.28h23.51V34.2H50.64c0.091-0.6,0.141-1.22,0.141-1.85  c0-1.19-0.17-2.34-0.49-3.43H66.75z M45.63,42.33c2.3-1.64,4.021-4.07,4.75-6.88h16.26v35.69H45.63V42.33z M38.5,21.95  c3.67,0,6.9,1.9,8.74,4.78c0.45,0.68,0.81,1.41,1.08,2.19c0.38,1.07,0.58,2.23,0.58,3.43c0,0.63-0.061,1.25-0.17,1.85  c-0.07,0.43-0.171,0.84-0.301,1.25c-0.54,1.72-1.51,3.25-2.8,4.46c-0.39,0.37-0.81,0.71-1.25,1.01c-1.09,0.76-2.34,1.31-3.689,1.6  c-0.7,0.15-1.44,0.23-2.19,0.23c-5.73,0-10.4-4.67-10.4-10.4C28.1,26.61,32.77,21.95,38.5,21.95z"/><path fill="#000000" d="M34.043,33.902h2.82v2.821c0,0.881,0.715,1.596,1.598,1.596c0.881,0,1.594-0.715,1.594-1.596v-2.821h2.822  c0.881,0,1.596-0.714,1.596-1.596s-0.715-1.596-1.596-1.596h-2.822V27.89c0-0.882-0.713-1.597-1.594-1.597  c-0.883,0-1.598,0.715-1.598,1.597v2.821h-2.82c-0.881,0-1.596,0.714-1.596,1.596S33.162,33.902,34.043,33.902z"/><text x="0" y="115" fill="#000000" font-size="5px" font-weight="bold" font-family="'Helvetica Neue', Helvetica, Arial-Unicode, Arial, Sans-serif">Created by www.yugudesign.com</text><text x="0" y="120" fill="#000000" font-size="5px" font-weight="bold" font-family="'Helvetica Neue', Helvetica, Arial-Unicode, Arial, Sans-serif">from the Noun Project</text></svg>