<svg width="100" height="100" xmlns="http://www.w3.org/2000/svg">

 <g>
  <title>background</title>
  <rect fill="none" id="canvas_background" height="102" width="102" y="-1" x="-1"/>
 </g>
 <g>
  <title>Layer 1</title>
  <path stroke="#000000" fill="none" id="svg_1" d="m9.3,65.6l-2.2,-21.6c-0.1,-1 0.2,-2.1 1.1,-2.8c1,-0.8 2.6,-1.1 3.8,0.2c0.8,0.9 1.2,3.9 1.4,4.7c0.5,2.8 0.9,6.9 1,9.7c0,0.2 0,0.5 0,0.7c0.1,1.3 0.4,2.4 0.9,3.5c2.9,6.3 8.7,14.2 8.7,14.2l0.3,0.5c0.2,0.4 0.7,0.5 1.1,0.3c0.4,-0.2 0.6,-0.8 0.3,-1.2l-7.7,-12.5c-0.8,-1.4 -0.4,-3.4 1.1,-4.3c1.5,-0.9 3.5,-0.4 4.3,0.9l8,10.2c0.5,0.7 1.5,1.6 2.2,2.1c7.2,5.2 8.1,10.4 8.8,13.1c0,0 0.1,0.6 0.1,1.5l0,0l0,0c0,0.7 0,1.6 -0.1,2.5l-0.6,8.7c0,0.6 -0.5,1.1 -1.1,1.1l-13.5,-0.1c-0.6,0 -1.1,-0.5 -1.1,-1.1l-0.3,-7.1l-12.8,-15.4c-1.9,-2 -3.2,-4.3 -3.6,-7l-0.1,-0.8zm5.8,-22.7c0.2,0.8 0.4,1.5 0.5,2.3c0.4,2.4 1,6.9 1.1,9.2c0,0.2 0,0.5 0,0.7c0.3,-0.2 0.6,-0.5 0.9,-0.6c0.4,-0.2 0.8,-0.4 1.2,-0.6c0,0 0,0 0,-0.1c-0.3,-2.2 -1.1,-6.5 -1.7,-8.6c-0.2,-1.1 -0.8,-1.9 -2,-2.3zm4.3,3.1c0.4,1.6 1.3,4.6 1.5,6.2l0.1,1.1c0,0.1 0,0.2 0,0.3c0.7,0 1.3,0.2 1.9,0.4c-0.2,-1.4 -1.2,-4.3 -1.5,-5.7c-0.2,-1.1 -0.9,-1.9 -2,-2.3zm68.7,-4.6c-0.8,0.9 -1.2,3.9 -1.4,4.7c-0.5,2.8 -0.9,6.9 -1,9.7c0,0.2 0,0.5 0,0.7c-0.1,1.3 -0.4,2.4 -0.9,3.5c-2.9,6.3 -8.7,14.2 -8.7,14.2l-0.3,0.5c-0.3,0.3 -0.8,0.5 -1.1,0.3c-0.4,-0.2 -0.6,-0.8 -0.3,-1.2l7.6,-12.5c0.8,-1.4 0.4,-3.4 -1.2,-4.3c-1.5,-0.9 -3.5,-0.4 -4.3,0.9l-8,10.2c-0.5,0.7 -1.5,1.6 -2.2,2.1c-7.2,5.2 -8.1,10.4 -8.8,13.1c0,0 -0.1,0.6 -0.1,1.5l0,0c0,0.7 0,1.6 0.1,2.5l0.5,8.6c0,0.6 0.5,1.1 1.1,1.1l13.7,0c0.6,0 1.1,-0.5 1.1,-1.1l0.3,-7.1l12.8,-15.4c1.9,-2 3.2,-4.3 3.6,-7l0.1,-0.8l2.2,-21.6c0.1,-1.1 -0.3,-2.2 -1.1,-2.8c-1,-0.8 -2.5,-1.1 -3.7,0.2zm-6.9,12.4c0,0 0,0.1 0,0c0.5,0.2 0.9,0.4 1.3,0.6c0.3,0.2 0.6,0.4 0.9,0.6c0,-0.2 0,-0.5 0,-0.7c0,-2.3 0.6,-6.8 1.1,-9.2c0.1,-0.7 0.3,-1.5 0.5,-2.3c-1.1,0.4 -1.8,1.2 -2,2.3c-0.8,2.3 -1.5,6.5 -1.8,8.7zm-4.2,0.1c0.6,-0.2 1.3,-0.4 1.9,-0.4c0,-0.1 0,-0.2 0,-0.3l0.1,-1.1c0.2,-1.6 1.1,-4.5 1.5,-6.2c-1.1,0.4 -1.7,1.2 -2,2.2c-0.3,1.5 -1.3,4.4 -1.5,5.8zm3.9,-35.5c0,6.9 -5.6,12.6 -12.6,12.6l-1.6,0c-2.4,5.2 -7.1,9.2 -12.9,10.4l0,7.9l4.5,0c1.4,0 2.5,1.1 2.5,2.5l0,3.3l3.9,0l0,11.8l-29.4,0l0,-11.8l3.9,0l0,-3.3c0,-1.4 1.1,-2.5 2.5,-2.5l4.5,0l0,-7.9c-5.7,-1.2 -10.5,-5.2 -12.9,-10.4l-1.6,0c-6.9,0 -12.6,-5.6 -12.6,-12.6l0,-9.6l12.6,0l0,-5.9l36.7,0l0,5.9l12.6,0l0,9.6l-0.1,0zm-49.2,6.2c0,-0.4 0,-0.8 0,-1.2l0,-8.3l-6.2,0l0,3.3c-0.1,3.4 2.7,6.2 6.2,6.2l0,0zm13.2,31.1l0,6.3l10.2,0l0,-6.3l-10.2,0zm15.3,-37.9c-0.3,-1 -1.2,-1.7 -2.3,-1.8l-3.9,-0.3l-1.6,-3.7c-0.4,-1 -1.4,-1.6 -2.4,-1.6c-1.1,0 -2,0.6 -2.4,1.6l-1.5,3.7l-4,0.3c-1.1,0.1 -2,0.8 -2.3,1.8c-0.3,1 0,2.1 0.8,2.8l3,2.5l-0.9,3.9c-0.2,0.8 0,1.6 0.5,2.2c0.8,1 2.3,1.3 3.5,0.6l3.4,-2.1l3.4,2.1c0.4,0.3 0.9,0.4 1.4,0.4c0.8,0 1.6,-0.4 2.1,-1c0.5,-0.6 0.7,-1.5 0.5,-2.2l-0.9,-3.8l3,-2.5c0.6,-0.8 0.9,-1.9 0.6,-2.9zm14.4,-2.7l-6.2,0l0,8.3c0,0.4 0,0.8 0,1.2l0,0c3.4,0 6.2,-2.8 6.2,-6.2l0,-3.3zm-24.6,-0.6l-1.7,4.2l-4.6,0.3l3.5,2.9l-1.1,4.4l3.9,-2.3l3.9,2.4l-1.1,-4.4l3.5,-2.9l-4.6,-0.3l-1.7,-4.3z"/>
 </g>
</svg>